<svg id="Layer_1" data-name="Layer 1" xmlns="http://www.w3.org/2000/svg" viewBox="0 0 308.666 30.9"><title>ADM logo with R</title><g id="Group_8018" data-name="Group 8018"><g id="Atellica_Data_Manager" data-name="Atellica Data Manager" style="isolation:isolate"><g style="isolation:isolate"><path d="M33.735,25h-4.95l6.48-19.95h5.79L47.955,25h-5.49l-1.35-4.26h-6.03Zm4.29-15.15-2.07,7.11h4.2l-2.01-7.11Z" transform="translate(-28.785 -2.05)"/><path d="M49.425,4.15H54.5V9.64h3.75v3.93H54.5v6.06q0,2.07,1.8,2.07a3.512,3.512,0,0,0,1.62-.48L59,24.37a6.5,6.5,0,0,1-1.95.81,9.274,9.274,0,0,1-2.31.3q-3.6,0-4.71-2.1a9.075,9.075,0,0,1-.6-3.87Z" transform="translate(-28.785 -2.05)"/><path d="M67.215,9.19a5.554,5.554,0,0,1,3.991,1.32,4.423,4.423,0,0,1,1.259,3.36,4.6,4.6,0,0,1-3.15,4.41,14.118,14.118,0,0,1-4.71.99,2.487,2.487,0,0,0,.96,1.83,3.1,3.1,0,0,0,2.011.63A6.8,6.8,0,0,0,71.3,20.47l1.32,3.3a5.762,5.762,0,0,1-1.889.99,10.638,10.638,0,0,1-3.871.72q-4.02,0-5.879-2.43a8.622,8.622,0,0,1-1.471-5.31,8.923,8.923,0,0,1,2.19-6.21A7.064,7.064,0,0,1,67.215,9.19Zm.9,4.74a1.251,1.251,0,0,0-.315-.9,1.128,1.128,0,0,0-.855-.33,2.2,2.2,0,0,0-1.92,1.11,4.9,4.9,0,0,0-.66,2.43,6,6,0,0,0,2.64-.72A1.835,1.835,0,0,0,68.115,13.93Z" transform="translate(-28.785 -2.05)"/><path d="M74.686,4.15h5.009V19.57a2.882,2.882,0,0,0,.3,1.515,1.083,1.083,0,0,0,.989.465,4.978,4.978,0,0,0,1.741-.51l1.079,3.33a6.882,6.882,0,0,1-1.934.795,8.829,8.829,0,0,1-2.266.315q-3.3,0-4.32-1.89a8.089,8.089,0,0,1-.6-3.63Z" transform="translate(-28.785 -2.05)"/><path d="M85.1,4.15h5.01V19.57a2.894,2.894,0,0,0,.3,1.515,1.085,1.085,0,0,0,.99.465,4.968,4.968,0,0,0,1.74-.51l1.08,3.33a6.877,6.877,0,0,1-1.935.795,8.816,8.816,0,0,1-2.265.315q-3.3,0-4.32-1.89a8.087,8.087,0,0,1-.6-3.63Z" transform="translate(-28.785 -2.05)"/><path d="M95.715,5.26a2.374,2.374,0,0,1,.81-1.86,2.722,2.722,0,0,1,1.86-.63,2.607,2.607,0,0,1,2.01.81,2.344,2.344,0,0,1,.66,1.68,2.282,2.282,0,0,1-.84,1.86,2.678,2.678,0,0,1-1.83.63,2.644,2.644,0,0,1-2.04-.81A2.335,2.335,0,0,1,95.715,5.26ZM100.905,25h-5.04V9.64h5.04Z" transform="translate(-28.785 -2.05)"/><path d="M111.375,21.49a5.616,5.616,0,0,0,3.15-1.2l1.77,3.39a8.842,8.842,0,0,1-5.64,1.77,6.885,6.885,0,0,1-5.58-2.28,8.54,8.54,0,0,1-1.74-5.67q0-4.41,2.64-6.63a7.128,7.128,0,0,1,4.77-1.68,6.515,6.515,0,0,1,5.88,3.12l-3.06,2.61a3.47,3.47,0,0,0-2.61-1.77,2.131,2.131,0,0,0-1.98,1.2,6.077,6.077,0,0,0-.6,2.94Q108.375,21.49,111.375,21.49Z" transform="translate(-28.785 -2.05)"/><path d="M131.145,10.39V21.76l.33,3.24h-4.261L127,23.59l-.18-.03a4.239,4.239,0,0,1-3.869,1.89q-5.761,0-5.761-7.44,0-4.38,2.31-6.69a7.8,7.8,0,0,1,5.82-2.13A16.46,16.46,0,0,1,131.145,10.39Zm-4.98,9.78V12.94a4.039,4.039,0,0,0-1.38-.21,2.1,2.1,0,0,0-1.935,1.275,7.926,7.926,0,0,0-.676,3.645q0,4.23,2.16,4.23a1.865,1.865,0,0,0,1.306-.48A1.6,1.6,0,0,0,126.165,20.17Z" transform="translate(-28.785 -2.05)"/><path d="M153.554,25V5.05h6.989q4.92,0,7.411,2.58a9.307,9.307,0,0,1,2.279,6.72q0,5.82-3.269,8.58a9.452,9.452,0,0,1-6.3,2.07Zm5.16-15.93V21.01h2.01a3.735,3.735,0,0,0,3.33-1.74,8.14,8.14,0,0,0,1.02-4.41q0-5.79-4.68-5.79Z" transform="translate(-28.785 -2.05)"/><path d="M186.253,10.39V21.76l.33,3.24h-4.26l-.21-1.41-.18-.03a4.24,4.24,0,0,1-3.87,1.89q-5.76,0-5.76-7.44,0-4.38,2.31-6.69a7.8,7.8,0,0,1,5.82-2.13A16.45,16.45,0,0,1,186.253,10.39Zm-4.98,9.78V12.94a4.029,4.029,0,0,0-1.379-.21,2.107,2.107,0,0,0-1.936,1.275,7.94,7.94,0,0,0-.675,3.645q0,4.23,2.16,4.23a1.865,1.865,0,0,0,1.306-.48A1.594,1.594,0,0,0,181.273,20.17Z" transform="translate(-28.785 -2.05)"/><path d="M189.583,4.15h5.07V9.64h3.75v3.93h-3.75v6.06q0,2.07,1.8,2.07a3.512,3.512,0,0,0,1.62-.48l1.08,3.15a6.515,6.515,0,0,1-1.95.81,9.28,9.28,0,0,1-2.31.3q-3.6,0-4.71-2.1a9.059,9.059,0,0,1-.6-3.87Z" transform="translate(-28.785 -2.05)"/><path d="M213.763,10.39V21.76l.33,3.24h-4.26l-.21-1.41-.181-.03a4.237,4.237,0,0,1-3.869,1.89q-5.762,0-5.76-7.44,0-4.38,2.31-6.69a7.8,7.8,0,0,1,5.819-2.13A16.451,16.451,0,0,1,213.763,10.39Zm-4.98,9.78V12.94a4.039,4.039,0,0,0-1.38-.21,2.106,2.106,0,0,0-1.935,1.275,7.94,7.94,0,0,0-.675,3.645q0,4.23,2.16,4.23a1.863,1.863,0,0,0,1.305-.48A1.6,1.6,0,0,0,208.783,20.17Z" transform="translate(-28.785 -2.05)"/><path d="M233.8,16.39l4.05-11.34h5.309L244.213,25h-4.921l-.569-10.53h-.09l-3.21,8.52h-3.6l-3.179-8.22h-.121L227.952,25h-4.889L224.2,5.05h5.37l4.111,11.34Z" transform="translate(-28.785 -2.05)"/><path d="M259.933,10.39V21.76l.33,3.24H256l-.21-1.41-.18-.03a4.238,4.238,0,0,1-3.87,1.89q-5.76,0-5.76-7.44,0-4.38,2.31-6.69a7.8,7.8,0,0,1,5.82-2.13A16.455,16.455,0,0,1,259.933,10.39Zm-4.981,9.78V12.94a4.031,4.031,0,0,0-1.38-.21,2.1,2.1,0,0,0-1.934,1.275,7.939,7.939,0,0,0-.676,3.645q0,4.23,2.16,4.23a1.864,1.864,0,0,0,1.306-.48A1.594,1.594,0,0,0,254.952,20.17Z" transform="translate(-28.785 -2.05)"/><path d="M268.332,25h-4.979V12.73l-.361-3.09h4.17l.3,1.65a5.143,5.143,0,0,1,4.38-2.1,4.5,4.5,0,0,1,3.66,1.47,5.789,5.789,0,0,1,1.14,3.84V25H271.6V15.37a4.1,4.1,0,0,0-.286-1.83,1.081,1.081,0,0,0-1.035-.51,1.787,1.787,0,0,0-1.41.615,2.39,2.39,0,0,0-.54,1.635Z" transform="translate(-28.785 -2.05)"/><path d="M293.022,10.39V21.76l.331,3.24h-4.261l-.21-1.41-.18-.03a4.24,4.24,0,0,1-3.87,1.89q-5.76,0-5.76-7.44,0-4.38,2.31-6.69a7.8,7.8,0,0,1,5.82-2.13A16.45,16.45,0,0,1,293.022,10.39Zm-4.98,9.78V12.94a4.031,4.031,0,0,0-1.38-.21,2.1,2.1,0,0,0-1.934,1.275,7.926,7.926,0,0,0-.676,3.645q0,4.23,2.16,4.23a1.865,1.865,0,0,0,1.306-.48A1.594,1.594,0,0,0,288.042,20.17Z" transform="translate(-28.785 -2.05)"/><path d="M302.382,32.95a5.991,5.991,0,0,1-4.23-1.32,3.94,3.94,0,0,1-1.171-3q0-2.94,3.151-5.22a4.819,4.819,0,0,1-3.361-2.16,7.088,7.088,0,0,1-1.229-4.2,7.556,7.556,0,0,1,2.49-6.12,8.066,8.066,0,0,1,5.37-1.74,16.672,16.672,0,0,1,3.21.33,14.677,14.677,0,0,1,2.94.87V22.06q0,2.25-.09,3.51a8.521,8.521,0,0,1-2.191,5.67A6.806,6.806,0,0,1,302.382,32.95Zm2.19-14.07V12.91a5.1,5.1,0,0,0-1.23-.15,2.366,2.366,0,0,0-2.25,1.47,6.274,6.274,0,0,0-.54,2.76,7.145,7.145,0,0,0,.42,2.85,1.775,1.775,0,0,0,1.74,1.11,1.725,1.725,0,0,0,1.35-.57A2.17,2.17,0,0,0,304.572,18.88Zm-3.091,8.97q0,1.5,1.381,1.5a1.384,1.384,0,0,0,1.395-.915,10.313,10.313,0,0,0,.375-3.4V23.5a7.371,7.371,0,0,0-2.37,2.1A3.876,3.876,0,0,0,301.481,27.85Z" transform="translate(-28.785 -2.05)"/><path d="M319.722,9.19a5.553,5.553,0,0,1,3.99,1.32,4.42,4.42,0,0,1,1.26,3.36,4.6,4.6,0,0,1-3.151,4.41,14.113,14.113,0,0,1-4.71.99,2.487,2.487,0,0,0,.96,1.83,3.1,3.1,0,0,0,2.011.63,6.8,6.8,0,0,0,3.72-1.26l1.319,3.3a5.769,5.769,0,0,1-1.89.99,10.629,10.629,0,0,1-3.87.72q-4.018,0-5.88-2.43a8.628,8.628,0,0,1-1.469-5.31,8.923,8.923,0,0,1,2.189-6.21A7.064,7.064,0,0,1,319.722,9.19Zm.9,4.74a1.251,1.251,0,0,0-.314-.9,1.131,1.131,0,0,0-.856-.33,2.2,2.2,0,0,0-1.92,1.11,4.9,4.9,0,0,0-.66,2.43,6,6,0,0,0,2.641-.72A1.836,1.836,0,0,0,320.621,13.93Z" transform="translate(-28.785 -2.05)"/><path d="M332.291,15.61V25h-5.01V12.58l-.389-2.94h4.08l.389,2.13a4.246,4.246,0,0,1,1.47-1.9,3.625,3.625,0,0,1,2.131-.675,5.488,5.488,0,0,1,2.489.57l-.809,4.17a4.539,4.539,0,0,0-2.161-.51,2.13,2.13,0,0,0-1.575.585A2.279,2.279,0,0,0,332.291,15.61Z" transform="translate(-28.785 -2.05)"/></g></g><path id="Path_3477" data-name="Path 3477" d="M144.832,7.86a5.537,5.537,0,0,1-1.914,4.427,6.132,6.132,0,0,1-4.187,1.466,5.577,5.577,0,0,1-5.946-5.182,5.691,5.691,0,0,1-.006-.653,5.608,5.608,0,0,1,1.884-4.4,5.9,5.9,0,0,1,4.068-1.463,5.968,5.968,0,0,1,4.606,1.882A5.567,5.567,0,0,1,144.832,7.86Zm-1.7.057a4.164,4.164,0,0,0-1.406-3.258,4.364,4.364,0,0,0-2.991-1.077,4.053,4.053,0,0,0-3.23,1.376,4.413,4.413,0,0,0-1.017,2.959,4.232,4.232,0,0,0,1.346,3.29,4.426,4.426,0,0,0,7.3-2.9c.006-.13.007-.26,0-.39Zm-2.662.661L141.547,11H139.9l-.927-2.091c-.12-.282-.279-.419-.479-.419h-.276V11h-1.5V4.687h2.273q2.094,0,2.094,1.707a1.743,1.743,0,0,1-1.017,1.732.887.887,0,0,1,.4.452Zm-2.243-1.226h.179c.718,0,1.077-.282,1.077-.837a.6.6,0,0,0-.224-.538,1.669,1.669,0,0,0-.852-.152h-.187Z" transform="translate(-28.785 -2.05)"/></g></svg>