<svg id="Group_48715" data-name="Group 48715" xmlns="http://www.w3.org/2000/svg" width="32.82" height="32.429" viewBox="0 0 32.82 32.429">
  <path id="Path_54661" data-name="Path 54661" d="M725.7,1009.909s2.139,1.966,2.341,3.694c0,0,.519-3.565-1.058-5.443A1.834,1.834,0,0,1,725.7,1009.909Z" transform="translate(-713.802 -988.843)" fill="#23af5b"/>
  <path id="Path_54662" data-name="Path 54662" d="M780.743,1013.6c.2-1.728,2.341-3.694,2.341-3.694a1.834,1.834,0,0,1-1.284-1.749C780.224,1010.037,780.743,1013.6,780.743,1013.6Z" transform="translate(-762.162 -988.843)" fill="#23af5b"/>
  <path id="Path_54663" data-name="Path 54663" d="M753.965,1001.239l1.111,3.923,1.111-3.923a1.749,1.749,0,0,1-2.222,0Z" transform="translate(-738.666 -982.68)" fill="#23af5b"/>
  <path id="Path_54664" data-name="Path 54664" d="M643.054,846.208a16.406,16.406,0,0,0-3.53,32.429c.12-6.07-.975-8.684-2.354-10.148a3.453,3.453,0,0,1-2.571,1.136,3.311,3.311,0,0,1-3.4-3.218,3.257,3.257,0,0,1,2.637-3.13,3.661,3.661,0,0,1-.4-1.637,3.974,3.974,0,0,1,4.077-3.861c.1,0,.2.021.3.029.353-1.995,2.551-3.537,5.237-3.537s4.884,1.543,5.237,3.537c.1-.007.2-.029.3-.029a3.974,3.974,0,0,1,4.077,3.861,3.662,3.662,0,0,1-.4,1.637,3.257,3.257,0,0,1,2.637,3.13,3.311,3.311,0,0,1-3.4,3.218,3.453,3.453,0,0,1-2.571-1.136c-1.379,1.464-2.474,4.078-2.354,10.148a16.406,16.406,0,0,0-3.53-32.429Z" transform="translate(-626.644 -846.208)" fill="#23af5b"/>
</svg>
