<svg id="Group_48718" data-name="Group 48718" xmlns="http://www.w3.org/2000/svg" width="32.062" height="32.061" viewBox="0 0 32.062 32.061">
  <g id="Group_48703" data-name="Group 48703" transform="translate(7.026 19.802)">
    <g id="Group_48702" data-name="Group 48702">
      <path id="Path_54690" data-name="Path 54690" d="M703.539,1454.036h-18.01v9.49a16.026,16.026,0,0,0,18.01,0Zm-12.969,9.639a1.816,1.816,0,1,1,1.816-1.816A1.816,1.816,0,0,1,690.57,1463.675Zm3.964-4.905a1.252,1.252,0,1,1,1.252-1.253A1.252,1.252,0,0,1,694.534,1458.77Zm4.218,3.324a1.559,1.559,0,1,1,1.559-1.559A1.559,1.559,0,0,1,698.752,1462.094Z" transform="translate(-685.529 -1454.036)" fill="#fbb03b"/>
    </g>
  </g>
  <g id="Group_48704" data-name="Group 48704">
    <path id="Path_54691" data-name="Path 54691" d="M641.957,1286.043a16.016,16.016,0,0,0-11.009,27.663v-8.863h.01a.993.993,0,0,1,.5-.874l13.877-7.786a1,1,0,0,1,.819-.073,10.889,10.889,0,0,1,6.8,8.59.965.965,0,0,1-.01.143h.02v8.863a16.016,16.016,0,0,0-11.009-27.663Z" transform="translate(-625.926 -1286.043)" fill="#fbb03b"/>
  </g>
</svg>
