<svg id="Group_48717" data-name="Group 48717" xmlns="http://www.w3.org/2000/svg" width="32.781" height="32.781" viewBox="0 0 32.781 32.781">
  <g id="Group_48684" data-name="Group 48684" transform="translate(27.998 20.552)">
    <path id="Path_54676" data-name="Path 54676" d="M1334.982,1456.574a7.679,7.679,0,0,1,2.586,4.011,16.307,16.307,0,0,0,.892-1.757A5.581,5.581,0,0,0,1334.982,1456.574Z" transform="translate(-1334.982 -1456.574)" fill="#a06658"/>
  </g>
  <g id="Group_48685" data-name="Group 48685">
    <path id="Path_54677" data-name="Path 54677" d="M1128.5,1313.494c-1.9.18-2.356.886-5.881.886-2.287,0-3.9-.813-5.622-1.063-1.679-.244-3.514.452-4.158-.609s-.937-3.406-.695-7.648c.206-3.619,2.522-7.987,3.024-9.619s.2-2.117.779-3.915a2.953,2.953,0,0,1,1.051-1.552c.87-.557,5.231.777,5.445,2.127a2.192,2.192,0,0,1-.25,1.395,2.206,2.206,0,0,0-.413-.075,2.542,2.542,0,0,0-1.131.373c-.138.07-.526.206-.526.206l.164-.778a.2.2,0,0,0-.2-.248,2.713,2.713,0,0,1-.651-.07.939.939,0,0,1-.359-.156.2.2,0,0,0-.316.117c-.12.477-.21,1.2.28,1.541a1.116,1.116,0,0,0,.328.159,1.228,1.228,0,0,0,.353.05c.04,0,.079-.009.118-.012s.077-.006.115-.012q.086-.013.171-.035l.023-.006c.646-.172,1.246-.647,1.633-.647a.38.38,0,0,1,.09.01l.006,0a.312.312,0,0,1,.076.03,2.19,2.19,0,0,1,.316.219l0,0a1.756,1.756,0,0,1,.273.286,1,1,0,0,1,.074,1.174c-.208.363-1.03.242-1.509.534s-.509,1.226-1.372,1.5-.993-.173-1.312.114-.5,1.009-.18,2.132,1.066,2.212,1.109,3.834a6.343,6.343,0,0,1-.738,3.035c.118.12,2.68-2.721,6.886-2.725a14.989,14.989,0,0,1,4.412.988,7.2,7.2,0,0,1,5.522-2.422c0-.059.009-.116.009-.176a16.436,16.436,0,1,0-4.243,10.977A25.532,25.532,0,0,0,1128.5,1313.494Z" transform="translate(-1102.667 -1286.043)" fill="#a06658"/>
  </g>
  <path id="Path_54678" data-name="Path 54678" d="M1243.607,1475.6a17.94,17.94,0,0,0,9.478.3A6.7,6.7,0,0,1,1243.607,1475.6Z" transform="translate(-1226.621 -1452.758)" fill="#a06658"/>
  <path id="Path_54679" data-name="Path 54679" d="M1206.9,1404.593a10.41,10.41,0,0,0,.654,6.436A4.394,4.394,0,0,1,1206.9,1404.593Z" transform="translate(-1193.324 -1390.305)" fill="#a06658"/>
</svg>
