<svg xmlns="http://www.w3.org/2000/svg" xmlns:xlink="http://www.w3.org/1999/xlink" width="50" height="48.648" viewBox="0 0 50 48.648">
  <defs>
    <filter id="Path_75855" x="7.381" y="6.645" width="35.238" height="35.238" filterUnits="userSpaceOnUse">
      <feOffset input="SourceAlpha"/>
      <feGaussianBlur stdDeviation="1" result="blur"/>
      <feFlood flood-opacity="0.161" result="color"/>
      <feComposite operator="out" in="SourceGraphic" in2="blur"/>
      <feComposite operator="in" in="color"/>
      <feComposite operator="in" in2="SourceGraphic"/>
    </filter>
    <clipPath id="clip-Artboard_94">
      <rect width="50" height="48.649"/>
    </clipPath>
  </defs>
  <g id="Artboard_94" data-name="Artboard – 94" clip-path="url(#clip-Artboard_94)">
    <g id="Group_55334" data-name="Group 55334" transform="translate(-3964.5 -9030.736)">
      <g data-type="innerShadowGroup">
        <path id="Path_75855-2" data-name="Path 75855" d="M17.619,0A17.619,17.619,0,1,1,0,17.619,17.619,17.619,0,0,1,17.619,0Z" transform="translate(3971.881 9037.381)" fill="#fbfbfb"/>
        <g transform="matrix(1, 0, 0, 1, 3964.5, 9030.74)" filter="url(#Path_75855)">
          <path id="Path_75855-3" data-name="Path 75855" d="M17.619,0A17.619,17.619,0,1,1,0,17.619,17.619,17.619,0,0,1,17.619,0Z" transform="translate(7.38 6.64)" fill="#fff"/>
        </g>
      </g>
      <g id="Group_54424" data-name="Group 54424" transform="translate(3965.5 9031)">
        <g id="Path_75853" data-name="Path 75853" transform="translate(0 0.385)" fill="none" opacity="0.6">
          <path d="M24,48A24,24,0,1,1,48,24,24,24,0,0,1,24,48Z" stroke="none"/>
          <path d="M 24 45.5 C 26.90357971191406 45.5 29.71898078918457 44.93188858032227 32.36800003051758 43.81145095825195 C 34.92790985107422 42.72869873046875 37.22745895385742 41.17811965942383 39.20278930664062 39.20278930664062 C 41.17811965942383 37.22745895385742 42.72869873046875 34.92790985107422 43.81145095825195 32.36800003051758 C 44.93188858032227 29.71898078918457 45.5 26.90357971191406 45.5 24 C 45.5 21.09642028808594 44.93188858032227 18.28101921081543 43.81145095825195 15.63199996948242 C 42.72869873046875 13.07209014892578 41.17811965942383 10.77254009246826 39.20278930664062 8.797209739685059 C 37.22745895385742 6.821879863739014 34.92790985107422 5.271299839019775 32.36800003051758 4.188549995422363 C 29.71898078918457 3.06810998916626 26.90357971191406 2.5 24 2.5 C 21.09642028808594 2.5 18.28101921081543 3.06810998916626 15.63199996948242 4.188549995422363 C 13.07209014892578 5.271299839019775 10.77254009246826 6.821879863739014 8.797209739685059 8.797209739685059 C 6.821879863739014 10.77254009246826 5.271299839019775 13.07209014892578 4.188549995422363 15.63199996948242 C 3.06810998916626 18.28101921081543 2.5 21.09642028808594 2.5 24 C 2.5 26.90357971191406 3.06810998916626 29.71898078918457 4.188549995422363 32.36800003051758 C 5.271299839019775 34.92790985107422 6.821879863739014 37.22745895385742 8.797209739685059 39.20278930664062 C 10.77254009246826 41.17811965942383 13.07209014892578 42.72869873046875 15.63199996948242 43.81145095825195 C 18.28101921081543 44.93188858032227 21.09642028808594 45.5 24 45.5 M 24 48 C 10.7451696395874 48 -3.552713678800501e-15 37.25482940673828 -3.552713678800501e-15 24 C -3.552713678800501e-15 10.7451696395874 10.7451696395874 -3.552713678800501e-15 24 -3.552713678800501e-15 C 37.25482940673828 -3.552713678800501e-15 48 10.7451696395874 48 24 C 48 37.25482940673828 37.25482940673828 48 24 48 Z" stroke="none" fill="#b6b8b8"/>
        </g>
      </g>
    </g>
    <g id="Group_55335" data-name="Group 55335" transform="translate(18.202 17.175)" opacity="0.6">
      <g id="Group_48684" data-name="Group 48684" transform="translate(11.612 8.524)">
        <path id="Path_54676" data-name="Path 54676" d="M1334.982,1456.574a3.184,3.184,0,0,1,1.073,1.663,6.768,6.768,0,0,0,.37-.729A2.315,2.315,0,0,0,1334.982,1456.574Z" transform="translate(-1334.982 -1456.574)" fill="#595c5c"/>
      </g>
      <g id="Group_48685" data-name="Group 48685">
        <path id="Path_54677" data-name="Path 54677" d="M1113.382,1297.428a11.209,11.209,0,0,1-2.439.367,12.89,12.89,0,0,1-2.332-.441c-.7-.1-1.458.188-1.724-.253a6.443,6.443,0,0,1-.288-3.172,15.777,15.777,0,0,1,1.254-3.989c.208-.677.082-.878.323-1.624a1.225,1.225,0,0,1,.436-.644c.361-.231,2.17.322,2.258.882a.909.909,0,0,1-.1.578.92.92,0,0,0-.171-.031,1.054,1.054,0,0,0-.469.155c-.057.029-.218.086-.218.086l.068-.323a.085.085,0,0,0-.083-.1,1.125,1.125,0,0,1-.27-.029.388.388,0,0,1-.149-.065.084.084,0,0,0-.131.049c-.05.2-.087.5.116.639a.462.462,0,0,0,.136.066.507.507,0,0,0,.146.021c.016,0,.033,0,.049-.005l.048,0c.024,0,.047-.009.071-.015l.01,0c.268-.071.517-.268.677-.268a.156.156,0,0,1,.037,0h0a.133.133,0,0,1,.032.012.907.907,0,0,1,.131.091h0a.731.731,0,0,1,.113.119.416.416,0,0,1,.031.487c-.086.15-.427.1-.626.221s-.211.509-.569.62-.412-.072-.544.047-.209.419-.075.884a5.392,5.392,0,0,1,.46,1.59,2.629,2.629,0,0,1-.306,1.259,4.777,4.777,0,0,1,2.856-1.13,6.22,6.22,0,0,1,1.83.41,2.985,2.985,0,0,1,2.29-1c0-.025,0-.048,0-.073a6.817,6.817,0,1,0-1.76,4.552A10.6,10.6,0,0,0,1113.382,1297.428Z" transform="translate(-1102.667 -1286.043)" fill="#595c5c"/>
      </g>
      <path id="Path_54678" data-name="Path 54678" d="M1243.607,1475.6a7.441,7.441,0,0,0,3.931.124A2.778,2.778,0,0,1,1243.607,1475.6Z" transform="translate(-1236.562 -1466.129)" fill="#595c5c"/>
      <path id="Path_54679" data-name="Path 54679" d="M1206.227,1404.593a4.318,4.318,0,0,0,.271,2.669A1.822,1.822,0,0,1,1206.227,1404.593Z" transform="translate(-1200.595 -1398.667)" fill="#595c5c"/>
    </g>
  </g>
</svg>
