<svg xmlns="http://www.w3.org/2000/svg" xmlns:xlink="http://www.w3.org/1999/xlink" width="50" height="48.648" viewBox="0 0 50 48.648">
  <defs>
    <filter id="Path_75852" x="7.381" y="6.029" width="35.238" height="35.238" filterUnits="userSpaceOnUse">
      <feOffset input="SourceAlpha"/>
      <feGaussianBlur stdDeviation="1" result="blur"/>
      <feFlood flood-opacity="0.161" result="color"/>
      <feComposite operator="out" in="SourceGraphic" in2="blur"/>
      <feComposite operator="in" in="color"/>
      <feComposite operator="in" in2="SourceGraphic"/>
    </filter>
    <clipPath id="clip-Artboard_91">
      <rect width="50" height="48.649"/>
    </clipPath>
  </defs>
  <g id="Artboard_91" data-name="Artboard – 91" clip-path="url(#clip-Artboard_91)">
    <g id="Group_55332" data-name="Group 55332" transform="translate(-3786.808 -9105.351)">
      <g id="Group_54426" data-name="Group 54426" transform="translate(3787.808 9152.999) rotate(-90)">
        <g data-type="innerShadowGroup">
          <path id="Path_75852-2" data-name="Path 75852" d="M17.619,0A17.619,17.619,0,1,0,35.238,17.619,17.619,17.619,0,0,0,17.619,0Z" transform="translate(6.381 6.381)" fill="#fbfbfb"/>
          <g transform="matrix(0, 1, -1, 0, 47.65, -1)" filter="url(#Path_75852)">
            <path id="Path_75852-3" data-name="Path 75852" d="M17.619,0A17.619,17.619,0,1,0,35.238,17.619,17.619,17.619,0,0,0,17.619,0Z" transform="translate(7.38 41.27) rotate(-90)" fill="#fff"/>
          </g>
        </g>
        <g id="Group_54423" data-name="Group 54423" transform="translate(0 0)">
          <g id="Path_75853" data-name="Path 75853" fill="none" opacity="0.6">
            <path d="M24,0A24,24,0,1,0,48,24,24,24,0,0,0,24,0Z" stroke="none"/>
            <path d="M 24 2.5 C 21.09642028808594 2.5 18.28101921081543 3.068111419677734 15.63199996948242 4.188549041748047 C 13.07209014892578 5.27130126953125 10.77254104614258 6.821880340576172 8.797210693359375 8.797210693359375 C 6.821880340576172 10.77254104614258 5.27130126953125 13.07209014892578 4.188549041748047 15.63199996948242 C 3.068111419677734 18.28101921081543 2.5 21.09642028808594 2.5 24 C 2.5 26.90357971191406 3.068111419677734 29.71898078918457 4.188549041748047 32.36800003051758 C 5.27130126953125 34.92790985107422 6.821880340576172 37.22745895385742 8.797210693359375 39.20278930664062 C 10.77254104614258 41.17811965942383 13.07209014892578 42.72869873046875 15.63199996948242 43.81145095825195 C 18.28101921081543 44.93188858032227 21.09642028808594 45.5 24 45.5 C 26.90357971191406 45.5 29.71898078918457 44.93188858032227 32.36800003051758 43.81145095825195 C 34.92790985107422 42.72869873046875 37.22745895385742 41.17811965942383 39.20278930664062 39.20278930664062 C 41.17811965942383 37.22745895385742 42.72869873046875 34.92790985107422 43.81145095825195 32.36800003051758 C 44.93188858032227 29.71898078918457 45.5 26.90357971191406 45.5 24 C 45.5 21.09642028808594 44.93188858032227 18.28101921081543 43.81145095825195 15.63199996948242 C 42.72869873046875 13.07209014892578 41.17811965942383 10.77254104614258 39.20278930664062 8.797210693359375 C 37.22745895385742 6.821880340576172 34.92790985107422 5.27130126953125 32.36800003051758 4.188549041748047 C 29.71898078918457 3.068111419677734 26.90357971191406 2.5 24 2.5 M 24 0 C 37.25482940673828 0 48 10.74517059326172 48 24 C 48 37.25482940673828 37.25482940673828 48 24 48 C 10.74517059326172 48 0 37.25482940673828 0 24 C 0 10.74517059326172 10.74517059326172 0 24 0 Z" stroke="none" fill="#b6b8b8"/>
          </g>
        </g>
      </g>
      <g id="Group_46746" data-name="Group 46746" transform="translate(3807.464 9123.442)" opacity="0.6">
        <path id="Path_12573" data-name="Path 12573" d="M-579.539,1695.694a.356.356,0,0,0-.261-.115h-8.365a.356.356,0,0,0-.263.115.356.356,0,0,0-.09.273l1.046,10.407a.353.353,0,0,0,.351.318h6.273a.355.355,0,0,0,.352-.318l1.045-10.407A.352.352,0,0,0-579.539,1695.694Zm-1.627,10.292H-586.8l-.975-9.7h7.583Z" transform="translate(588.518 -1695.578)" fill="#595c5c"/>
        <path id="Path_12574" data-name="Path 12574" d="M-570.666,1714.3l-.661,6.575a.353.353,0,0,1-.351.318h-3.963a.355.355,0,0,1-.352-.318l-.66-6.575a.352.352,0,0,1,.212-.359,5.018,5.018,0,0,1,1.729-.375,1.819,1.819,0,0,1,1.295.442,1.145,1.145,0,0,0,.808.25,4.353,4.353,0,0,0,1.451-.317.353.353,0,0,1,.349.04A.354.354,0,0,1-570.666,1714.3Z" transform="translate(578.195 -1711.229)" fill="#595c5c"/>
      </g>
    </g>
  </g>
</svg>
