<svg xmlns="http://www.w3.org/2000/svg" width="25" height="20.917" viewBox="0 0 25 20.917">
  <path id="Union_39" data-name="Union 39" d="M15.644,20.917a.738.738,0,0,1-.671-.79V14.845a.738.738,0,0,0-.672-.79H10.7a.738.738,0,0,0-.671.79v5.282a.738.738,0,0,1-.672.79H4.518a.738.738,0,0,1-.672-.79V11.9a.85.85,0,0,1,.261-.625L12.089,4a.594.594,0,0,1,.822,0l7.982,7.274a.846.846,0,0,1,.261.625v8.228a.738.738,0,0,1-.671.79Zm7.523-8.038L12.91,3.591a.594.594,0,0,0-.82,0L1.833,12.879a.606.606,0,0,1-.941-.142L.139,11.588a.887.887,0,0,1,.123-1.107L11.3.479a1.731,1.731,0,0,1,2.392,0l11.043,10a.885.885,0,0,1,.122,1.107l-.752,1.148a.64.64,0,0,1-.532.307A.606.606,0,0,1,23.167,12.879Z" fill="#4fa6a9"/>
</svg>
