<svg xmlns="http://www.w3.org/2000/svg" width="18.85" height="18.85" viewBox="0 0 18.85 18.85">
  <g id="User_Menu" data-name="User Menu" transform="translate(50)" opacity="0.802">
    <path id="Path_10084" data-name="Path 10084" d="M9.425,0A9.425,9.425,0,1,0,18.85,9.426,9.425,9.425,0,0,0,9.425,0Zm0,2.818A3.118,3.118,0,1,1,6.308,5.937,3.118,3.118,0,0,1,9.425,2.819Zm0,13.568a6.917,6.917,0,0,1-4.5-1.661,1.329,1.329,0,0,1-.466-1.01,3.144,3.144,0,0,1,3.159-3.143h3.627a3.139,3.139,0,0,1,3.154,3.143,1.325,1.325,0,0,1-.466,1.009A6.915,6.915,0,0,1,9.423,16.387Z" transform="translate(-50 -0.001)" fill="#737777"/>
  </g>
</svg>
