<svg xmlns="http://www.w3.org/2000/svg" width="28" height="28" viewBox="0 0 28 28"><defs><style>.a{fill:#f30;stroke:rgba(0,0,0,0.1);}.b{fill:#ff0;}.c{stroke:none;}.d{fill:none;}</style></defs><g transform="translate(-1492 -328)"><g class="a" transform="translate(1492 328)"><rect class="c" width="28" height="28" rx="2"/><rect class="d" x="0.5" y="0.5" width="27" height="27" rx="1.5"/></g><path class="b" d="M22.717,19.742h4.328l-3.578,2.875,1.281,3.922L21.295,24.32l-3.812,2.219,1.609-3.922-3.375-2.875h4.109l1.469-3.906Z" transform="translate(1479.939 314.914)"/><path class="b" d="M17.806,17H19.1l-1.068.858.382,1.17-1.031-.662-1.138.662.48-1.17L15.717,17h1.226l.438-1.166Z" transform="translate(1507.189 307.244) rotate(33)"/><path class="b" d="M17.806,17H19.1l-1.068.858.382,1.17-1.031-.662-1.138.662.48-1.17L15.717,17h1.226l.438-1.166Z" transform="matrix(0.454, 0.891, -0.891, 0.454, 1523.924, 314.922)"/><path class="b" d="M17.806,17H19.1l-1.068.858.382,1.17-1.031-.662-1.138.662.48-1.17L15.717,17h1.226l.438-1.166Z" transform="matrix(0.017, 1, -1, 0.017, 1531.42, 327.637)"/><path class="b" d="M17.806,17H19.1l-1.068.858.382,1.17-1.031-.662-1.138.662.48-1.17L15.717,17h1.226l.438-1.166Z" transform="matrix(-0.819, 0.574, -0.574, -0.819, 1533.553, 354.641)"/></g></svg>