<svg xmlns="http://www.w3.org/2000/svg" width="28" height="28" viewBox="0 0 28 28"><defs><style>.a,.d{fill:#fff;}.a{stroke:rgba(0,0,0,0.1);}.b{fill:#bd3d44;}.c{fill:#192f5d;}.e{stroke:none;}.f{fill:none;}</style></defs><g transform="translate(-1492 -412)"><g class="a" transform="translate(1492 412)"><rect class="e" width="28" height="28" rx="2"/><rect class="f" x="0.5" y="0.5" width="27" height="27" rx="1.5"/></g><rect class="b" width="28" height="2" transform="translate(1492 433)"/><rect class="b" width="28" height="2" transform="translate(1492 429)"/><rect class="b" width="28" height="2" transform="translate(1492 425)"/><rect class="b" width="28" height="3" transform="translate(1492 420)"/><rect class="b" width="28" height="3" transform="translate(1492 416)"/><path class="b" d="M27.8,46v1.112a1.112,1.112,0,0,1-1.112,1.112H1.112A1.112,1.112,0,0,1,0,47.112V46Z" transform="translate(1492 391.578)"/><path class="b" d="M27.8,0V1.112a1.112,1.112,0,0,1-1.112,1.112H1.112A1.112,1.112,0,0,1,0,1.112V0Z" transform="translate(1519.803 414.225) rotate(180)"/><path class="c" d="M21.13,0V13.9a1.112,1.112,0,0,1-1.112,1.112H.006C-.012,15.031.018-.027.006,0Z" transform="translate(1513.136 427.014) rotate(180)"/><rect class="d" width="1" height="1" transform="translate(1493 413)"/><rect class="d" width="1" height="1" transform="translate(1493 417)"/><rect class="d" width="1" height="1" transform="translate(1493 421)"/><rect class="d" width="1" height="1" transform="translate(1493 425)"/><rect class="d" width="1" height="1" transform="translate(1496 413)"/><rect class="d" width="1" height="1" transform="translate(1496 417)"/><rect class="d" width="1" height="1" transform="translate(1496 421)"/><rect class="d" width="1" height="1" transform="translate(1496 425)"/><rect class="d" width="1" height="1" transform="translate(1494 415)"/><rect class="d" width="1" height="1" transform="translate(1494 419)"/><rect class="d" width="1" height="1" transform="translate(1494 423)"/><rect class="d" width="1" height="1" transform="translate(1499 413)"/><rect class="d" width="1" height="1" transform="translate(1499 417)"/><rect class="d" width="1" height="1" transform="translate(1499 421)"/><rect class="d" width="1" height="1" transform="translate(1499 425)"/><rect class="d" width="1" height="1" transform="translate(1497 415)"/><rect class="d" width="1" height="1" transform="translate(1497 419)"/><rect class="d" width="1" height="1" transform="translate(1497 423)"/><rect class="d" width="1" height="1" transform="translate(1502 413)"/><rect class="d" width="1" height="1" transform="translate(1502 417)"/><rect class="d" width="1" height="1" transform="translate(1502 421)"/><rect class="d" width="1" height="1" transform="translate(1502 425)"/><rect class="d" width="1" height="1" transform="translate(1500 415)"/><rect class="d" width="1" height="1" transform="translate(1500 419)"/><rect class="d" width="1" height="1" transform="translate(1500 423)"/><rect class="d" width="1" height="1" transform="translate(1508 413)"/><rect class="d" width="1" height="1" transform="translate(1508 417)"/><rect class="d" width="1" height="1" transform="translate(1508 421)"/><rect class="d" width="1" height="1" transform="translate(1508 425)"/><rect class="d" width="1" height="1" transform="translate(1506 415)"/><rect class="d" width="1" height="1" transform="translate(1506 419)"/><rect class="d" width="1" height="1" transform="translate(1506 423)"/><rect class="d" width="1" height="1" transform="translate(1505 413)"/><rect class="d" width="1" height="1" transform="translate(1505 417)"/><rect class="d" width="1" height="1" transform="translate(1505 421)"/><rect class="d" width="1" height="1" transform="translate(1505 425)"/><rect class="d" width="1" height="1" transform="translate(1503 415)"/><rect class="d" width="1" height="1" transform="translate(1503 419)"/><rect class="d" width="1" height="1" transform="translate(1503 423)"/><rect class="d" width="1" height="1" transform="translate(1511 413)"/><rect class="d" width="1" height="1" transform="translate(1511 417)"/><rect class="d" width="1" height="1" transform="translate(1511 421)"/><rect class="d" width="1" height="1" transform="translate(1511 425)"/><rect class="d" width="1" height="1" transform="translate(1509 415)"/><rect class="d" width="1" height="1" transform="translate(1509 419)"/><rect class="d" width="1" height="1" transform="translate(1509 423)"/></g></svg>