<svg width="14" height="14" viewBox="0 0 14 14" fill="none" xmlns="http://www.w3.org/2000/svg">
<path fill-rule="evenodd" clip-rule="evenodd" d="M7.98823 0.762484L4.2549 4.49582C4.1455 4.60519 4.08402 4.75354 4.08398 4.90823V11.6667C4.08398 11.9889 4.34515 12.2501 4.66732 12.2501H10.9848C11.2212 12.2502 11.4343 12.1076 11.5244 11.889L13.3298 7.50523C13.3877 7.36421 13.4175 7.21319 13.4173 7.06073V5.8334C13.4173 5.18907 12.895 4.66673 12.2507 4.66673H8.51732L9.1899 2.02423C9.27716 1.68183 9.1499 1.32054 8.86732 1.1084L8.36973 0.735068C8.25349 0.647911 8.09082 0.659601 7.98823 0.762484ZM2.91732 5.25H1.16732C0.845152 5.25 0.583984 5.51117 0.583984 5.83333V11.6667C0.583984 11.9888 0.845152 12.25 1.16732 12.25H2.91732V5.25Z" fill="#009672"/>
</svg>
