<svg width="14" height="14" viewBox="0 0 14 14" fill="none" xmlns="http://www.w3.org/2000/svg">
<path fill-rule="evenodd" clip-rule="evenodd" d="M6.01307 13.2376L9.7464 9.50425C9.85581 9.39488 9.91729 9.24653 9.91732 9.09183V2.33333C9.91732 2.01117 9.65615 1.75 9.33399 1.75H3.01649C2.78014 1.75023 2.5673 1.89305 2.47749 2.11167L0.671486 6.49483C0.613555 6.63586 0.583828 6.78687 0.583985 6.93933V8.16667C0.583985 8.811 1.10632 9.33333 1.75065 9.33333H5.48399L4.8114 11.9758C4.72415 12.3182 4.8514 12.6795 5.13399 12.8917L5.63157 13.265C5.74781 13.3522 5.91048 13.3405 6.01307 13.2376ZM11.084 8.75H12.834C13.1562 8.75 13.4173 8.48883 13.4173 8.16667V2.33333C13.4173 2.01117 13.1562 1.75 12.834 1.75H11.084V8.75Z" fill="#DC362E"/>
</svg>
