<?xml version="1.0" encoding="utf-8"?>
<!-- Generator: Adobe Illustrator 26.1.0, SVG Export Plug-In . SVG Version: 6.00 Build 0)  -->
<svg version="1.1" id="Layer_1" xmlns="http://www.w3.org/2000/svg" xmlns:xlink="http://www.w3.org/1999/xlink" x="0px" y="0px"
	 viewBox="0 0 714.9 714.9" style="enable-background:new 0 0 714.9 714.9;" xml:space="preserve">
<style type="text/css">
	.st0{fill:#2F313B;}
	.st1{fill-rule:evenodd;clip-rule:evenodd;fill:#FF8643;}
	.st2{fill-rule:evenodd;clip-rule:evenodd;fill:#FFFFFF;}
	.st3{fill-rule:evenodd;clip-rule:evenodd;fill:#99E8D3;}
	.st4{fill:#FFFFFF;}
	.st5{fill-rule:evenodd;clip-rule:evenodd;}
	.st6{fill:#FF8643;}
	.st7{fill-rule:evenodd;clip-rule:evenodd;fill:#2F313B;}
</style>
<rect x="-20.7" y="-14.3" class="st0" width="756.2" height="743.4"/>
<g>
	<path class="st1" d="M410,436c-86.7,0-156.9-67.8-156.9-151.2c0-6.6,0.5-13.2,1.3-19.7c-31.3,11.2-58.4,31.8-77.6,59
		c-19.2,27.2-29.4,59.6-29.4,92.8v161.2h161.5c41.5,0,81.4-16,111.4-44.6c30-28.6,47.9-67.6,49.9-109
		C451.1,432.2,430.7,436.1,410,436z"/>
	<path class="st2" d="M409.8,439.5c-87.3,0-158.1-68.4-158.1-152.6c0-6.7-0.1-14.4,0.7-21c23.8-8.5,49.9-10.2,75-7.2
		c25.1,3.1,49.2,11.9,70.3,25.9c21.1,14,38.7,32.7,51.3,54.6c12.6,21.9,21,46,22.5,71.2c0,3.1,0.1,6.2,0.1,9.6c0,3.3,0,5.1,0,7.7
		C452.3,435.2,430.6,439.6,409.8,439.5z"/>
	<path class="st3" d="M252.4,288.3c0-6.6-0.9-16,0-22.5c24.1-8.6,51.2-8.6,76.5-5.3c25.4,3.2,49.6,12.4,70.7,26.8
		c21.1,14.3,38.5,33.5,50.8,55.8c12.3,22.3,18.9,47.3,19.7,72.8c0,1.7,0,3.3,0,4.7c0,2.6-0.2,5.2-0.2,7.7
		c29.9-10.1,50-27.1,68.5-52.6c18.5-25.5,28.6-56.1,28.9-87.5c0-83.7-70.5-151.4-157.5-151.4c-80,0-147.6,54.7-157.6,129.1
		C251.5,272.3,252.4,281.7,252.4,288.3z"/>
</g>
</svg>
