<svg id="Group_56820" data-name="Group 56820" xmlns="http://www.w3.org/2000/svg" width="14.181" height="14.159" viewBox="0 0 14.181 14.159">
  <path id="Path_87589" data-name="Path 87589" d="M-653.451,273.152c0-.036-.006-.074-.014-.109a1.933,1.933,0,0,0-1.927-1.545H-665.64a2.456,2.456,0,0,0-.358.028,1.939,1.939,0,0,0-1.585,1.627l-.024,0v.525c.03.138.034.28.077.417a5.891,5.891,0,0,0,1.851,2.78,6.935,6.935,0,0,0,2.731,1.411,6.55,6.55,0,0,0,1.073.174h2.6l.051-.014a4.755,4.755,0,0,0,1.621-.32,6.7,6.7,0,0,0,2.914-1.94,5.2,5.2,0,0,0,1.258-2.48v-.553A.028.028,0,0,1-653.451,273.152Zm-6.4,4.2c-.646-.013-1.293.035-1.937-.025a5.573,5.573,0,0,1-3.163-1.347,4.7,4.7,0,0,1-1.5-2.274.827.827,0,0,1,.823-1.108q2.562,0,5.124,0t5.11,0a.826.826,0,0,1,.813,1.095,4.187,4.187,0,0,1-.246.643,5.274,5.274,0,0,1-2.605,2.487A5.36,5.36,0,0,1-659.852,277.356Z" transform="translate(667.607 -264.303)" fill=""/>
  <path id="Path_87590" data-name="Path 87590" d="M-582.367,81.568a3.789,3.789,0,0,0,2.928,1.523,4.658,4.658,0,0,0,2.147-.441,4.482,4.482,0,0,0,2.322-2.032,5.084,5.084,0,0,0,.555-2.819,1.085,1.085,0,0,0-1.688-.822c-.679.468-1.376.906-2.056,1.372a3.312,3.312,0,0,0-1.384,1.9,7.484,7.484,0,0,0-.23,1.372c-.026.324-.021.327-.33.233a2.377,2.377,0,0,1-1.8-2.42c.228.143.438.282.656.41a.549.549,0,0,0,.752-.177.542.542,0,0,0-.163-.753c-.3-.2-.592-.39-.889-.583a.949.949,0,0,0-1.449.627,2.431,2.431,0,0,0-.017.537A3.6,3.6,0,0,0-582.367,81.568Zm3.706,0a5.508,5.508,0,0,1,.244-1.213,2.34,2.34,0,0,1,.958-1.143c.632-.428,1.289-.819,1.9-1.273.006,0,.017,0,.041-.006a3.962,3.962,0,0,1-.633,2.486,3.728,3.728,0,0,1-2.116,1.409l-.067.018C-578.707,81.946-578.706,81.946-578.66,81.564Z" transform="translate(586.146 -76.789)" fill=""/>
  <path id="Path_87591" data-name="Path 87591" d="M-589.546,332.1a.553.553,0,0,0-.565-.729h-7.93a.554.554,0,0,0-.5.387.552.552,0,0,0,.555.717q1.965,0,3.931,0h3.958A.558.558,0,0,0-589.546,332.1Z" transform="translate(601.121 -321.962)" fill=""/>
</svg>
