<svg xmlns="http://www.w3.org/2000/svg" width="11.708" height="10.957" viewBox="0 0 11.708 10.957">
  <g id="Group_56395" data-name="Group 56395" transform="translate(-1038.063 -118.803)">
    <path id="Path_86284" data-name="Path 86284" d="M1049.749,121.678a2.3,2.3,0,0,0-1.827-1.92,4.373,4.373,0,0,0-.809-.04c-.071,0-.091-.017-.088-.088.006-.121,0-.243,0-.365a.457.457,0,1,0-.913,0q0,.907,0,1.814a.457.457,0,1,0,.913,0c0-.129,0-.259,0-.388,0-.054.013-.072.069-.071.141,0,.282,0,.423,0a1.367,1.367,0,0,1,1.336,1.337q.008,2.773,0,5.546a1.359,1.359,0,0,1-1.148,1.312,6.12,6.12,0,0,1-.913.019q-3.218,0-6.437,0a1.364,1.364,0,0,1-1.376-1.331c-.006-1.852-.009-3.7,0-5.557a1.3,1.3,0,0,1,.74-1.174,2.054,2.054,0,0,1,1.037-.154c.057,0,.046.036.046.069,0,.133,0,.266,0,.4a.456.456,0,0,0,.912,0q.006-.924,0-1.849a.45.45,0,0,0-.458-.443.455.455,0,0,0-.454.449c0,.118-.006.236,0,.354.005.086-.016.116-.109.113a2.736,2.736,0,0,0-1.125.135,2.249,2.249,0,0,0-1.491,1.869l-.02,0v6.025a.916.916,0,0,1,.063.259,2.279,2.279,0,0,0,2.195,1.747q3.6.008,7.192,0a2.277,2.277,0,0,0,2.234-1.948c0-.021-.005-.047.024-.058v-6C1049.738,121.733,1049.752,121.7,1049.749,121.678Z" transform="translate(0 0)" fill=""/>
    <path id="Path_86285" data-name="Path 86285" d="M1105.6,239.4a.448.448,0,0,0,.371-.169.43.43,0,0,0,.059-.481.443.443,0,0,0-.431-.264h-6.881c-.088,0-.176,0-.263,0a.456.456,0,0,0-.111.889.682.682,0,0,0,.215.022h7.042Z" transform="translate(-58.13 -116.032)" fill=""/>
    <path id="Path_86286" data-name="Path 86286" d="M1159.193,298.528q-1.159,1.159-2.318,2.317c-.055.056-.085.059-.141,0-.315-.32-.635-.635-.952-.953a.5.5,0,0,0-.367-.159.459.459,0,0,0-.283.8q.645.647,1.293,1.291a.473.473,0,0,0,.761,0l1.9-1.9c.261-.261.526-.518.782-.784a.452.452,0,0,0-.222-.769A.463.463,0,0,0,1159.193,298.528Z" transform="translate(-113.344 -174.083)" fill=""/>
    <path id="Path_86287" data-name="Path 86287" d="M1185.512,149.626c.293,0,.586,0,.88,0s.594,0,.891,0a.457.457,0,1,0,0-.912h-1.771a.457.457,0,1,0,0,.912Z" transform="translate(-142.479 -28.997)" fill=""/>
  </g>
</svg>
