<svg xmlns="http://www.w3.org/2000/svg" width="92.644" height="87.963" viewBox="0 0 92.644 87.963">
  <g id="Chef-pana" transform="translate(-29.5 -51.79)">
    <g id="freepik--background-simple--inject-10" transform="translate(33.919 57.379)">
      <path id="Path_89295" data-name="Path 89295" d="M129.036,89.576l-.51-.84a21.493,21.493,0,0,0-19.308-10.317,21.217,21.217,0,0,0-3.273.42A22.443,22.443,0,0,0,89.893,92.614c-1.525,4.046-1.952,8.706-4.849,11.918-3.769,4.18-10.168,4.313-15.794,4.138s-12.029-.025-15.781,4.172c-2.349,2.651-3.094,6.378-2.905,9.9.5,9.319,7.077,17.646,15.441,21.793s18.212,4.515,27.365,2.691c12.815-2.552,25.016-9.561,32.352-20.388S134.9,101.261,129.036,89.576Z" transform="translate(-50.537 -78.392)" fill="#ebebeb"/>
    </g>
    <g id="freepik--Table--inject-10" transform="translate(29.5 125.678)">
      <path id="Path_89296" data-name="Path 89296" d="M122.144,403.565c0,.029-20.741.055-46.32.055s-46.324-.025-46.324-.055,20.737-.055,46.324-.055S122.144,403.535,122.144,403.565Z" transform="translate(-29.5 -403.51)" fill="#263238"/>
    </g>
    <g id="freepik--Character--inject-10" transform="translate(51.059 54.985)">
      <path id="Path_89297" data-name="Path 89297" d="M225.543,232.826c-.084.359-1.872,16.636-1.872,16.636l-1.618,2.3-.439,3.521,3.361,8.313H200.107s-.393-4.393-.359-5.567.63-5.483.63-5.483l-.057-4.376L199.38,229.1l8.424-2.718c5.09-.876,12.581,2.941,12.581,2.941Z" transform="translate(-185.251 -192.794)" fill="#75a0ff"/>
      <path id="Path_89298" data-name="Path 89298" d="M306,157.494a3.658,3.658,0,0,0,2.565-1.92,5.469,5.469,0,0,0,1.063-2.872,6.725,6.725,0,0,0-.706-2.584,10.809,10.809,0,0,0-1.3-2.443,3.584,3.584,0,0,0-2.3-1.435" transform="translate(-268.936 -129.594)" fill="#263238"/>
      <path id="Path_89299" data-name="Path 89299" d="M246.94,152.111l.013-.275.649-15.892.359-.9,7.949-1.094a4.575,4.575,0,0,1,4.928,4.412,46.26,46.26,0,0,1-.29,8.573c-.807,4.3-4.143,4.762-4.143,4.762s-.057,1.128-.12,2.76c-.046,1.231-1.134,4.783-2.368,4.819-.529.015-1.975-.445-2.664-.546C246.908,158.094,246.94,152.111,246.94,152.111Z" transform="translate(-222.82 -119.873)" fill="#ffbe9d"/>
      <path id="Path_89300" data-name="Path 89300" d="M301.939,164.994a.555.555,0,0,1-.55.546.531.531,0,0,1-.559-.517.555.555,0,0,1,.55-.546.531.531,0,0,1,.559.517Z" transform="translate(-265.389 -143.999)" fill="#263238"/>
      <path id="Path_89301" data-name="Path 89301" d="M300.953,161.279c-.071.071-.483-.252-1.082-.267s-1.05.271-1.107.2c-.032-.031.042-.162.237-.294a1.515,1.515,0,0,1,.889-.248,1.47,1.47,0,0,1,.859.3C300.927,161.116,300.986,161.248,300.953,161.279Z" transform="translate(-263.751 -140.988)" fill="#263238"/>
      <path id="Path_89302" data-name="Path 89302" d="M274.089,164.724a.555.555,0,0,1-.55.546.531.531,0,0,1-.559-.517.555.555,0,0,1,.55-.546.531.531,0,0,1,.559.517Z" transform="translate(-243.39 -143.786)" fill="#263238"/>
      <path id="Path_89303" data-name="Path 89303" d="M272.963,161.039c-.071.071-.485-.252-1.082-.267s-1.05.271-1.107.2c-.032-.032.042-.162.237-.294a1.51,1.51,0,0,1,.889-.248,1.47,1.47,0,0,1,.859.3C272.937,160.875,273,161.008,272.963,161.039Z" transform="translate(-241.641 -140.798)" fill="#263238"/>
      <path id="Path_89304" data-name="Path 89304" d="M290.466,165.978a3.969,3.969,0,0,1,.977-.147c.153-.013.3-.04.328-.143a.79.79,0,0,0-.09-.456l-.42-1.174a20.105,20.105,0,0,1-.929-3.069,19.945,19.945,0,0,1,1.174,2.987c.139.42.273.8.4,1.181a.88.88,0,0,1,.063.6.384.384,0,0,1-.256.21,1.009,1.009,0,0,1-.26.027A3.712,3.712,0,0,1,290.466,165.978Z" transform="translate(-257.09 -141.244)" fill="#263238"/>
      <path id="Path_89305" data-name="Path 89305" d="M270.34,212.058a11.033,11.033,0,0,1-5.76-1.708s1.326,3.015,5.672,2.731Z" transform="translate(-236.754 -180.236)" fill="#eb996e"/>
      <path id="Path_89306" data-name="Path 89306" d="M282.836,189.973a1.076,1.076,0,0,0-.954-.42.992.992,0,0,0-.691.345.63.63,0,0,0-.065.712.72.72,0,0,0,.777.21,2.245,2.245,0,0,0,.777-.435.647.647,0,0,0,.174-.172.2.2,0,0,0,0-.223" transform="translate(-249.76 -163.804)" fill="#eb996e"/>
      <path id="Path_89307" data-name="Path 89307" d="M282.159,186.48c.1,0,.082.645.63,1.122s1.235.42,1.239.515c0,.04-.158.122-.452.122a1.609,1.609,0,0,1-1.034-.393,1.4,1.4,0,0,1-.481-.939C282.048,186.633,282.115,186.475,282.159,186.48Z" transform="translate(-250.562 -161.38)" fill="#263238"/>
      <path id="Path_89308" data-name="Path 89308" d="M271.975,150.412c-.063.16-.658.067-1.361.132s-1.277.24-1.366.092c-.04-.071.063-.21.3-.372a2.38,2.38,0,0,1,2.078-.172C271.876,150.2,272,150.334,271.975,150.412Z" transform="translate(-240.435 -132.509)" fill="#263238"/>
      <path id="Path_89309" data-name="Path 89309" d="M300.742,152.885c-.109.134-.517-.019-1.013-.038s-.918.065-1.01-.08c-.04-.069.029-.21.21-.328a1.471,1.471,0,0,1,1.63.095C300.736,152.679,300.79,152.818,300.742,152.885Z" transform="translate(-263.713 -134.331)" fill="#263238"/>
      <path id="Path_89310" data-name="Path 89310" d="M234.768,150.276a7.983,7.983,0,0,0-2.183,1.975,4.051,4.051,0,0,0-.964,3.073c.237,1.515,1.55,2.59,2.771,3.519.7.1,1.225-.674,1.334-1.376a6.487,6.487,0,0,1,.345-2.088c.3-.563.887-.908,1.279-1.41a4.429,4.429,0,0,0,.5-3.418,5.605,5.605,0,0,1,1.506-4.622C239.36,145.945,235.7,147.375,234.768,150.276Z" transform="translate(-210.69 -129.349)" fill="#263238"/>
      <path id="Path_89311" data-name="Path 89311" d="M215.1,169.345a2.605,2.605,0,0,0-.258-3.086,3.6,3.6,0,0,0-3.015-1.113,3.136,3.136,0,0,0-2.145,1.006,1.983,1.983,0,0,0-.246,2.26c.239.378.655.735.561,1.174s-.592.58-.945.828a1.809,1.809,0,0,0-.63,2.017,2.252,2.252,0,0,0,1.632,1.422,3,3,0,0,0,2.172-.391,1.272,1.272,0,0,0,1.395,1.132,2.229,2.229,0,0,0,1.6-1.116,4.884,4.884,0,0,0,.66-2.731,14.562,14.562,0,0,0-.435-2.815" transform="translate(-192.321 -144.516)" fill="#263238"/>
      <path id="Path_89312" data-name="Path 89312" d="M233.474,175.3a.436.436,0,0,1-.1-.063l-.273-.2c-.233-.174-.571-.42-.964-.773a7,7,0,0,1-1.229-1.366,4.143,4.143,0,0,1-.721-2.124,2.925,2.925,0,0,1,.183-1.16,2.877,2.877,0,0,1,.588-.924,8.4,8.4,0,0,1,1.445-1.132,8.854,8.854,0,0,0,.977-.744c.107-.1.187-.179.239-.235a.533.533,0,0,1,.084-.08.835.835,0,0,1-.069.095,2.349,2.349,0,0,1-.225.25,7.493,7.493,0,0,1-.962.779,8.823,8.823,0,0,0-1.416,1.139,2.757,2.757,0,0,0-.561.893,2.857,2.857,0,0,0-.174,1.118,4.094,4.094,0,0,0,.689,2.071,7.223,7.223,0,0,0,1.2,1.363c.384.349.714.611.939.8l.258.21A.582.582,0,0,1,233.474,175.3Z" transform="translate(-209.585 -145.597)" fill="#455a64"/>
      <path id="Path_89313" data-name="Path 89313" d="M216.561,176.692c-.019.01-.128-.223-.405-.517a2.653,2.653,0,0,0-2.874-.7c-.38.134-.586.288-.6.271s.042-.048.137-.116a2.366,2.366,0,0,1,.433-.229,2.6,2.6,0,0,1,2.96.725,2.219,2.219,0,0,1,.277.4A.52.52,0,0,1,216.561,176.692Z" transform="translate(-195.76 -152.474)" fill="#455a64"/>
      <path id="Path_89314" data-name="Path 89314" d="M215.085,185.42a.718.718,0,0,1,.349-.387,1.513,1.513,0,0,1,.538-.193,3.643,3.643,0,0,1,.691-.04,4.832,4.832,0,0,1,1.235.2,1.63,1.63,0,0,1,.479.193,4.668,4.668,0,0,1-.5-.12,6.168,6.168,0,0,0-1.218-.16,2.382,2.382,0,0,0-1.187.191A1.622,1.622,0,0,0,215.085,185.42Z" transform="translate(-197.656 -160.051)" fill="#455a64"/>
      <path id="Path_89315" data-name="Path 89315" d="M211.65,193.317c0-.019.3-.013.773-.105a4.517,4.517,0,0,0,1.708-.718,4.572,4.572,0,0,0,1.26-1.357c.248-.41.347-.7.366-.687a.784.784,0,0,1-.057.21,3.782,3.782,0,0,1-.242.523,4.212,4.212,0,0,1-3.023,2.113,3.671,3.671,0,0,1-.574.044A.613.613,0,0,1,211.65,193.317Z" transform="translate(-194.944 -164.515)" fill="#455a64"/>
      <path id="Path_89316" data-name="Path 89316" d="M232.14,154.226a3.6,3.6,0,0,0,.393.258,2.4,2.4,0,0,0,1.231.269,2.85,2.85,0,0,0,.857-.164,3.172,3.172,0,0,0,.874-.5,5.13,5.13,0,0,0,1.382-1.838,18.9,18.9,0,0,0,.8-2.2,12.622,12.622,0,0,1,.7-1.79,5.437,5.437,0,0,1,.7-1.09,2.454,2.454,0,0,1,.239-.258.646.646,0,0,1,.092-.08s-.113.126-.3.366a5.99,5.99,0,0,0-.664,1.1,13.2,13.2,0,0,0-.67,1.788,17.759,17.759,0,0,1-.8,2.21,5.118,5.118,0,0,1-1.42,1.872,3.2,3.2,0,0,1-.9.5,2.844,2.844,0,0,1-.887.158,2.351,2.351,0,0,1-1.26-.311,1.049,1.049,0,0,1-.17-.113.84.84,0,0,1-.116-.095.632.632,0,0,1-.08-.086Z" transform="translate(-211.129 -130.068)" fill="#455a64"/>
      <path id="Path_89317" data-name="Path 89317" d="M237.295,163.42c.01,0-.076.126-.172.372a3.708,3.708,0,0,0-.21,1.09,9.1,9.1,0,0,1-.187,1.664,3.481,3.481,0,0,1-1.1,1.721,3.334,3.334,0,0,1-1.876.809,3.533,3.533,0,0,1-1.653-.254,3.334,3.334,0,0,1-.958-.6,2.253,2.253,0,0,1-.21-.21.474.474,0,0,1-.067-.084c.01,0,.105.105.311.269a3.485,3.485,0,0,0,.96.559,3.523,3.523,0,0,0,1.615.225,3.258,3.258,0,0,0,1.813-.792,3.414,3.414,0,0,0,1.076-1.664,9.611,9.611,0,0,0,.21-1.643,3.538,3.538,0,0,1,.248-1.1,2.025,2.025,0,0,1,.147-.271A.466.466,0,0,1,237.295,163.42Z" transform="translate(-210.118 -143.164)" fill="#455a64"/>
      <path id="Path_89318" data-name="Path 89318" d="M314.928,166.936a2.548,2.548,0,0,0,.183-.193,1.942,1.942,0,0,0,.368-.618,2.52,2.52,0,0,0,.149-1.05,3.424,3.424,0,0,0-.359-1.26,11.806,11.806,0,0,0-1.363-1.977,5.5,5.5,0,0,1-.408-.613,1.089,1.089,0,0,1-.118-.244,1.385,1.385,0,0,1,.153.223c.095.143.239.347.433.586a10.213,10.213,0,0,1,1.4,1.977,3.4,3.4,0,0,1,.361,1.294,2.506,2.506,0,0,1-.176,1.084,1.859,1.859,0,0,1-.42.618,1.352,1.352,0,0,1-.153.128C314.951,166.927,314.93,166.94,314.928,166.936Z" transform="translate(-275.303 -141.237)" fill="#455a64"/>
      <path id="Path_89319" data-name="Path 89319" d="M314.314,173.688a3.163,3.163,0,0,0,.519-.752,2.381,2.381,0,0,0,.21-.958,2.977,2.977,0,0,0-.244-1.179,10.29,10.29,0,0,0-.567-1.088c-.183-.332-.34-.63-.468-.893s-.225-.466-.288-.613a.971.971,0,0,1-.086-.235,1.342,1.342,0,0,1,.124.21l.319.6c.137.252.3.55.487.88a9.116,9.116,0,0,1,.58,1.095,2.987,2.987,0,0,1,.244,1.223,2.424,2.424,0,0,1-.237.989,2.16,2.16,0,0,1-.4.559,1.733,1.733,0,0,1-.139.124C314.335,173.678,314.316,173.69,314.314,173.688Z" transform="translate(-275.31 -146.759)" fill="#455a64"/>
      <path id="Path_89320" data-name="Path 89320" d="M245.76,88.484c1.439-2.456,3.452-4.739,6.22-5.4a10.193,10.193,0,0,1,7.983,1.338V79.579l-3.456-11.155L253.816,67l-6.361,3.639L245.81,84.056Z" transform="translate(-221.888 -67)" fill="#75a0ff"/>
      <g id="Group_57687" data-name="Group 57687" transform="translate(23.872)" opacity="0.7">
        <path id="Path_89321" data-name="Path 89321" d="M245.76,88.484c1.439-2.456,3.452-4.739,6.22-5.4a10.193,10.193,0,0,1,7.983,1.338V79.579l-3.456-11.155L253.816,67l-6.361,3.639L245.81,84.056Z" transform="translate(-245.76 -67)" fill="#fff"/>
      </g>
      <path id="Path_89322" data-name="Path 89322" d="M260.044,122.558a.841.841,0,0,1-.153-.071c-.1-.048-.237-.132-.42-.21a9.245,9.245,0,0,0-1.651-.618,10.777,10.777,0,0,0-2.584-.372,12.955,12.955,0,0,0-1.544.057,7.806,7.806,0,0,0-1.624.3,10.953,10.953,0,0,0-2.853,1.429,9.918,9.918,0,0,0-1.939,1.742,7.794,7.794,0,0,0-.977,1.471c-.08.183-.145.328-.2.437a.791.791,0,0,1-.074.151.873.873,0,0,1,.055-.158c.04-.1.095-.256.176-.45a7.367,7.367,0,0,1,.954-1.5,9.851,9.851,0,0,1,1.943-1.775,10.837,10.837,0,0,1,2.878-1.45,7.959,7.959,0,0,1,1.647-.3,12.658,12.658,0,0,1,1.555-.05,10.622,10.622,0,0,1,2.6.4,8.614,8.614,0,0,1,1.649.655c.189.09.326.181.42.235a1,1,0,0,1,.134.08Z" transform="translate(-222.101 -109.802)" fill="#263238"/>
      <path id="Path_89323" data-name="Path 89323" d="M285.56,78.673c-.029,0-.481-2.544-1.006-5.693s-.928-5.706-.9-5.71.481,2.544,1.006,5.693S285.589,78.669,285.56,78.673Z" transform="translate(-251.82 -67.213)" fill="#263238"/>
      <path id="Path_89324" data-name="Path 89324" d="M272.627,83.13c-.029,0,.017-2.418.107-5.4s.185-5.4.21-5.4-.019,2.42-.107,5.4S272.658,83.132,272.627,83.13Z" transform="translate(-243.104 -71.21)" fill="#263238"/>
      <path id="Path_89325" data-name="Path 89325" d="M255.566,91.049a.444.444,0,0,1,0-.116,3.293,3.293,0,0,1,.013-.33c.015-.286.042-.7.082-1.212.08-1.021.21-2.433.42-3.991s.42-2.941.586-3.962c.088-.506.164-.914.223-1.2.027-.13.05-.235.067-.321a.4.4,0,0,1,.031-.111.478.478,0,0,1,0,.116c-.015.086-.029.193-.048.326-.046.3-.111.7-.187,1.2-.158,1.013-.359,2.414-.555,3.964s-.347,2.958-.445,3.977c-.048.5-.088.908-.116,1.208-.015.134-.025.242-.036.33A.43.43,0,0,1,255.566,91.049Z" transform="translate(-229.631 -77.119)" fill="#263238"/>
      <path id="Path_89326" data-name="Path 89326" d="M294.673,125.44a2.307,2.307,0,0,1,0,.487c-.025.34-.055.733-.086,1.168s-.063.828-.088,1.168a2.269,2.269,0,0,1-.061.483,2,2,0,0,1-.017-.487c0-.3.023-.714.057-1.172s.078-.87.118-1.168a2.1,2.1,0,0,1,.078-.479Z" transform="translate(-260.32 -113.163)" fill="#263238"/>
      <path id="Path_89327" data-name="Path 89327" d="M170.313,349.808a2.366,2.366,0,0,0-1.443-.781,6,6,0,0,0-4.357,1.527l-.25.456A3.984,3.984,0,0,0,162.652,353a12.382,12.382,0,0,0-.292,2.672,1.96,1.96,0,0,0,.544,1.275,1.752,1.752,0,0,0,1.181.573,4.3,4.3,0,0,0,2.46-.55,6.792,6.792,0,0,0,1.928-1.66,9.453,9.453,0,0,0,1.966-4.2A1.728,1.728,0,0,0,170.313,349.808Z" transform="translate(-156.008 -289.758)" fill="#75a0ff"/>
      <g id="Group_57688" data-name="Group 57688" transform="translate(6.352 59.241)" opacity="0.4">
        <path id="Path_89328" data-name="Path 89328" d="M170.313,349.808a2.366,2.366,0,0,0-1.443-.781,6,6,0,0,0-4.357,1.527l-.25.456A3.984,3.984,0,0,0,162.652,353a12.382,12.382,0,0,0-.292,2.672,1.96,1.96,0,0,0,.544,1.275,1.752,1.752,0,0,0,1.181.573,4.3,4.3,0,0,0,2.46-.55,6.792,6.792,0,0,0,1.928-1.66,9.453,9.453,0,0,0,1.966-4.2A1.728,1.728,0,0,0,170.313,349.808Z" transform="translate(-162.36 -349)"/>
      </g>
      <path id="Path_89329" data-name="Path 89329" d="M146.255,239.81c-.254.084-12.844,17.928-13.182,19.117s-2.181,4.015.42,6.668a52,52,0,0,0,5.147,4.565c-.584-4.5,3.842-8.124,6.933-7.182l-2.363-1.6,5.4-7.174" transform="translate(-132.124 -203.507)" fill="#75a0ff"/>
      <path id="Path_89330" data-name="Path 89330" d="M316.874,257.56a17.422,17.422,0,0,1,2.475,4.08c.42,1.37,2.668,7.708,2.668,7.708l4.09,10.136a5.25,5.25,0,0,0-.771,1.653c-.059.3-.578,4.96-1.817,6.932l-6.561-2.941-.828-5.872L315,274.2l1.168-13.623Z" transform="translate(-276.582 -217.528)" fill="#75a0ff"/>
      <path id="Path_89331" data-name="Path 89331" d="M236.27,220.9a19.826,19.826,0,0,1,2.147-1.769,4.955,4.955,0,0,0,2.1,2.683,8.549,8.549,0,0,1,2.578,1.914v2.258S236.673,224.231,236.27,220.9Z" transform="translate(-214.391 -187.171)" fill="#75a0ff"/>
      <path id="Path_89332" data-name="Path 89332" d="M241.38,242.38l12.479-.754-.584-7.128-.536-1.2-.84-1.517a2.4,2.4,0,0,1-.59,1.384,4.756,4.756,0,0,1-2.536,1.34l-.246,1.471-6.323-2.611s-.823,8.613-.823,8.811" transform="translate(-218.428 -197.164)" fill="#75a0ff"/>
      <path id="Path_89333" data-name="Path 89333" d="M247.214,244.72a.478.478,0,0,1,0,.1c-.01.069-.025.164-.042.284q-.061.384-.172,1.1v.019h-.021l-5.132.158-.84.023-.439.013a1.353,1.353,0,0,0-.42.055.964.964,0,0,0-.595.6,1.126,1.126,0,0,0-.048.447v.479c.027,1.286.057,2.647.086,4.054.1,3.945.158,7.519.139,10.1,0,1.294-.021,2.34-.038,3.063-.011.355-.017.63-.023.84v.21a.337.337,0,0,1,0,.074.284.284,0,0,1,0-.074v-4.111c0-2.586-.074-6.157-.17-10.1-.027-1.408-.055-2.769-.082-4.054v-.479a1.26,1.26,0,0,1,.057-.481,1.063,1.063,0,0,1,.658-.66,1.437,1.437,0,0,1,.456-.057l.437-.01.84-.021,5.134-.113-.023.021.193-1.1.055-.282A.69.69,0,0,1,247.214,244.72Z" transform="translate(-216.874 -207.385)" fill="#263238"/>
      <circle id="Ellipse_4900" data-name="Ellipse 4900" cx="0.534" cy="0.534" r="0.534" transform="translate(23.547 41.032)" fill="#263238"/>
      <path id="Path_89334" data-name="Path 89334" d="M251.031,262.129c0,.034-.6.111-1.332.281s-1.309.363-1.319.334a4.833,4.833,0,0,1,1.294-.441A4.994,4.994,0,0,1,251.031,262.129Z" transform="translate(-223.957 -221.137)" fill="#263238"/>
      <path id="Path_89335" data-name="Path 89335" d="M249.675,265.707a8.809,8.809,0,0,1-.933-.2,8.583,8.583,0,0,1-.933-.2A4.2,4.2,0,0,1,249.675,265.707Z" transform="translate(-223.507 -223.654)" fill="#263238"/>
      <circle id="Ellipse_4901" data-name="Ellipse 4901" cx="0.534" cy="0.534" r="0.534" transform="translate(23.547 47.065)" fill="#263238"/>
      <path id="Path_89336" data-name="Path 89336" d="M251.031,290.859c0,.032-.6.109-1.332.279s-1.309.363-1.319.334a4.782,4.782,0,0,1,1.294-.439A4.9,4.9,0,0,1,251.031,290.859Z" transform="translate(-223.957 -243.831)" fill="#263238"/>
      <path id="Path_89337" data-name="Path 89337" d="M249.675,294.427a8.8,8.8,0,0,1-.933-.2,8.582,8.582,0,0,1-.933-.2A4.2,4.2,0,0,1,249.675,294.427Z" transform="translate(-223.507 -246.34)" fill="#263238"/>
      <circle id="Ellipse_4902" data-name="Ellipse 4902" cx="0.534" cy="0.534" r="0.534" transform="translate(23.547 53.101)" fill="#263238"/>
      <path id="Path_89338" data-name="Path 89338" d="M251.031,319.579c0,.032-.6.109-1.332.279s-1.309.363-1.319.334a4.782,4.782,0,0,1,1.294-.439A4.9,4.9,0,0,1,251.031,319.579Z" transform="translate(-223.957 -266.518)" fill="#263238"/>
      <path id="Path_89339" data-name="Path 89339" d="M249.675,323.118a8.8,8.8,0,0,1-.933-.2,8.568,8.568,0,0,1-.933-.2,2.84,2.84,0,0,1,.956.088,2.782,2.782,0,0,1,.91.3Z" transform="translate(-223.507 -268.999)" fill="#263238"/>
      <path id="Path_89340" data-name="Path 89340" d="M200.049,262.656a.725.725,0,0,1,.029-.153c.025-.109.061-.252.105-.431.092-.376.231-.916.389-1.586s.332-1.471.468-2.374a16.4,16.4,0,0,0,.193-2.941,10.854,10.854,0,0,0-.5-2.9A8.458,8.458,0,0,0,199.7,250.1a6.994,6.994,0,0,0-1.05-1.235c-.134-.137-.258-.223-.332-.292a.693.693,0,0,1-.113-.107,1.023,1.023,0,0,1,.126.088,4.15,4.15,0,0,1,.349.279,6.638,6.638,0,0,1,1.086,1.223,8.421,8.421,0,0,1,1.071,2.178,10.792,10.792,0,0,1,.513,2.928,15.787,15.787,0,0,1-.21,2.966c-.141.9-.326,1.706-.492,2.376s-.317,1.208-.42,1.58c-.05.176-.092.319-.124.42A1.115,1.115,0,0,1,200.049,262.656Z" transform="translate(-184.319 -210.348)" fill="#263238"/>
      <path id="Path_89341" data-name="Path 89341" d="M204.6,287.769a1.678,1.678,0,0,1-.071-.279c-.04-.181-.086-.445-.134-.775a16.882,16.882,0,0,1-.166-2.59,16.694,16.694,0,0,1,.239-2.586c.057-.326.111-.59.158-.769a1.432,1.432,0,0,1,.08-.279,1.564,1.564,0,0,1-.038.288c-.034.181-.076.445-.122.773a20.005,20.005,0,0,0-.21,2.576,20.284,20.284,0,0,0,.134,2.578c.038.33.071.594.1.777A1.277,1.277,0,0,1,204.6,287.769Z" transform="translate(-189.077 -235.641)" fill="#263238"/>
      <path id="Path_89342" data-name="Path 89342" d="M149.15,334.477a2.309,2.309,0,0,1,.326-.082,4.529,4.529,0,0,0,.84-.34c.342-.176.731-.42,1.174-.687a4.681,4.681,0,0,1,1.55-.645,2.636,2.636,0,0,1,1.651.271,5.1,5.1,0,0,1,1.113.8,6.989,6.989,0,0,1,.63.668,1.893,1.893,0,0,1,.21.271,2.439,2.439,0,0,1-.235-.242,8.989,8.989,0,0,0-.655-.63,5.338,5.338,0,0,0-1.107-.771,2.561,2.561,0,0,0-1.588-.252,4.664,4.664,0,0,0-1.519.63c-.443.256-.84.5-1.191.668a3.886,3.886,0,0,1-.87.311,2.3,2.3,0,0,1-.25.038A.334.334,0,0,1,149.15,334.477Z" transform="translate(-145.573 -276.874)" fill="#263238"/>
      <path id="Path_89343" data-name="Path 89343" d="M169.859,320.39a.818.818,0,0,1,.2.078,1.471,1.471,0,0,1,.225.111,3.329,3.329,0,0,1,.286.172,4.658,4.658,0,0,1,.679.542,4.887,4.887,0,0,1,1.17,1.76,4.621,4.621,0,0,1,.237.84,3.217,3.217,0,0,1,.048.33,1.937,1.937,0,0,1,.017.25.708.708,0,0,1,0,.21c-.021,0-.029-.3-.134-.779a5.255,5.255,0,0,0-.254-.813,5.967,5.967,0,0,0-.489-.92,5.651,5.651,0,0,0-.66-.8,5.169,5.169,0,0,0-.651-.55C170.128,320.533,169.851,320.409,169.859,320.39Z" transform="translate(-161.932 -267.159)" fill="#263238"/>
      <g id="Group_57689" data-name="Group 57689" transform="translate(2.971 54.193)" opacity="0.4">
        <path id="Path_89344" data-name="Path 89344" d="M153.985,328.036a5.136,5.136,0,0,0-4.412-3.063,1.533,1.533,0,0,0-.748.116.651.651,0,0,0-.382.609,1.864,1.864,0,0,1,.059.368c-.032.279-.378.38-.649.458a2.731,2.731,0,0,0-1.351.88c-.183.21-.33.548-.155.775a.664.664,0,0,0,.653.143,9.511,9.511,0,0,0,2.426-1,3.966,3.966,0,0,1,2.538-.5,4.628,4.628,0,0,1,2.288,1.721" transform="translate(-146.269 -324.966)"/>
      </g>
      <path id="Path_89345" data-name="Path 89345" d="M276.246,336.75a.7.7,0,0,1-.078.092l-.242.248c-.1.107-.233.235-.391.378s-.332.313-.538.483a18.614,18.614,0,0,1-5.567,3.279c-.666.244-1.275.435-1.794.567-.258.071-.5.12-.7.166s-.387.082-.536.105l-.338.055a.434.434,0,0,1-.12.013.441.441,0,0,1,.116-.034l.336-.076c.145-.029.324-.069.529-.122s.441-.105.7-.183c.515-.141,1.12-.338,1.779-.586a19.537,19.537,0,0,0,4.054-2.12c.582-.4,1.088-.784,1.5-1.126.21-.164.387-.328.546-.466s.3-.263.4-.366l.254-.233A.519.519,0,0,1,276.246,336.75Z" transform="translate(-237.829 -280.082)" fill="#263238"/>
      <path id="Path_89346" data-name="Path 89346" d="M316.95,271a.713.713,0,0,1-.015.141c-.015.1-.036.237-.061.4l-.231,1.471c-.193,1.246-.447,2.973-.708,4.88s-.487,3.628-.658,4.891l-.2,1.481c-.025.166-.044.3-.059.4a.72.72,0,0,1-.027.139.613.613,0,0,1,0-.143q.013-.155.038-.4c.04-.366.095-.87.164-1.487.145-1.26.361-2.985.63-4.895s.527-3.634.739-4.878c.109-.63.2-1.126.269-1.47.032-.164.059-.3.08-.4A.55.55,0,0,1,316.95,271Z" transform="translate(-276.574 -228.144)" fill="#263238"/>
      <path id="Path_89347" data-name="Path 89347" d="M290.48,352.306a.9.9,0,0,1,.113-.21c.08-.124.2-.3.347-.523.3-.437.727-1.034,1.216-1.681s.952-1.214,1.3-1.618c.17-.21.311-.363.42-.475s.158-.168.164-.162a1,1,0,0,1-.13.189l-.395.517c-.326.42-.777.992-1.26,1.634s-.924,1.231-1.239,1.658l-.382.489a.952.952,0,0,1-.149.181Z" transform="translate(-257.213 -288.682)" fill="#263238"/>
      <path id="Path_89348" data-name="Path 89348" d="M327.519,344.745a2.928,2.928,0,0,1-.336-.139c-.21-.092-.525-.225-.918-.361a9.033,9.033,0,0,0-3.187-.536,2.519,2.519,0,0,0-.889.183,2.281,2.281,0,0,0-.7.473,3.648,3.648,0,0,0-.788,1.221,9.758,9.758,0,0,0-.332.931,2.4,2.4,0,0,1-.12.345,2.5,2.5,0,0,1,.078-.357,8.308,8.308,0,0,1,.3-.947,3.618,3.618,0,0,1,.79-1.248,2.355,2.355,0,0,1,.727-.5,2.614,2.614,0,0,1,.924-.193,8.542,8.542,0,0,1,3.218.565,9.166,9.166,0,0,1,.912.4c.105.05.185.1.239.126A.321.321,0,0,1,327.519,344.745Z" transform="translate(-280.729 -285.503)" fill="#263238"/>
      <path id="Path_89349" data-name="Path 89349" d="M329.565,333.318c0,.023-.33.013-.84.1a5.49,5.49,0,0,0-.891.235,5.565,5.565,0,0,0-1.912,1.17,5.423,5.423,0,0,0-.616.687c-.315.42-.456.719-.477.708a.979.979,0,0,1,.09-.21,2.231,2.231,0,0,1,.13-.24,3.519,3.519,0,0,1,.193-.3,5.084,5.084,0,0,1,.609-.714,5.2,5.2,0,0,1,1.947-1.191,4.959,4.959,0,0,1,.912-.21c.132-.023.254-.027.359-.036a2.493,2.493,0,0,1,.271,0A1.069,1.069,0,0,1,329.565,333.318Z" transform="translate(-284.347 -277.366)" fill="#263238"/>
      <path id="Path_89350" data-name="Path 89350" d="M326.332,383.387a4.143,4.143,0,0,0-2.4-3.168,3.9,3.9,0,0,0-3.336,0c-.952.55-2.225,1.9-1.966,2.968l2.183,3.666a3.473,3.473,0,0,0,3.893.124A3.781,3.781,0,0,0,326.332,383.387Z" transform="translate(-279.425 -314.123)" fill="#75a0ff"/>
      <g id="Group_57690" data-name="Group 57690" transform="translate(39.174 65.721)" opacity="0.4">
        <path id="Path_89351" data-name="Path 89351" d="M326.332,383.387a4.143,4.143,0,0,0-2.4-3.168,3.9,3.9,0,0,0-3.336,0c-.952.55-2.225,1.9-1.966,2.968l2.183,3.666a3.473,3.473,0,0,0,3.893.124A3.781,3.781,0,0,0,326.332,383.387Z" transform="translate(-318.599 -379.844)"/>
      </g>
      <path id="Path_89352" data-name="Path 89352" d="M328.859,386.055s.078-.147.21-.408a4.263,4.263,0,0,0,.376-1.189,3.827,3.827,0,0,0-.16-1.826,4.425,4.425,0,0,0-.21-.494,4.145,4.145,0,0,0-.284-.479,3.952,3.952,0,0,0-1.784-1.46,4.067,4.067,0,0,0-2.88,0,4.372,4.372,0,0,0-1.1.586c-.237.179-.359.29-.368.282a.68.68,0,0,1,.084-.086,2.767,2.767,0,0,1,.256-.229,4.167,4.167,0,0,1,4.042-.649,3.946,3.946,0,0,1,1.031.609,4.108,4.108,0,0,1,.8.889,4.712,4.712,0,0,1,.288.494,4.253,4.253,0,0,1,.21.508,3.8,3.8,0,0,1,.141,1.87,3.961,3.961,0,0,1-.42,1.2c-.071.13-.141.227-.183.292A.393.393,0,0,1,328.859,386.055Z" transform="translate(-282.633 -314.118)" fill="#263238"/>
      <path id="Path_89353" data-name="Path 89353" d="M319.7,360.663c-.031,0-.286-1.433-.571-3.212s-.492-3.225-.462-3.231.286,1.435.571,3.214S319.732,360.659,319.7,360.663Z" transform="translate(-279.479 -293.882)" fill="#263238"/>
      <g id="Group_57691" data-name="Group 57691" transform="translate(38.8 56.025)" opacity="0.4">
        <path id="Path_89354" data-name="Path 89354" d="M316.82,336.05l1.115-.078a5.132,5.132,0,0,1,3.22-2.216,1.993,1.993,0,0,1,.931-.019.908.908,0,0,1,.66.607.6.6,0,0,1-.42.727,2.311,2.311,0,0,1,1.458,1.158c.063.12.109.284.015.38a.346.346,0,0,1-.252.067c-.515,0-1.025-.116-1.54-.139a2.311,2.311,0,0,0-1.471.347,2.755,2.755,0,0,0-.84,1.26,25.634,25.634,0,0,0-1.563,5.275c-.258-1.023-.281-2.1-.468-3.071-.267-1.376-.525-2.783-.84-4.294" transform="translate(-316.82 -333.691)"/>
      </g>
      <g id="Group_57692" data-name="Group 57692" transform="translate(14.498 55.004)" opacity="0.4">
        <path id="Path_89355" data-name="Path 89355" d="M201.245,341.487a8.922,8.922,0,0,0,5.269,2.5,28.1,28.1,0,0,0,6.092.1c.5-.029,1.092-.116,1.311-.567a1.34,1.34,0,0,0-.076-1.034,19.493,19.493,0,0,0-4.393-6.128,5.37,5.37,0,0,0-2.191-1.651c-.973-.3-2.078-.036-3-.464-1.109-.515-1.561-1.821-1.9-3l-.706-2.416c.155,2.632.128,4.748.128,4.748a55.65,55.65,0,0,0-.63,5.968C201.243,340.649,201.245,341.487,201.245,341.487Z" transform="translate(-201.138 -328.83)"/>
      </g>
      <path id="Path_89356" data-name="Path 89356" d="M244.88,232.083a1.273,1.273,0,0,1-.275-.061c-.176-.044-.42-.122-.735-.231a12.016,12.016,0,0,1-2.286-1.1,12.161,12.161,0,0,1-2.006-1.559,7.509,7.509,0,0,1-.532-.557,1.207,1.207,0,0,1-.176-.221,1.679,1.679,0,0,1,.21.191c.126.13.315.311.555.529a13.579,13.579,0,0,0,4.265,2.649c.3.118.548.21.721.263a1.6,1.6,0,0,1,.261.1Z" transform="translate(-216.445 -194.454)" fill="#263238"/>
      <path id="Path_89357" data-name="Path 89357" d="M281.876,240.569a.5.5,0,0,1-.08.155,3.154,3.154,0,0,1-.271.391,4.93,4.93,0,0,1-2.594,1.681,3.127,3.127,0,0,1-.466.09.552.552,0,0,1-.174.01c0-.019.242-.059.62-.174a5.707,5.707,0,0,0,1.395-.653,5.631,5.631,0,0,0,1.16-1.01C281.725,240.766,281.859,240.558,281.876,240.569Z" transform="translate(-247.584 -204.106)" fill="#263238"/>
      <path id="Path_89358" data-name="Path 89358" d="M293.562,246.74a3.668,3.668,0,0,1-1.712,1.914,12.153,12.153,0,0,0,.947-.876A12.316,12.316,0,0,0,293.562,246.74Z" transform="translate(-258.295 -208.981)" fill="#263238"/>
      <path id="Path_89359" data-name="Path 89359" d="M247.54,364.709l.13-.027c.466-.09,2.013-.372,2.263-.122.292.294,2.386,2.351,2.386,2.351s-.4.662-1.727,0A18.248,18.248,0,0,1,247.54,364.709Z" transform="translate(-223.294 -301.97)" fill="#ffbe9d"/>
      <path id="Path_89360" data-name="Path 89360" d="M231.607,345.091h0a1.063,1.063,0,0,1,1.445.256l6.384,8.468-1.636,1.2-6.447-8.386a1.063,1.063,0,0,1,.254-1.538Z" transform="translate(-210.331 -286.531)" fill="#263238"/>
      <path id="Path_89361" data-name="Path 89361" d="M163.91,354.332s7.582,1.231,8.632,1.313,3.926,3.132,4.76,3.424a13.764,13.764,0,0,0,3.092.25,28.259,28.259,0,0,0,4.218,0c.126-.21.376-.168,0-.962a8.02,8.02,0,0,0-.84-1.378s1.05,1.294,1.338,1.336.918.118.876-.441a18.638,18.638,0,0,0-1.128-2.857s-.458-1.073-1.294-1.311-4.47-1.989-4.47-1.989h-3.886l-4.533-2.155s-2.744-.882-5.355,2a5.634,5.634,0,0,0-1.137,1.968Z" transform="translate(-157.233 -290.101)" fill="#ffbe9d"/>
      <path id="Path_89362" data-name="Path 89362" d="M251,369.147a.952.952,0,0,1-.113-.221c-.074-.168-.164-.374-.269-.618s-.246-.58-.389-.92a1.981,1.981,0,0,0-.662-.966,3.064,3.064,0,0,0-.544-.3l-.536-.239c-.345-.151-.655-.281-.916-.391l-.63-.258a.124.124,0,1,1,.017-.04c.149.05.368.126.63.225s.582.225.929.372l.54.235a2.921,2.921,0,0,1,.565.307,2.048,2.048,0,0,1,.691,1.021c.137.342.258.655.366.926s.172.458.237.63A1.211,1.211,0,0,1,251,369.147Z" transform="translate(-222.646 -302.5)" fill="#eb996e"/>
      <path id="Path_89363" data-name="Path 89363" d="M249,374.23a2.012,2.012,0,0,1,.4.311,8.527,8.527,0,0,1,.84.88,8.336,8.336,0,0,1,.718.992,1.923,1.923,0,0,1,.235.447,2.914,2.914,0,0,1-.3-.405c-.179-.254-.433-.6-.737-.964s-.6-.672-.819-.893a2.816,2.816,0,0,1-.338-.368Z" transform="translate(-224.447 -309.688)" fill="#eb996e"/>
      <path id="Path_89364" data-name="Path 89364" d="M247.816,385.36a.48.48,0,0,1-.16-.063,2.916,2.916,0,0,1-.4-.244,6.863,6.863,0,0,1-1.107-1.065c-.393-.452-.744-.863-.992-1.166a3.89,3.89,0,0,1-.389-.5,3.538,3.538,0,0,1,.445.452c.265.29.63.693,1.017,1.143a8.58,8.58,0,0,0,1.071,1.076C247.608,385.234,247.824,385.345,247.816,385.36Z" transform="translate(-221.106 -316.079)" fill="#eb996e"/>
      <path id="Path_89365" data-name="Path 89365" d="M239.648,390.068a1.572,1.572,0,0,1-.391-.2,9.13,9.13,0,0,1-.874-.588,10.2,10.2,0,0,1-.8-.679,1.762,1.762,0,0,1-.3-.319c.023-.025.521.42,1.17.912S239.664,390.04,239.648,390.068Z" transform="translate(-215.189 -320.791)" fill="#eb996e"/>
      <path id="Path_89366" data-name="Path 89366" d="M300.3,399.48a8.692,8.692,0,0,1-.758-1.4c-.092-.368,0-2.118-1.227-1.842v.137c.031.149,0,3.708,0,3.708Z" transform="translate(-263.398 -327.052)" fill="#ffbe9d"/>
      <path id="Path_89367" data-name="Path 89367" d="M232.826,420.64s-1.132,10.449,11.1,10.145c9.974-.248,9.8-9.97,9.8-9.97Z" transform="translate(-211.649 -346.349)" fill="#75a0ff"/>
      <ellipse id="Ellipse_4903" data-name="Ellipse 4903" cx="11.401" cy="2.756" rx="11.401" ry="2.756" transform="translate(20.045 71.634)" fill="#75a0ff"/>
      <ellipse id="Ellipse_4904" data-name="Ellipse 4904" cx="10.464" cy="1.742" rx="10.464" ry="1.742" transform="translate(21.152 72.55)" opacity="0.4"/>
      <path id="Path_89368" data-name="Path 89368" d="M253.517,424.859l-.05.029-.141.088c-.124.078-.313.185-.561.311a11.278,11.278,0,0,1-2.21.83,27.973,27.973,0,0,1-3.441.643,33.946,33.946,0,0,1-4.281.21c-1.519-.013-2.968-.063-4.281-.179a24.424,24.424,0,0,1-3.46-.538,15.573,15.573,0,0,1-2.252-.7c-.26-.1-.456-.2-.59-.254l-.149-.071c-.036-.015-.053-.025-.05-.027a.371.371,0,0,1,.055.019l.155.061c.137.053.332.141.595.233a16.9,16.9,0,0,0,2.256.666,25.22,25.22,0,0,0,3.449.513c1.311.109,2.756.158,4.275.17a34.59,34.59,0,0,0,4.267-.21,28.586,28.586,0,0,0,3.433-.618,11.858,11.858,0,0,0,2.212-.792c.248-.122.441-.221.567-.292l.147-.08C253.5,424.865,253.515,424.857,253.517,424.859Z" transform="translate(-211.057 -349.681)" fill="#263238"/>
      <path id="Path_89369" data-name="Path 89369" d="M301,388.344a37.661,37.661,0,0,1,1.681-4.739,43.537,43.537,0,0,1,3.733-3.008,2.062,2.062,0,0,1,.712-.347,4.187,4.187,0,0,1,3.118.233,3.571,3.571,0,0,1,1.92,2.071l-4.7,2.918-.183,1.975-3.781-.964a1.051,1.051,0,0,0-.111-.576S302.191,388.819,301,388.344Z" transform="translate(-265.523 -314.288)" fill="#ffbe9d"/>
      <path id="Path_89370" data-name="Path 89370" d="M271.434,392.3c-.477-.63-.874-1.237-1.189-1.752a13.83,13.83,0,0,1-.689-1.26,3.085,3.085,0,0,0-.246-.466,3.219,3.219,0,0,0,.187.494,13.056,13.056,0,0,0,.647,1.284,20.743,20.743,0,0,0,1.168,1.781c.471.649,1.023,1.338,1.609,2.05.819.983,1.576,1.9,2.191,2.706h.17c-.616-.84-1.391-1.792-2.233-2.8C272.463,393.622,271.911,392.94,271.434,392.3Z" transform="translate(-240.491 -321.213)" fill="#f5f5f5"/>
      <path id="Path_89371" data-name="Path 89371" d="M265.14,391.12a3.283,3.283,0,0,0,.2.485c.137.311.334.758.567,1.315a44.258,44.258,0,0,1,1.582,4.441c.164.59.338,1.164.544,1.7h.168c-.21-.54-.382-1.124-.555-1.739a35.971,35.971,0,0,0-1.632-4.441c-.248-.552-.462-.994-.616-1.3A3.279,3.279,0,0,0,265.14,391.12Z" transform="translate(-237.197 -323.03)" fill="#f5f5f5"/>
      <path id="Path_89372" data-name="Path 89372" d="M267.1,388.73a3.323,3.323,0,0,0,.225.479c.155.3.384.742.672,1.279.578,1.073,1.387,2.555,2.372,4.136.571.92,1.145,1.763,1.681,2.5h.176c-.534-.758-1.122-1.63-1.71-2.582-.983-1.578-1.807-3.046-2.41-4.1l-.718-1.26A3.23,3.23,0,0,0,267.1,388.73Z" transform="translate(-238.745 -321.142)" fill="#f5f5f5"/>
      <path id="Path_89373" data-name="Path 89373" d="M274.3,388.983a6.957,6.957,0,0,0-1.855-2.55,16.783,16.783,0,0,0-2.311-1.681c-.754-.477-1.471-.91-2.08-1.349a14.592,14.592,0,0,1-2.643-2.41c-.275-.321-.479-.582-.613-.758l-.155-.21a.29.29,0,0,0-.057-.065.341.341,0,0,0,.044.076l.141.21c.128.185.321.452.592.781a13.973,13.973,0,0,0,2.624,2.462c.616.447,1.323.889,2.073,1.37a16.79,16.79,0,0,1,2.284,1.681,6.823,6.823,0,0,1,1.813,2.5,4.937,4.937,0,0,1,.279.886l.164-.017A5.3,5.3,0,0,0,274.3,388.983Z" transform="translate(-236.762 -314.215)" fill="#f5f5f5"/>
      <path id="Path_89374" data-name="Path 89374" d="M277.285,395.442a7.291,7.291,0,0,0-1.122-1.916,12.133,12.133,0,0,0-1.954-1.891c-.754-.6-1.508-1.115-2.181-1.6s-1.26-.939-1.739-1.347a12.9,12.9,0,0,1-1.067-1.027,4.661,4.661,0,0,0-.372-.4.468.468,0,0,0,.076.122c.052.076.137.185.248.321a10.229,10.229,0,0,0,1.038,1.071,22.078,22.078,0,0,0,1.727,1.382c.67.494,1.42,1.015,2.168,1.607a12.63,12.63,0,0,1,1.939,1.853,7.441,7.441,0,0,1,1.13,1.861c.038.09.069.179.1.265l.109-.01A2,2,0,0,0,277.285,395.442Z" transform="translate(-240.127 -319.981)" fill="#f5f5f5"/>
      <path id="Path_89375" data-name="Path 89375" d="M272.446,401.16c-.807-1.47-1.485-2.84-1.966-3.834l-.567-1.176a2.809,2.809,0,0,0-.223-.42,2.713,2.713,0,0,0,.164.452c.118.286.292.7.519,1.2.456,1.006,1.12,2.382,1.926,3.863.275.5.546.983.809,1.437h.181C273.018,402.2,272.734,401.69,272.446,401.16Z" transform="translate(-240.791 -326.672)" fill="#f5f5f5"/>
      <path id="Path_89376" data-name="Path 89376" d="M274.093,393.539a43.742,43.742,0,0,1-3.206-3.519c-.384-.473-.687-.861-.9-1.13a3.408,3.408,0,0,0-.338-.42,3.226,3.226,0,0,0,.288.447c.2.282.483.683.859,1.166a35.773,35.773,0,0,0,3.181,3.571c.664.658,1.338,1.237,1.9,1.807a8.887,8.887,0,0,1,1.1,1.315h.139a8.193,8.193,0,0,0-1.132-1.414C275.423,394.774,274.753,394.192,274.093,393.539Z" transform="translate(-240.759 -320.937)" fill="#f5f5f5"/>
      <path id="Path_89377" data-name="Path 89377" d="M265.944,399.955c-.279-.84-.469-1.655-.645-2.393a22.549,22.549,0,0,0-1-3.458,6.121,6.121,0,0,0-.6-1.174.165.165,0,0,0,.034.08l.118.227c.1.2.242.5.393.891a23.936,23.936,0,0,1,.939,3.462c.172.739.355,1.552.63,2.407.055.162.116.326.176.492h.151C266.074,400.31,266,400.129,265.944,399.955Z" transform="translate(-236.059 -324.46)" fill="#f5f5f5"/>
      <path id="Path_89378" data-name="Path 89378" d="M273.3,414.283a.181.181,0,0,1,.05,0,1.407,1.407,0,0,1,.147,0c.128.01.317.031.559.065a12.744,12.744,0,0,1,2.019.447,4.44,4.44,0,0,1,.63.279.84.84,0,0,1,.288.248.485.485,0,0,1,.059.4.538.538,0,0,1-.273.309,2.227,2.227,0,0,1-.363.193,6.19,6.19,0,0,1-.8.279,24.733,24.733,0,0,1-3.689.708,43.514,43.514,0,0,1-6.813.189c-.872-.034-1.576-.076-2.063-.105l-.561-.04-.145-.013a.123.123,0,0,1-.05,0h.2l.561.019,2.063.069a46.888,46.888,0,0,0,6.8-.21,25.682,25.682,0,0,0,3.674-.7,6.461,6.461,0,0,0,.79-.271,2.053,2.053,0,0,0,.351-.183.47.47,0,0,0,.237-.254.4.4,0,0,0-.046-.328.782.782,0,0,0-.256-.225,4.522,4.522,0,0,0-.616-.277,13.863,13.863,0,0,0-2-.479c-.239-.04-.42-.069-.552-.086A.746.746,0,0,1,273.3,414.283Z" transform="translate(-234.945 -341.326)" fill="#263238"/>
      <path id="Path_89379" data-name="Path 89379" d="M313.416,402c.019.025-.372.33-.819.744s-.781.779-.807.758A5.24,5.24,0,0,1,313.416,402Z" transform="translate(-274.047 -331.624)" fill="#eb996e"/>
      <path id="Path_89380" data-name="Path 89380" d="M314.035,408.939a2.214,2.214,0,0,0-.674-.141,2.271,2.271,0,0,0-.67.168c0-.011.046-.074.164-.141a1.051,1.051,0,0,1,.5-.137,1.074,1.074,0,0,1,.51.116C313.986,408.867,314.043,408.928,314.035,408.939Z" transform="translate(-274.757 -336.908)" fill="#eb996e"/>
    </g>
    <g id="freepik--Shelves--inject-10" transform="translate(30.21 51.79)">
      <path id="Path_89381" data-name="Path 89381" d="M112.183,203.48c-.122.1-6.783,3.088-6.783,3.088s1.834,3.895,5.393,2.16C114.043,207.144,112.183,203.48,112.183,203.48Z" transform="translate(-90.165 -171.614)" fill="#455a64"/>
      <path id="Path_89382" data-name="Path 89382" d="M136.305,101.07c.149,0,.273,5.172.273,11.554s-.124,11.554-.273,11.554-.275-5.17-.275-11.554S136.154,101.07,136.305,101.07Z" transform="translate(-114.361 -90.717)" fill="#455a64"/>
      <path id="Path_89383" data-name="Path 89383" d="M89.263,175.34c-.122.1-6.783,3.088-6.783,3.088s1.834,3.895,5.395,2.16C91.125,179,89.263,175.34,89.263,175.34Z" transform="translate(-72.06 -149.385)" fill="#455a64"/>
      <path id="Path_89384" data-name="Path 89384" d="M113.393,99.21a70.9,70.9,0,0,1,.273,8.792,70.9,70.9,0,0,1-.273,8.792A70.9,70.9,0,0,1,113.12,108,70.905,70.905,0,0,1,113.393,99.21Z" transform="translate(-96.263 -89.248)" fill="#455a64"/>
      <path id="Path_89385" data-name="Path 89385" d="M61.485,147.59c-.124.095-6.785,3.086-6.785,3.086s1.836,3.895,5.395,2.16C63.349,151.247,61.485,147.59,61.485,147.59Z" transform="translate(-50.116 -127.465)" fill="#455a64"/>
      <path id="Path_89386" data-name="Path 89386" d="M85.633,102a28.681,28.681,0,0,1,.273,5.578,28.713,28.713,0,0,1-.273,5.58,28.694,28.694,0,0,1-.273-5.58A28.663,28.663,0,0,1,85.633,102Z" transform="translate(-74.335 -91.452)" fill="#455a64"/>
      <circle id="Ellipse_4905" data-name="Ellipse 4905" cx="6.806" cy="6.806" r="6.806" transform="translate(23.062 19.314)" fill="#455a64"/>
      <path id="Path_89387" data-name="Path 89387" d="M171.844,114.444l-.534-8.754h2.508l-.7,8.754Z" transform="translate(-142.229 -94.367)" fill="#455a64"/>
      <path id="Path_89388" data-name="Path 89388" d="M157.068,160.067l-.044.032-.139.08c-.061.034-.134.082-.227.126l-.324.145a5.592,5.592,0,0,1-2.21.408,5.754,5.754,0,0,1-3.151-1,5.114,5.114,0,0,1-1.376-1.422,5.834,5.834,0,0,1-.868-4.086,5.113,5.113,0,0,1,.674-1.859,5.773,5.773,0,0,1,2.477-2.206,5.616,5.616,0,0,1,2.185-.529h.336c.1,0,.189.017.258.021l.158.019a.234.234,0,0,1,.055,0h-.21c-.069,0-.155-.013-.258-.013h-.351a5.8,5.8,0,0,0-2.153.557,5.735,5.735,0,0,0-2.418,2.2,5.029,5.029,0,0,0-.658,1.826,5.762,5.762,0,0,0,.855,4.01,5.029,5.029,0,0,0,1.342,1.4,5.777,5.777,0,0,0,5.3.641l.324-.137c.095-.042.168-.084.231-.116l.143-.071Z" transform="translate(-124.336 -129.171)" fill="#263238"/>
      <path id="Path_89389" data-name="Path 89389" d="M45.16,51.79l2.41,8.718H57.777l2.412-8.718Z" transform="translate(-42.58 -51.79)" fill="#455a64"/>
      <path id="Path_89390" data-name="Path 89390" d="M61.511,59.795c0,.032-3.151.057-7.035.057s-7.035-.023-7.035-.057,3.151-.055,7.035-.055S61.511,59.767,61.511,59.795Z" transform="translate(-44.381 -58.07)" fill="#263238"/>
      <path id="Path_89391" data-name="Path 89391" d="M115.431,59.062h-2.1l.336-.912h1.754a.456.456,0,0,1,.456.456h0A.456.456,0,0,1,115.431,59.062Z" transform="translate(-96.429 -56.814)" fill="#263238"/>
      <path id="Path_89392" data-name="Path 89392" d="M36.736,59.062h2.09l-.334-.912H36.736a.456.456,0,0,0-.456.456h0A.456.456,0,0,0,36.736,59.062Z" transform="translate(-35.566 -56.814)" fill="#263238"/>
      <rect id="Rectangle_17759" data-name="Rectangle 17759" width="38.123" height="2.725" transform="translate(0 8.601)" fill="#75a0ff"/>
    </g>
    <g id="freepik--kitchen-tools--inject-10" transform="translate(99.68 99.112)">
      <path id="Path_89393" data-name="Path 89393" d="M437.232,277.127a1.136,1.136,0,0,0-1.471.643L434.07,282.3h0l2.1.773,1.706-4.487A1.134,1.134,0,0,0,437.232,277.127Z" transform="translate(-419.26 -277.049)" fill="#75a0ff"/>
      <path id="Path_89394" data-name="Path 89394" d="M445.266,282.423a.479.479,0,1,1-.14-.342A.483.483,0,0,1,445.266,282.423Z" transform="translate(-427.341 -280.913)" fill="#fafafa"/>
      <path id="Path_89395" data-name="Path 89395" d="M439.566,296.571a.483.483,0,1,1-.483-.481.483.483,0,0,1,.483.481Z" transform="translate(-422.838 -292.09)" fill="#fafafa"/>
      <path id="Path_89396" data-name="Path 89396" d="M421.838,302.05l-3.258,8.5,4.01-.05,3.271-7.023Z" transform="translate(-407.024 -296.798)" fill="#e0e0e0"/>
      <rect id="Rectangle_17760" data-name="Rectangle 17760" width="11.239" height="12.926" transform="translate(6.605 13.752)" fill="#75a0ff"/>
      <path id="Path_89397" data-name="Path 89397" d="M406.241,357.625c0,.031-2.521.057-5.62.057S395,357.66,395,357.625s2.521-.055,5.62-.055S406.241,357.6,406.241,357.625Z" transform="translate(-388.397 -340.654)" fill="#fff"/>
      <path id="Path_89398" data-name="Path 89398" d="M406.241,364.255c0,.029-2.521.055-5.62.055s-5.622-.025-5.622-.055,2.521-.055,5.62-.055S406.241,364.223,406.241,364.255Z" transform="translate(-388.397 -345.892)" fill="#fff"/>
      <path id="Path_89399" data-name="Path 89399" d="M406.249,370.875c0,.032-2.521.055-5.62.055s-5.62-.023-5.62-.055,2.521-.055,5.62-.055S406.249,370.845,406.249,370.875Z" transform="translate(-388.405 -351.121)" fill="#fff"/>
      <path id="Path_89400" data-name="Path 89400" d="M406.249,377.5c0,.029-2.521.055-5.62.055s-5.62-.025-5.62-.055,2.521-.055,5.62-.055S406.249,377.473,406.249,377.5Z" transform="translate(-388.405 -356.358)" fill="#fff"/>
      <path id="Path_89401" data-name="Path 89401" d="M406.249,384.125c0,.029-2.521.055-5.62.055s-5.62-.025-5.62-.055,2.521-.055,5.62-.055S406.249,384.1,406.249,384.125Z" transform="translate(-388.405 -361.587)" fill="#fff"/>
      <path id="Path_89402" data-name="Path 89402" d="M406.241,390.795c0,.031-2.521.055-5.62.055s-5.622-.034-5.622-.055,2.521-.055,5.62-.055S406.241,390.755,406.241,390.795Z" transform="translate(-388.397 -366.856)" fill="#fff"/>
      <path id="Path_89403" data-name="Path 89403" d="M363.57,295.621l7.514.6s.21-3.649-3.307-4.036S363.57,295.621,363.57,295.621Z" transform="translate(-363.57 -288.985)" fill="#455a64"/>
      <path id="Path_89404" data-name="Path 89404" d="M397.9,310.372a37.521,37.521,0,0,1-2.971-8.546,37.517,37.517,0,0,1,2.971,8.546Z" transform="translate(-388.32 -296.621)" fill="#455a64"/>
    </g>
    <g id="freepik--Food--inject-10" transform="translate(60.2 117.859)">
      <path id="Path_89405" data-name="Path 89405" d="M358.7,445.908a.808.808,0,0,1-.149.034l-.431.071-.311.048c-.116.015-.239.023-.374.038-.269.023-.573.063-.912.067l-.531.017h-.578c-.4,0-.823-.04-1.26-.076a17.2,17.2,0,0,1-5.615-1.531c-.4-.2-.788-.38-1.132-.584-.172-.1-.342-.189-.5-.288l-.452-.3c-.29-.176-.531-.368-.75-.523-.109-.08-.21-.151-.3-.223l-.244-.21-.334-.279a.9.9,0,0,1-.111-.1.6.6,0,0,1,.126.086l.347.263.248.193c.092.069.2.139.307.21.221.151.464.336.756.508l.45.279c.158.1.328.183.5.279.345.2.729.378,1.13.574a19.47,19.47,0,0,0,2.731.992,19.254,19.254,0,0,0,2.849.534c.443.038.866.082,1.26.084.2,0,.391.019.574.015l.531-.011c.336,0,.641-.034.91-.05A3.3,3.3,0,0,0,357.8,446l.311-.038.433-.052A1.037,1.037,0,0,1,358.7,445.908Z" transform="translate(-309.192 -426.151)" fill="#455a64"/>
      <path id="Path_89406" data-name="Path 89406" d="M350.6,456.245a6.552,6.552,0,0,0-4.815,1.471,15.526,15.526,0,0,0,4.815-1.471" transform="translate(-310.045 -437.315)" fill="#455a64"/>
      <path id="Path_89407" data-name="Path 89407" d="M367.739,442.969a5.794,5.794,0,0,0-.275-3.571c-.166-.282-.092,1.926.275,3.571" transform="translate(-327.099 -424.021)" fill="#455a64"/>
      <path id="Path_89408" data-name="Path 89408" d="M356.3,440.978a4.3,4.3,0,0,0-.191-2.618,7.034,7.034,0,0,0,.191,2.618" transform="translate(-318.151 -423.206)" fill="#455a64"/>
      <path id="Path_89409" data-name="Path 89409" d="M378.738,449.088a4.3,4.3,0,0,0-.191-2.618,6.93,6.93,0,0,0,.191,2.618" transform="translate(-335.872 -429.612)" fill="#455a64"/>
      <path id="Path_89410" data-name="Path 89410" d="M344.012,450.886a4.883,4.883,0,0,0-3.582,1.092,11.532,11.532,0,0,0,3.582-1.092" transform="translate(-305.811 -433.09)" fill="#455a64"/>
      <path id="Path_89411" data-name="Path 89411" d="M362.915,459.79a6.883,6.883,0,0,0-4.765,2.252,16.231,16.231,0,0,0,4.765-2.252" transform="translate(-319.809 -440.148)" fill="#455a64"/>
      <path id="Path_89412" data-name="Path 89412" d="M387.641,416.229a3.395,3.395,0,0,0-5.951.557,3.922,3.922,0,0,0,.048,3,5.367,5.367,0,0,0,1.962,2.311,6.414,6.414,0,0,0,7.5-.277,4.1,4.1,0,0,0,1.523-2.5,3.111,3.111,0,0,0-4.6-3.151" transform="translate(-338.187 -404.543)" fill="#75a0ff"/>
      <path id="Path_89413" data-name="Path 89413" d="M405.618,418.623a1.183,1.183,0,0,0-1.26-.866l.744.884a1.151,1.151,0,0,0-.914.716c-.034.09-.044.21.042.265a.223.223,0,0,0,.185-.021l.9-.374a3.105,3.105,0,0,0,.538,1.4,3.647,3.647,0,0,0,.34-1.41l1,.441a1.487,1.487,0,0,0-.468-.737,2.485,2.485,0,0,0,.84-.326c.078-.048.162-.13.128-.21s-.109-.082-.179-.088a3.292,3.292,0,0,0-1.9.395" transform="translate(-356.155 -406.94)" fill="#455a64"/>
      <path id="Path_89414" data-name="Path 89414" d="M409.848,412.195a6.512,6.512,0,0,0-.248-3.013c.237-.052.529-.088.685.1a.643.643,0,0,1,.1.4,7.1,7.1,0,0,1-.534,2.788" transform="translate(-360.45 -400.139)" fill="#455a64"/>
      <path id="Path_89415" data-name="Path 89415" d="M384.531,422.824a.764.764,0,0,1-.155-.155,2.774,2.774,0,0,1-.334-.5,3.075,3.075,0,0,1,.609-3.681,2.658,2.658,0,0,1,.477-.368.893.893,0,0,1,.2-.1,6.552,6.552,0,0,0-.62.521,3.124,3.124,0,0,0-.594,3.59,6.4,6.4,0,0,0,.42.693Z" transform="translate(-339.978 -407.153)" fill="#fff"/>
      <path id="Path_89416" data-name="Path 89416" d="M390.443,443.012c-.01.027-.168,0-.328-.12s-.242-.252-.21-.271.137.078.281.183S390.453,442.982,390.443,443.012Z" transform="translate(-344.887 -426.584)" fill="#fff"/>
      <path id="Path_89417" data-name="Path 89417" d="M191.5,366.45c-.092.021.586,3.428.586,3.428h1.735l.767-3.292A5.475,5.475,0,0,0,191.5,366.45Z" transform="translate(-188.159 -366.29)" fill="#455a64"/>
      <path id="Path_89418" data-name="Path 89418" d="M178.159,390.879s-2.555-7.155-2.2-9.1a4.376,4.376,0,0,1,1.737-2.964,4.214,4.214,0,0,0,1.277-1.737,19.992,19.992,0,0,0,0-3.065s-.46-.716-.307-.971,3.935,0,3.935,0a1.719,1.719,0,0,1-.307.868,22.479,22.479,0,0,0,.053,3.168c.153.307,2.5,2.914,2.861,4.241s-1.412,9.556-1.412,9.556Z" transform="translate(-175.867 -371.537)" fill="#f5f5f5"/>
      <path id="Path_89419" data-name="Path 89419" d="M177.931,390.713h1.5l4.145-.019-.034.027c.21-1.04.452-2.218.691-3.515s.49-2.712.664-4.231c.04-.38.076-.765.084-1.158a1.945,1.945,0,0,0-.242-1.132,13.564,13.564,0,0,0-1.363-2.063c-.256-.336-.525-.67-.8-1.006-.134-.17-.271-.338-.4-.515a1.543,1.543,0,0,1-.1-.143.723.723,0,0,1-.042-.174,3.034,3.034,0,0,1-.029-.334c-.04-.884-.013-1.779.013-2.689v-.027a1.927,1.927,0,0,0,.116-.21,1.632,1.632,0,0,0,.181-.63l.05.053c-.861-.055-1.714-.1-2.548-.111a8.113,8.113,0,0,0-1.225.048.343.343,0,0,0-.109.038.21.21,0,0,0-.025.111.894.894,0,0,0,.063.277,3.231,3.231,0,0,0,.265.525v.025c.038.653.065,1.3.067,1.928a8.807,8.807,0,0,1-.036.943,1.878,1.878,0,0,1-.342.868,5.321,5.321,0,0,1-.582.693c-.21.21-.42.42-.63.62a6.793,6.793,0,0,0-.605.6,3.3,3.3,0,0,0-.45.687,5.532,5.532,0,0,0-.46,1.51,3.6,3.6,0,0,0,0,.752c.017.246.05.489.084.727a26.391,26.391,0,0,0,.576,2.6c.42,1.563.815,2.794,1.086,3.641q.208.63.319.966c.036.107.061.191.082.25a.538.538,0,0,1,.025.086.617.617,0,0,1-.034-.082l-.092-.248c-.078-.21-.191-.542-.334-.962-.284-.84-.691-2.069-1.12-3.634a26.533,26.533,0,0,1-.588-2.6c-.036-.239-.069-.483-.088-.735a3.492,3.492,0,0,1,0-.769,5.618,5.618,0,0,1,.464-1.538,3.408,3.408,0,0,1,.46-.708,6.67,6.67,0,0,1,.611-.607c.21-.2.42-.405.62-.618a5.249,5.249,0,0,0,.571-.683,1.78,1.78,0,0,0,.324-.824,9.06,9.06,0,0,0,.034-.931c0-.63-.032-1.271-.069-1.922v.025a3.1,3.1,0,0,1-.277-.546,1.065,1.065,0,0,1-.069-.313.286.286,0,0,1,.048-.176.311.311,0,0,1,.17-.078,8.016,8.016,0,0,1,1.25-.05c.84.013,1.681.055,2.555.111h.086v.052a1.746,1.746,0,0,1-.191.685,2.259,2.259,0,0,1-.124.21v-.027c-.025.905-.053,1.8-.015,2.678q.007.162.029.323a.682.682,0,0,0,.032.143c.027.042.055.084.088.128.128.172.267.34.4.508.271.338.54.672.8,1.01a13.5,13.5,0,0,1,1.372,2.084,2.056,2.056,0,0,1,.25,1.178,10.564,10.564,0,0,1-.088,1.166c-.176,1.523-.435,2.941-.674,4.235s-.485,2.477-.71,3.515v.029h-.029l-4.162-.019h-1.384Z" transform="translate(-175.639 -371.371)" fill="#263238"/>
      <path id="Path_89420" data-name="Path 89420" d="M186.422,423.037a40.921,40.921,0,0,0,1.281-7.3.926.926,0,0,0-.191-.794c-.26-.227-.658-.105-.987,0a5.972,5.972,0,0,1-3,.16,7.926,7.926,0,0,0-2.905-.481.926.926,0,0,0-.641.338,1.151,1.151,0,0,0-.076.823,58.45,58.45,0,0,0,1.8,7.258Z" transform="translate(-178.979 -404.437)" fill="#75a0ff"/>
      <path id="Path_89421" data-name="Path 89421" d="M190.193,417.687a1.129,1.129,0,0,1-.183.2,4.5,4.5,0,0,1-.58.464,5.145,5.145,0,0,1-4.7.59,4.436,4.436,0,0,1-.676-.307,1.02,1.02,0,0,1-.227-.149c0-.019.34.187.929.384a5.359,5.359,0,0,0,4.622-.582A8.824,8.824,0,0,0,190.193,417.687Z" transform="translate(-182.109 -406.89)" fill="#fff"/>
    </g>
  </g>
</svg>
