<svg xmlns="http://www.w3.org/2000/svg" width="20" height="20" viewBox="0 0 20 20" fill="none">
<circle cx="10" cy="10" r="10" fill="#414042"/>
<path d="M11.9431 4.64303C11.2859 4.65204 10.391 5.16512 9.86288 5.5491L10.1202 4.19639C10.1202 4.078 10.0721 3.96446 9.98669 3.88075C9.90123 3.79703 9.78533 3.75 9.66447 3.75C9.54362 3.75 9.42773 3.79703 9.34228 3.88075C9.25682 3.96446 9.20881 4.078 9.20881 4.19639V5.24605C8.6807 4.86278 6.95975 4.75077 6.67341 4.75979C6.28315 4.8139 4.17436 6.03394 3.77416 9.20973C3.71505 9.67796 3.71021 12.4672 4.4183 13.7544C5.18115 15.1408 6.21313 16.25 7.38587 16.25C8.24549 16.2299 9.06311 15.8817 9.66447 15.2796C10.2659 15.8817 11.0835 16.2299 11.9431 16.25C14.2047 16.25 15.7183 13.6931 16.2016 10.5069C16.6815 7.34085 13.471 4.63401 11.9431 4.64303ZM11.9569 15.585C11.1916 15.543 10.4714 14.9426 10.015 14.3396C9.97676 14.2945 9.92982 14.2573 9.87687 14.2299C9.82392 14.2026 9.76598 14.1858 9.70639 14.1804C9.6468 14.1751 9.58672 14.1812 9.52957 14.1986C9.47241 14.216 9.41931 14.2442 9.3733 14.2817C9.35176 14.2991 9.33197 14.3185 9.31418 14.3396C8.85754 14.9426 7.95419 15.8271 7.18892 15.8691C6.4801 15.9954 4.63416 13.2135 4.63416 10.5057C4.63416 7.79792 5.99222 5.70383 6.57216 5.64071C7.78341 5.2254 8.85754 5.95065 9.31418 6.55367C9.39773 6.64465 9.51473 6.69941 9.63947 6.70591C9.76421 6.7124 9.88649 6.67011 9.97941 6.58832C9.99193 6.57743 10.0038 6.56586 10.015 6.55367C10.2405 6.25581 10.5301 6.0102 10.8633 5.83425C11.1965 5.65831 11.5651 5.55634 11.9431 5.53558C12.0213 5.45418 13.0533 5.68841 13.632 6.24326C14.5058 7.08075 15.4039 8.62237 15.4039 10.2513C15.4039 12.9594 13.7154 15.5853 11.9569 15.5853V15.585Z" fill="white"/>
<path d="M9.27122 9.41435C8.99994 9.14296 7.50874 10.3373 8.41254 11.0976C9.28744 11.8324 9.54359 9.68574 9.27122 9.41435Z" fill="white"/>
<path d="M10.1031 9.41435C10.3745 9.14296 11.8667 10.3373 10.9622 11.0976C10.088 11.8324 9.83196 9.68574 10.1031 9.41435Z" fill="white"/>
</svg>