<svg xmlns="http://www.w3.org/2000/svg" width="13.122" height="15.24" viewBox="0 0 13.122 15.24">
  <g id="Group_56519" data-name="Group 56519" transform="translate(-942.022 -126.805)">
    <path id="Path_87070" data-name="Path 87070" d="M955.142,158.487a1.785,1.785,0,0,0-1.784-1.778c-.383,0-.765,0-1.148,0a.6.6,0,1,0-.005,1.19c.373,0,.745,0,1.118,0a.594.594,0,0,1,.627.625q0,5.209,0,10.417a.594.594,0,0,1-.627.625h-9.481a.593.593,0,0,1-.626-.626q0-5.209,0-10.417a.593.593,0,0,1,.628-.624c.378,0,.755,0,1.133,0a.6.6,0,1,0-.007-1.19q-.574,0-1.148,0a1.786,1.786,0,0,0-1.8,1.794q0,5.231,0,10.462a1.734,1.734,0,0,0,1.02,1.619c.159.082.337.1.5.174h10.048c.008-.023.027-.023.047-.026a1.777,1.777,0,0,0,1.5-1.753Q955.146,163.733,955.142,158.487Z" transform="translate(0 -28.713)" fill=""/>
    <path id="Path_87071" data-name="Path 87071" d="M1096.135,243.549h-3.472a.6.6,0,1,0,0,1.19h3.472a.6.6,0,1,0,0-1.19Z" transform="translate(-144.028 -111.1)" fill=""/>
    <path id="Path_87072" data-name="Path 87072" d="M1096.144,333.361h-3.487a.6.6,0,1,0,0,1.19h3.487a.6.6,0,1,0,0-1.19Z" transform="translate(-144.029 -196.34)" fill=""/>
    <path id="Path_87074" data-name="Path 87074" d="M1062.667,129.186c.382,0,.765,0,1.147,0s.794,0,1.192,0a.594.594,0,1,0,0-1.189c-.169,0-.338,0-.506,0-.07,0-.094-.017-.092-.09.005-.168,0-.337,0-.505a.6.6,0,0,0-1.191,0c0,.168,0,.337,0,.506,0,.071-.018.094-.091.092-.154-.005-.308,0-.462,0a.6.6,0,1,0,0,1.19Z" transform="translate(-115.231)" fill=""/>
    <path id="Path_87075" data-name="Path 87075" d="M1002.188,214.373a.591.591,0,0,0,.009.852c.19.2.385.387.579.579a.6.6,0,0,0,.866-.008c.387-.385.775-.769,1.158-1.158a.6.6,0,1,0-.85-.835c-.195.191-.387.385-.58.578-.161.161-.161.161-.328,0A.6.6,0,0,0,1002.188,214.373Z" transform="translate(-57.604 -82.347)" fill=""/>
    <path id="Path_87076" data-name="Path 87076" d="M1002.775,305.579a.585.585,0,0,0,.853.006c.4-.391.8-.79,1.191-1.188a.609.609,0,0,0,.176-.433.582.582,0,0,0-.348-.525.575.575,0,0,0-.661.109c-.2.2-.4.4-.6.6-.173.172-.173.172-.349.009a.6.6,0,0,0-.844-.007.591.591,0,0,0,0,.852Q1002.479,305.295,1002.775,305.579Z" transform="translate(-57.603 -167.552)" fill=""/>
  </g>
</svg>
