<svg xmlns="http://www.w3.org/2000/svg" width="11.331" height="11.307" viewBox="0 0 11.331 11.307">
  <g id="Group_56575" data-name="Group 56575" transform="translate(-1005.069 -133.835)">
    <path id="Path_87097" data-name="Path 87097" d="M1010.626,143.552q-1.643,0-3.286,0a1.328,1.328,0,0,1-1.385-1.381c0-1.262,0-2.525,0-3.787,0-.113.029-.135.138-.135q4.552,0,9.1,0a.449.449,0,0,0,.5-.5c0-.28,0-.559,0-.839a2.214,2.214,0,0,0-1.682-2.132,3.308,3.308,0,0,0-.879-.062c-.079,0-.1-.02-.1-.1.007-.117,0-.235,0-.353a.442.442,0,0,0-.884.005c0,.114-.006.229,0,.342.005.081-.016.1-.1.1-.579,0-1.158,0-1.737,0-.538,0-1.077,0-1.615,0-.072,0-.095-.018-.091-.091.006-.117,0-.235,0-.353a.442.442,0,1,0-.884,0c0,.118,0,.236,0,.353,0,.065-.011.091-.083.087-.121-.007-.243,0-.365,0a2.214,2.214,0,0,0-2.15,1.7.852.852,0,0,1-.059.24v5.83c.022.008.019.028.022.046a2.21,2.21,0,0,0,2.242,1.9h3.286a.447.447,0,0,0,.445-.3A.442.442,0,0,0,1010.626,143.552Zm-4.554-7.171a1.352,1.352,0,0,1,1.366-.777c.287-.012.287-.012.287.274,0,.048,0,.1,0,.143a.443.443,0,1,0,.885-.005c0-.114,0-.228,0-.342,0-.057.013-.075.073-.075q1.7,0,3.4,0c.056,0,.077.014.075.073,0,.125,0,.25,0,.375a.442.442,0,0,0,.884,0c0-.125,0-.25,0-.375,0-.038,0-.073.054-.07a3.34,3.34,0,0,1,.7.04,1.328,1.328,0,0,1,1.012,1.287c0,.118,0,.236,0,.353,0,.076-.024.1-.093.088a.143.143,0,0,0-.022,0h-7.753c-.033,0-.066,0-.1,0l-.817,0c-.031,0-.069.009-.069-.044A2.167,2.167,0,0,1,1006.071,136.381Z" transform="translate(0)"/>
    <path id="Path_87098" data-name="Path 87098" d="M1184.964,310.291a.44.44,0,0,0-.851.023,1.083,1.083,0,0,0-.013.241,7.615,7.615,0,0,1-.024.98,1.326,1.326,0,0,1-2.549.224,2.654,2.654,0,0,1-.083-.895c0-.065.05-.063.091-.073a2.091,2.091,0,0,0,.581-.237,2.161,2.161,0,0,0,1.078-1.634,8.611,8.611,0,0,0,.017-1.191.424.424,0,0,0-.441-.406q-.437,0-.874,0a.441.441,0,1,0,0,.882q.182,0,.365,0c.049,0,.076.01.073.067a4.667,4.667,0,0,1-.021.605,1.327,1.327,0,0,1-2.487.379,2.017,2.017,0,0,1-.147-1c0-.058.045-.047.079-.048.125,0,.251,0,.376,0a.44.44,0,0,0,0-.88c-.306-.006-.612-.005-.918,0a.418.418,0,0,0-.423.4,9.474,9.474,0,0,0,.015,1.191,2.194,2.194,0,0,0,1.645,1.869c.089.022.107.058.107.141a4.4,4.4,0,0,0,.016.639,2.189,2.189,0,0,0,1.4,1.8c.163.069.341.08.5.147h.553c.081-.024.167-.013.248-.034a2.181,2.181,0,0,0,1.3-.867,2.056,2.056,0,0,0,.4-1.021v-1.259A.189.189,0,0,1,1184.964,310.291Z" transform="translate(-168.585 -168.366)"/>
    <path id="Path_87099" data-name="Path 87099" d="M1065.5,313.4a.441.441,0,1,0,.442.442A.442.442,0,0,0,1065.5,313.4Z" transform="translate(-58.216 -174.265)"/>
    <path id="Path_87100" data-name="Path 87100" d="M1125.47,313.4a.441.441,0,1,0,.446.437A.442.442,0,0,0,1125.47,313.4Z" transform="translate(-116.421 -174.264)"/>
    <path id="Path_87101" data-name="Path 87101" d="M1065.493,373.254a.441.441,0,1,0,.447.437A.442.442,0,0,0,1065.493,373.254Z" transform="translate(-58.216 -232.352)"/>
    <path id="Path_87102" data-name="Path 87102" d="M1125.476,373.255a.441.441,0,1,0,.44.444A.442.442,0,0,0,1125.476,373.255Z" transform="translate(-116.422 -232.353)"/>
  </g>
</svg>
