<svg id="Group_56390" data-name="Group 56390" xmlns="http://www.w3.org/2000/svg" width="17.933" height="25.462" viewBox="0 0 17.933 25.462">
  <path id="Path_86280" data-name="Path 86280" d="M1220.323,430.078a.993.993,0,0,0-1.007,1.058c0,.538.023,1.078-.007,1.615a1.175,1.175,0,0,0,.753,1.3h.448c.648-.275.8-.505.8-1.233,0-.563,0-1.126,0-1.689A.993.993,0,0,0,1220.323,430.078Z" transform="translate(-1211.346 -408.594)" fill="#f2903c"/>
  <path id="Path_86281" data-name="Path 86281" d="M1169.257,117.683a4.563,4.563,0,0,0-.406-1.929,4.881,4.881,0,0,0-4.018-2.975c-.028-.036-.094-.029-.1-.088a.834.834,0,0,0,.1-.007,2.979,2.979,0,0,0,.831-5.572,2.942,2.942,0,0,0-3.414.462,2.821,2.821,0,0,0-.808,3.084,2.864,2.864,0,0,0,2.379,2.034l-.1.084h0c-.1.011-.2.015-.3.034a5.1,5.1,0,0,0-4.026,4.079,15.051,15.051,0,0,0-.087,2.926.948.948,0,0,0,.954.874c.274.008.548.012.822,0,.162-.008.208.039.207.2-.009.787,0,1.575,0,2.362a2.806,2.806,0,0,0,.079.689,2.987,2.987,0,0,0,5.9-.708c0-.779,0-1.558,0-2.337,0-.154.027-.221.2-.21.248.016.5.006.747,0a1,1,0,0,0,1.049-1.044C1169.26,118.992,1169.259,118.338,1169.257,117.683Zm-5.977-7.929a1,1,0,1,1,1,.993A1,1,0,0,1,1163.281,109.754Zm3.839,8.951c-.257,0-.514,0-.771,0a1,1,0,0,0-1.075,1.066c0,1.167,0,2.334,0,3.5a.98.98,0,0,1-.769.973.99.99,0,0,1-1.1-.488,1.146,1.146,0,0,1-.125-.574q0-1.838,0-3.675a1.043,1.043,0,0,0-1.182-.8c-.2,0-.4-.008-.6,0-.151.008-.212-.023-.215-.2a4.059,4.059,0,0,1,.426-2.211,2.887,2.887,0,0,1,2.734-1.567,1.944,1.944,0,0,1,.243.038,3,3,0,0,1,2.534,2.417,11.923,11.923,0,0,1,.049,1.388C1167.271,118.689,1167.218,118.706,1167.119,118.7Z" transform="translate(-1155.31 -106.766)" fill="#f2903c"/>
  <path id="Path_86282" data-name="Path 86282" d="M1102.505,370.161q-1-.011-1.991,0a.993.993,0,1,0,0,1.986c.332.006.664,0,1,0s.664.005,1,0a.993.993,0,1,0,0-1.986Z" transform="translate(-1099.518 -352.653)" fill="#f2903c"/>
  <path id="Path_86283" data-name="Path 86283" d="M1312.417,370.161q-1-.011-1.991,0a.993.993,0,1,0,0,1.986c.332.006.664,0,1,0s.664,0,1,0a.993.993,0,1,0,0-1.986Z" transform="translate(-1295.479 -352.653)" fill="#f2903c"/>
</svg>
