<svg xmlns="http://www.w3.org/2000/svg" width="20" height="20" viewBox="0 0 20 20" fill="none">
<circle cx="10" cy="10" r="10" fill="#414042"/>
<path d="M14.8805 9.76693L14.4269 7.12877C14.4045 6.99832 14.3488 6.87684 14.2658 6.77742C14.1829 6.678 14.0758 6.60442 13.9562 6.56463L14.2946 5.66972C14.3315 5.57337 14.3378 5.46698 14.3128 5.36647C14.2877 5.26596 14.2325 5.17674 14.1555 5.11215L12.9891 4.1254L11.1913 1.51122C11.0769 1.3449 10.9253 1.21122 10.75 1.12223C10.5747 1.03323 10.3812 0.991704 10.187 1.00137C9.9927 1.01104 9.80377 1.07161 9.63714 1.17762C9.47051 1.28364 9.33141 1.43178 9.23234 1.60873L7.54753 2.2478C7.44611 2.28613 7.36074 2.36111 7.30651 2.45951C7.25228 2.55792 7.23266 2.67342 7.25112 2.78563L7.27505 2.93222L6.9738 3.38986C6.90003 3.50224 6.86328 3.63718 6.86922 3.77385C6.87516 3.91051 6.92347 4.04131 7.00669 4.14607L7.30679 4.52282V5.50412L6.62326 6.06628L5.67755 6.84426C5.27356 7.17652 5.00912 7.66325 4.94118 8.19966C4.87324 8.73606 5.00725 9.27923 5.31433 9.71218L5.48757 9.95638C5.50902 10.1241 5.53615 10.2923 5.56834 10.4576C5.73798 11.32 6.0512 12.1437 6.4934 12.8903H4.23241C4.02494 12.8907 3.82117 12.9484 3.64121 13.0575C3.46124 13.1667 3.3113 13.3236 3.20619 13.5127L3.1632 13.5904C3.01492 13.8577 2.96536 14.1735 3.02407 14.4772C3.08277 14.7808 3.24559 15.0507 3.48119 15.235C3.94606 15.6 4.46571 15.8796 5.01838 16.0622C5.03734 16.2377 5.11675 16.3997 5.24145 16.5172C5.36615 16.6347 5.52741 16.6996 5.69445 16.6994H7.32764C7.69529 16.6991 8.05121 16.5625 8.33344 16.3134L8.33631 16.3107C8.79331 16.2931 9.23618 16.1386 9.61344 15.8653C10.6886 16.455 11.8695 16.7976 13.0786 16.8708L15.2302 16.9972C15.2621 16.999 15.2939 17 15.3256 17C15.5651 17.0005 15.8019 16.9463 16.0198 16.8412C16.2378 16.7361 16.4317 16.5826 16.5884 16.3911C16.797 16.1366 16.9331 15.8248 16.9809 15.4918C17.0287 15.1588 16.9863 14.8184 16.8585 14.5099L14.8805 9.76693ZM13.9123 7.22766L14.3277 9.64319L13.6314 9.82721L13.2632 9.56759C13.1775 9.50719 13.1136 9.41794 13.0818 9.31432C13.0501 9.2107 13.0524 9.09878 13.0884 8.99672L13.271 8.62093C13.4754 8.19946 13.5821 7.73271 13.5826 7.25908C13.5826 7.21522 13.5981 7.17295 13.6261 7.14058C13.6541 7.10821 13.6925 7.08807 13.7338 7.08414C13.7751 7.0802 13.8163 7.09274 13.8493 7.1193C13.8823 7.14586 13.9047 7.18451 13.9122 7.22766H13.9123ZM11.0354 6.29786C11.0856 6.52509 11.0865 6.76138 11.038 6.98904C10.9896 7.21669 10.8931 7.42981 10.7557 7.61243C10.6199 7.79295 10.4471 7.93864 10.2505 8.0386C10.0538 8.13856 9.83836 8.1902 9.62018 8.18967H9.14536L9.38022 7.19617C9.73431 6.6188 9.92243 5.94523 9.92178 5.25708V4.94811L10.4967 3.93456L11.3518 4.83874C11.1643 5.01855 11.0334 5.25483 10.9768 5.51572C10.9203 5.77661 10.9407 6.04957 11.0354 6.29779V6.29786ZM9.62018 8.74253C9.91682 8.74329 10.2098 8.67311 10.4771 8.53723C10.7445 8.40136 10.9794 8.20331 11.1641 7.95791C11.3536 7.70609 11.4858 7.41166 11.5507 7.09729C11.6156 6.78291 11.6114 6.45698 11.5384 6.1446C11.5351 6.13052 11.5307 6.11673 11.5253 6.10337C11.4679 5.96036 11.4536 5.8021 11.4844 5.65017C11.5151 5.49825 11.5895 5.36006 11.6972 5.25446L12.3276 6.14326C12.3425 6.16421 12.3601 6.18283 12.3799 6.19856L13.187 6.83867C13.1043 6.96138 13.0598 7.10835 13.0598 7.25908C13.0594 7.64478 12.9724 8.02489 12.806 8.36812L12.6171 8.75677C12.6133 8.76451 12.6099 8.77239 12.6069 8.78048C12.5233 9.00128 12.5142 9.24575 12.5809 9.47286C12.6476 9.69997 12.7862 9.8959 12.9734 10.0278L13.335 10.2827L13.4564 11.5661C13.5382 12.4367 13.761 13.286 14.115 14.0768L11.6764 13.2172L11.5097 12.8645C11.3144 12.453 11.03 12.096 10.6798 11.8225C10.3296 11.5489 9.92328 11.3666 9.49391 11.2902L9.28382 11.2531L8.88569 10.6918C8.80776 10.5824 8.75399 10.4558 8.72834 10.3215C8.70269 10.1873 8.7058 10.0486 8.73745 9.91573L8.99895 8.80965L9.01484 8.7426L9.62018 8.74253ZM7.40306 3.70571L7.76562 3.15495C7.80493 3.09526 7.82041 3.02159 7.80871 2.94992L7.77582 2.74868L8.91223 2.31772L7.82979 4.77044V4.42193C7.82979 4.35675 7.80801 4.29367 7.7683 4.24381L7.40672 3.78974C7.39745 3.77811 7.39207 3.76357 7.39141 3.74838C7.39075 3.73319 7.39484 3.71819 7.40306 3.70571ZM7.04529 6.41977L7.67943 5.89829C7.91632 5.70303 8.10617 5.45129 8.23348 5.16362L9.65146 1.95054C9.69935 1.84196 9.77321 1.74847 9.86573 1.67931C9.95825 1.61015 10.0662 1.56772 10.179 1.5562C10.2918 1.54468 10.4055 1.56447 10.5088 1.61363C10.6121 1.66278 10.7015 1.7396 10.7682 1.83648L12.5868 4.48069C12.6005 4.50065 12.6167 4.51857 12.6349 4.53399L13.7909 5.51193L13.4667 6.36914L12.7236 5.77977L11.9615 4.70536C11.9606 4.70415 11.9595 4.70311 11.9587 4.7019C11.9522 4.69301 11.9452 4.68453 11.9378 4.6765L11.9372 4.67574L11.9368 4.67532L11.9357 4.67408L10.6297 3.29314C10.6016 3.26343 10.5675 3.24088 10.5299 3.2272C10.4923 3.21353 10.4523 3.20909 10.4128 3.21422C10.3734 3.21936 10.3356 3.23393 10.3023 3.25684C10.2689 3.27974 10.241 3.31037 10.2205 3.34641L9.43605 4.729C9.41166 4.77198 9.39878 4.82115 9.39878 4.87127V5.25684C9.39933 5.85243 9.23259 6.43477 8.91972 6.93002C8.90314 6.95643 8.89098 6.98566 8.88376 7.01643L8.54097 8.46601H7.90899C7.67993 8.46601 7.46025 8.36979 7.29827 8.19852C7.1363 8.02725 7.0453 7.79496 7.04529 7.55274V6.41977ZM5.99727 9.81425C5.99165 9.76649 5.97432 9.72111 5.94699 9.68262L5.73256 9.38029C5.50775 9.06332 5.40965 8.66568 5.45939 8.27298C5.50913 7.88029 5.70272 7.52395 5.99848 7.28071L6.52229 6.8499V7.55267C6.52229 7.74524 6.55815 7.93592 6.62784 8.11383C6.69753 8.29174 6.79967 8.45339 6.92844 8.58955C7.0572 8.72572 7.21007 8.83373 7.37832 8.90743C7.54656 8.98112 7.72688 9.01905 7.90899 9.01905H8.41022L8.27022 9.61118L6.03319 10.0764C6.01959 9.98908 6.00769 9.90152 5.99727 9.81432V9.81425ZM6.1391 10.6179L8.1886 10.1917C8.19856 10.4926 8.29575 10.783 8.467 11.0235L8.76903 11.4493L7.04683 12.7775C6.62884 12.1183 6.32175 11.3877 6.1391 10.618V10.6179ZM5.18979 15.4538L5.15177 15.5268C4.6634 15.3625 4.20416 15.1137 3.79273 14.7906C3.66078 14.6874 3.56959 14.5362 3.53671 14.3662C3.50383 14.1961 3.53159 14.0192 3.61465 13.8695L3.65763 13.7918C3.71652 13.6859 3.80051 13.598 3.90131 13.5369C4.0021 13.4758 4.11622 13.4436 4.23241 13.4433H6.85548C6.96955 13.6013 7.08997 13.7556 7.2153 13.9028C7.49041 14.2261 7.78731 14.5278 8.10368 14.8056C7.97471 14.7518 7.83514 14.7324 7.6974 14.7494L6.89849 14.8479H6.1593C5.9612 14.8479 5.76674 14.9041 5.5962 15.0107C5.42567 15.1173 5.28531 15.2703 5.18979 15.4538ZM8.11061 15.6597C8.10723 15.7039 8.09553 15.747 8.0762 15.7863C8.05687 15.8257 8.03029 15.8606 7.99803 15.8889C7.80992 16.055 7.57269 16.146 7.32764 16.1462H5.69445C5.66691 16.1462 5.63985 16.1386 5.61593 16.1241C5.59201 16.1097 5.57206 16.0889 5.55805 16.0639C5.54404 16.0388 5.53644 16.0103 5.53602 15.9812C5.53559 15.9521 5.54235 15.9233 5.55563 15.8978L5.64813 15.7205C5.69851 15.6237 5.77254 15.543 5.86248 15.4868C5.95242 15.4305 6.05498 15.4009 6.15946 15.4009H6.91386C6.92397 15.4009 6.93408 15.4003 6.94412 15.399L7.75804 15.2988C7.80469 15.293 7.85197 15.2983 7.89645 15.3143C7.94094 15.3302 7.98152 15.3564 8.01526 15.3909C8.04901 15.4255 8.07507 15.4675 8.09157 15.514C8.10807 15.5605 8.11459 15.6103 8.11067 15.6598L8.11061 15.6597ZM8.63053 15.7182C8.63089 15.7142 8.63145 15.7101 8.63177 15.706C8.64903 15.4964 8.59479 15.2873 8.47886 15.1163C8.67584 15.2703 8.87914 15.4154 9.08878 15.5514C8.94341 15.6275 8.7894 15.6836 8.63053 15.7182ZM16.194 16.0277C16.0789 16.1684 15.9347 16.2791 15.7726 16.3515C15.6105 16.4238 15.4348 16.4557 15.2592 16.4449L13.1076 16.3185C11.9196 16.2469 10.7613 15.8981 9.71592 15.2972L9.71448 15.2964C8.92153 14.8393 8.20786 14.243 7.60398 13.5329C7.5188 13.4328 7.43594 13.3294 7.35608 13.2235L9.2026 11.7995L9.40761 11.8356C9.75566 11.8975 10.085 12.0454 10.3689 12.2671C10.6528 12.4888 10.8833 12.7782 11.0416 13.1118L11.2568 13.567C11.2721 13.5995 11.2934 13.6284 11.3193 13.6522C11.3453 13.676 11.3754 13.6942 11.408 13.7057L14.546 14.8118C14.595 14.8291 14.6479 14.8306 14.6977 14.8162C14.7476 14.8017 14.7923 14.7719 14.8262 14.7306C14.8601 14.6893 14.8817 14.6383 14.8881 14.584C14.8946 14.5298 14.8857 14.4747 14.8626 14.4258L14.6526 13.9817C14.2866 13.2087 14.0575 12.3714 13.9767 11.5112L13.8655 10.3356L14.4785 10.1735L16.38 14.733C16.4679 14.9453 16.4971 15.1796 16.4642 15.4088C16.4313 15.638 16.3376 15.8526 16.194 16.0277Z" fill="white"/>
</svg>