<svg id="Group_56413" data-name="Group 56413" xmlns="http://www.w3.org/2000/svg" width="13.692" height="17.957" viewBox="0 0 13.692 17.957">
  <path id="Path_86485" data-name="Path 86485" d="M1090.237,394.417c-.627,0-1.253,0-1.88,0-.129,0-.166-.027-.165-.161.007-.771,0-1.543,0-2.315a.791.791,0,0,0-.087-.388.7.7,0,0,0-.774-.349.691.691,0,0,0-.545.685c0,.789-.005,1.578,0,2.367,0,.135-.037.162-.165.16-.65-.007-1.3-.006-1.95,0a.7.7,0,0,0-.692.582.71.71,0,0,0,.459.78c.032.012.063.026.095.04h5.9a.112.112,0,0,1,.027-.021.7.7,0,0,0-.236-1.382Z" transform="translate(-1080.652 -377.864)" fill="#ffbc60"/>
  <path id="Path_86486" data-name="Path 86486" d="M1026.641,111.814a1.992,1.992,0,0,0-1.634-1.416c-.6-.107-1.2-.19-1.8-.271a.756.756,0,0,1-.623-.447q-.368-.755-.743-1.507a2.119,2.119,0,0,0-3.857,0q-.373.753-.743,1.507a.719.719,0,0,1-.555.435c-.492.075-.984.145-1.476.214a2.925,2.925,0,0,0-1.057.293,2.1,2.1,0,0,0-.439,3.352c.419.417.846.826,1.27,1.237a.719.719,0,0,1,.229.682c-.084.465-.159.932-.24,1.4a3.039,3.039,0,0,0-.07,1.044,2.106,2.106,0,0,0,3.084,1.536c.5-.258,1.007-.52,1.5-.792a.807.807,0,0,1,.832-.007c.5.273,1.013.535,1.52.8a2.058,2.058,0,0,0,.993.249,2.1,2.1,0,0,0,2.08-2.452c-.1-.581-.192-1.164-.3-1.744a.766.766,0,0,1,.252-.741c.436-.416.877-.828,1.292-1.264A1.992,1.992,0,0,0,1026.641,111.814Zm-1.5,1.143c-.381.38-.758.765-1.157,1.126a2.236,2.236,0,0,0-.723,2.28c.106.5.18,1,.264,1.5a.684.684,0,0,1-.28.725.694.694,0,0,1-.777.031c-.5-.263-.994-.518-1.488-.782a2.139,2.139,0,0,0-2.143,0c-.339.182-.684.354-1.026.53-.158.086-.315.175-.475.258a.706.706,0,0,1-1.038-.753c.07-.432.148-.862.223-1.293a3.1,3.1,0,0,0,.06-1.3,2.168,2.168,0,0,0-.595-1.052c-.413-.405-.827-.81-1.245-1.211a.7.7,0,0,1-.227-.773.708.708,0,0,1,.645-.485c.6-.079,1.192-.166,1.785-.267a2.029,2.029,0,0,0,1.528-1.138c.26-.509.515-1.021.76-1.537a.72.72,0,0,1,1.383.074c.21.416.438.824.625,1.249a2.274,2.274,0,0,0,2.006,1.418c.5.05,1,.137,1.493.212a.669.669,0,0,1,.567.462A.657.657,0,0,1,1025.136,112.958Z" transform="translate(-1013.067 -106.933)" fill="#ffbc60"/>
  <path id="Path_86487" data-name="Path 86487" d="M1106.381,200.271a.705.705,0,0,0-.834.228,3.625,3.625,0,0,1-.937.833,7.216,7.216,0,0,1-.693.335.683.683,0,0,0-.389.765.7.7,0,0,0,.71.564.672.672,0,0,0,.1-.007.825.825,0,0,0,.135-.038,4.892,4.892,0,0,0,2.151-1.542.787.787,0,0,0,.193-.442A.7.7,0,0,0,1106.381,200.271Z" transform="translate(-1099.273 -195.843)" fill="#ffbc60"/>
</svg>
