<svg xmlns="http://www.w3.org/2000/svg" width="184.623" height="130.849" viewBox="0 0 184.623 130.849">
  <g id="Group_55893" data-name="Group 55893" transform="translate(-5390.188 -5418)">
    <path id="Path_84602" data-name="Path 84602" d="M1142.981,1345.44h-116.7a27.15,27.15,0,0,1-27.119-27.119l-6.844-76.609a27.149,27.149,0,0,1,27.119-27.12h130.382a27.151,27.151,0,0,1,27.121,27.12l-6.844,76.608A27.152,27.152,0,0,1,1142.981,1345.44Z" transform="translate(4397.868 4203.409)" fill="#f0f0f0" fill-rule="evenodd"/>
    <path id="Path_84603" data-name="Path 84603" d="M1428.265,1214.591h99.252q.071,1.325.073,2.672a49.7,49.7,0,1,1-99.4,0Q1428.193,1215.919,1428.265,1214.591Z" transform="translate(4003.996 4264.87)" fill="#d6d6d6" fill-rule="evenodd"/>
    <path id="Path_84604" data-name="Path 84604" d="M1428.265,1214.591h99.252q.071,1.325.073,2.672a49.7,49.7,0,1,1-99.4,0Q1428.193,1215.919,1428.265,1214.591Z" transform="translate(6959.777 6699.237) rotate(180)" fill="#d6d6d6" fill-rule="evenodd"/>
    <path id="Path_84605" data-name="Path 84605" d="M1510.776,862.329a46.134,46.134,0,1,1,46.135-46.135A46.186,46.186,0,0,1,1510.776,862.329Z" transform="translate(3971.109 4665.939)" fill="#ffb46c" fill-rule="evenodd"/>
    <path id="Path_84606" data-name="Path 84606" d="M1543.654,806.511a42.57,42.57,0,1,1-42.57,42.57A42.616,42.616,0,0,1,1543.654,806.511Z" transform="translate(3938.231 4633.053)" fill="#fff" fill-rule="evenodd" opacity="0.392"/>
    <path id="Path_84607" data-name="Path 84607" d="M1560.1,824.735a40.789,40.789,0,1,0,40.788,40.789A40.835,40.835,0,0,0,1560.1,824.735Z" transform="translate(3921.788 4616.61)" fill="#fff" fill-rule="evenodd"/>
  </g>
</svg>
