<svg xmlns="http://www.w3.org/2000/svg" width="19.781" height="25.943" viewBox="0 0 19.781 25.943">
  <g id="Group_56413" data-name="Group 56413" transform="translate(-1013.067 -106.933)">
    <path id="Path_86485" data-name="Path 86485" d="M1093.021,395.853c-.905,0-1.81-.006-2.715,0-.186,0-.24-.038-.238-.232.011-1.115,0-2.229.007-3.344a1.14,1.14,0,0,0-.125-.561,1.011,1.011,0,0,0-1.118-.5,1,1,0,0,0-.787.99c-.005,1.14-.007,2.28,0,3.42,0,.195-.053.234-.238.232-.939-.01-1.878-.009-2.817,0a1.01,1.01,0,0,0-1,.841,1.025,1.025,0,0,0,.663,1.127c.046.018.091.038.137.057h8.531a.165.165,0,0,1,.039-.03,1.015,1.015,0,0,0-.341-2Z" transform="translate(-66.107 -265.004)" fill="#ffbc60"/>
    <path id="Path_86486" data-name="Path 86486" d="M1032.679,113.986a2.878,2.878,0,0,0-2.362-2.046c-.865-.154-1.736-.274-2.607-.391a1.092,1.092,0,0,1-.9-.646q-.532-1.091-1.074-2.177a3.061,3.061,0,0,0-5.573,0c-.359.725-.719,1.45-1.074,2.177a1.039,1.039,0,0,1-.8.628c-.71.108-1.421.209-2.133.309a4.227,4.227,0,0,0-1.527.423,3.041,3.041,0,0,0-.634,4.842c.6.6,1.222,1.193,1.835,1.787a1.038,1.038,0,0,1,.33.985c-.121.672-.229,1.347-.347,2.02a4.386,4.386,0,0,0-.1,1.508,3.043,3.043,0,0,0,4.456,2.22c.729-.373,1.455-.751,2.173-1.144a1.166,1.166,0,0,1,1.2-.01c.727.394,1.463.772,2.2,1.156a2.972,2.972,0,0,0,1.435.36,3.034,3.034,0,0,0,3.006-3.543c-.142-.84-.277-1.681-.43-2.519a1.106,1.106,0,0,1,.364-1.07c.629-.6,1.268-1.2,1.867-1.827A2.878,2.878,0,0,0,1032.679,113.986Zm-2.174,1.652c-.551.549-1.095,1.105-1.671,1.626a3.23,3.23,0,0,0-1.045,3.293c.153.717.26,1.443.381,2.167a.989.989,0,0,1-.4,1.047,1,1,0,0,1-1.122.044c-.715-.379-1.436-.748-2.15-1.13a3.09,3.09,0,0,0-3.1.006c-.49.263-.988.511-1.482.766-.229.125-.456.252-.687.373a1.019,1.019,0,0,1-1.5-1.088c.1-.624.214-1.246.322-1.869a4.484,4.484,0,0,0,.087-1.879,3.132,3.132,0,0,0-.859-1.52c-.6-.585-1.194-1.171-1.8-1.749a1.006,1.006,0,0,1-.328-1.117,1.023,1.023,0,0,1,.932-.7c.862-.114,1.723-.24,2.579-.386a2.931,2.931,0,0,0,2.208-1.644c.376-.735.744-1.475,1.1-2.221a1.041,1.041,0,0,1,2,.107c.3.6.632,1.19.9,1.805a3.285,3.285,0,0,0,2.9,2.048c.722.073,1.439.2,2.156.306a.966.966,0,0,1,.819.668A.949.949,0,0,1,1030.5,115.637Z" transform="translate(0 0)" fill="#ffbc60"/>
    <path id="Path_86487" data-name="Path 86487" d="M1107.657,200.3a1.019,1.019,0,0,0-1.2.329,5.242,5.242,0,0,1-1.355,1.2,10.44,10.44,0,0,1-1,.484.987.987,0,0,0-.562,1.105,1.012,1.012,0,0,0,1.026.814.975.975,0,0,0,.141-.01,1.185,1.185,0,0,0,.195-.055,7.068,7.068,0,0,0,3.108-2.227,1.138,1.138,0,0,0,.278-.639A1.015,1.015,0,0,0,1107.657,200.3Z" transform="translate(-84.32 -86.966)" fill="#ffbc60"/>
  </g>
</svg>
