<svg xmlns="http://www.w3.org/2000/svg" width="17" height="15" viewBox="0 0 17 15">
  <path id="Arrow_-_Up_2" data-name="Arrow - Up 2" d="M10.1.554c.082.085.433.4.722.7a32.639,32.639,0,0,1,5.7,8.693A7.24,7.24,0,0,1,17,11.718a3.038,3.038,0,0,1-.309,1.343,2.709,2.709,0,0,1-1.281,1.192,13.3,13.3,0,0,1-1.507.384A32.115,32.115,0,0,1,8.511,15a37.124,37.124,0,0,1-5.226-.32,11.491,11.491,0,0,1-1.88-.511A2.7,2.7,0,0,1,0,11.8v-.085A7.628,7.628,0,0,1,.579,9.736,32.626,32.626,0,0,1,6.2,1.235,8.181,8.181,0,0,1,6.983.511,2.432,2.432,0,0,1,8.49,0,2.559,2.559,0,0,1,10.1.554" fill="#1eabac"/>
</svg>
