<svg xmlns="http://www.w3.org/2000/svg" width="23.286" height="23.276" viewBox="0 0 23.286 23.276">
  <g id="Group_56662" data-name="Group 56662" transform="translate(-1033.226 -106.232)">
    <path id="Path_87510" data-name="Path 87510" d="M1056.446,116.2a11.184,11.184,0,0,0-1.085-3.5,11.81,11.81,0,0,0-7.433-6.1,12.508,12.508,0,0,0-4.283-.323,10.68,10.68,0,0,0-4.159,1.228,11.681,11.681,0,0,0-3.618,2.918,11.558,11.558,0,0,0-2.442,4.986,13.451,13.451,0,0,0-.2,1.521v1.906c.047.229.03.463.059.693a11.15,11.15,0,0,0,1.1,3.557,11.783,11.783,0,0,0,8.029,6.221,14.035,14.035,0,0,0,1.454.2h1.91c.237-.043.48-.025.717-.055a11.268,11.268,0,0,0,3.485-1.05,11.718,11.718,0,0,0,3.835-2.992,11.536,11.536,0,0,0,2.531-5.228c.089-.429.11-.864.165-1.3V116.98C1056.461,116.722,1056.48,116.457,1056.446,116.2Zm-11.593,11.5a9.8,9.8,0,1,1,9.839-9.794A9.831,9.831,0,0,1,1044.853,127.692Z" fill="#676767"/>
    <path id="Path_87511" data-name="Path 87511" d="M1156.816,177.649a4.357,4.357,0,1,0-4.38-4.361A4.37,4.37,0,0,0,1156.816,177.649Zm-.023-6.9a2.541,2.541,0,1,1-2.537,2.545A2.551,2.551,0,0,1,1156.792,170.75Z" transform="translate(-111.978 -58.898)" fill="#676767"/>
    <path id="Path_87512" data-name="Path 87512" d="M1137.985,338.706a7,7,0,0,0-3.642-.761,11.837,11.837,0,0,0-1.248.035,6.679,6.679,0,0,0-4.517,2.424.848.848,0,0,0-.186.785.911.911,0,0,0,1.6.355,4.975,4.975,0,0,1,2.4-1.589,7.9,7.9,0,0,1,2.253-.2,4.952,4.952,0,0,1,4.019,1.8.908.908,0,1,0,1.385-1.174A6.744,6.744,0,0,0,1137.985,338.706Z" transform="translate(-89.367 -217.648)" fill="#676767"/>
  </g>
</svg>
