<svg xmlns="http://www.w3.org/2000/svg" width="11.741" height="15.232" viewBox="0 0 11.741 15.232">
  <g id="Group_55266" data-name="Group 55266" transform="translate(0 0)">
    <path id="Path_83508" data-name="Path 83508" d="M284.09,344.035a5,5,0,0,0-.1-.9,5.424,5.424,0,0,0-5.338-4.369,9.235,9.235,0,0,0-2.1.139,5.438,5.438,0,0,0-4.2,5.129.635.635,0,0,0,.475.74h.238a.656.656,0,0,0,.481-.725,2.378,2.378,0,0,1,.057-.576,4.142,4.142,0,0,1,2.965-3.336,6.271,6.271,0,0,1,2.789-.118,4.2,4.2,0,0,1,3.539,4.03.679.679,0,0,0,.483.724h.238A.633.633,0,0,0,284.09,344.035Z" transform="translate(-272.349 -329.543)" fill=""/>
    <path id="Path_83509" data-name="Path 83509" d="M321.319,114.866a4.016,4.016,0,1,0-4.023-4.017A4.027,4.027,0,0,0,321.319,114.866Zm.013-6.842a2.826,2.826,0,1,1-2.844,2.814A2.833,2.833,0,0,1,321.332,108.024Z" transform="translate(-315.509 -106.834)" fill=""/>
  </g>
</svg>
