<svg id="Group_48716" data-name="Group 48716" xmlns="http://www.w3.org/2000/svg" width="32" height="32.015" viewBox="0 0 32 32.015">
  <g id="Group_48682" data-name="Group 48682">
    <g id="Group_48681" data-name="Group 48681">
      <path id="Path_54675" data-name="Path 54675" d="M1565.19,855.106a16,16,0,0,0,18.792,25.141c-.129-.017-.257-.033-.388-.06a5.817,5.817,0,0,1-2.916-1.612l-.7-.7a7.21,7.21,0,0,0,1.679.061,10.785,10.785,0,0,0,2.3-.551,5.146,5.146,0,0,1,2.051-.362,3.9,3.9,0,0,1,.42.036,3.743,3.743,0,0,1,.913.252.969.969,0,0,0,1.058-.2h0a.969.969,0,0,0,.2-1.06,3.737,3.737,0,0,1-.251-.913,3.835,3.835,0,0,1-.036-.42,5.143,5.143,0,0,1,.362-2.051,10.769,10.769,0,0,0,.551-2.3,7.215,7.215,0,0,0-.061-1.679l.7.7a5.815,5.815,0,0,1,1.612,2.916c.029.14.046.277.064.414a16.006,16.006,0,0,0-26.348-17.614Zm21.226,20.782c-.124-.013-.249-.022-.376-.026a6.252,6.252,0,0,0-2.455.422,9.641,9.641,0,0,1-2.073.5,3.023,3.023,0,0,1-.405.018,5.594,5.594,0,0,1-3.867-1.665l-1.053-1.053a7.229,7.229,0,0,0,1.684.062,10.785,10.785,0,0,0,2.3-.551,5.148,5.148,0,0,1,2.051-.362,3.879,3.879,0,0,1,.417.035,4.21,4.21,0,0,1,2.381,1.221Zm-3.793-3.793c-.123-.013-.246-.022-.371-.025a6.255,6.255,0,0,0-2.455.422,9.633,9.633,0,0,1-2.073.5,3,3,0,0,1-.406.019,5.605,5.605,0,0,1-3.874-1.669l-1.051-1.051a7.235,7.235,0,0,0,1.69.062,10.781,10.781,0,0,0,2.3-.551,5.146,5.146,0,0,1,2.051-.362,3.9,3.9,0,0,1,.414.035,4.2,4.2,0,0,1,2.375,1.216Zm-3.763-3.822c-.122-.013-.246-.022-.371-.025a6.248,6.248,0,0,0-2.455.422,9.647,9.647,0,0,1-2.073.5,3.019,3.019,0,0,1-.406.018,5.605,5.605,0,0,1-3.874-1.669l-1.051-1.051a7.24,7.24,0,0,0,1.689.062,10.793,10.793,0,0,0,2.3-.551,5.144,5.144,0,0,1,2.051-.362,3.873,3.873,0,0,1,.415.035,4.194,4.194,0,0,1,2.375,1.216Zm-6.527-4.506a9.742,9.742,0,0,1-3.3-6.046,9.743,9.743,0,0,1,6.046,3.3c1.343,1.68.371,2.392,1.235,3.985C1574.726,864.139,1574.014,865.11,1572.334,863.767Zm14.09,2.186a5.6,5.6,0,0,1,1.666,3.867,3.039,3.039,0,0,1-.019.405,9.651,9.651,0,0,1-.5,2.073,6.248,6.248,0,0,0-.422,2.455c0,.127.013.252.026.376l-1.4-1.4a4.211,4.211,0,0,1-1.221-2.382,3.914,3.914,0,0,1-.035-.417,5.149,5.149,0,0,1,.362-2.051,10.775,10.775,0,0,0,.551-2.3,7.236,7.236,0,0,0-.062-1.684Zm-3.8-3.8a5.606,5.606,0,0,1,1.669,3.874,3,3,0,0,1-.019.406,9.63,9.63,0,0,1-.5,2.073,6.255,6.255,0,0,0-.422,2.455c0,.125.013.248.026.371l-1.4-1.4a4.194,4.194,0,0,1-1.216-2.375,3.9,3.9,0,0,1-.035-.414,5.142,5.142,0,0,1,.362-2.051,10.788,10.788,0,0,0,.551-2.3,7.227,7.227,0,0,0-.062-1.689Zm-3.763-3.822a5.606,5.606,0,0,1,1.669,3.874,3,3,0,0,1-.018.406,9.648,9.648,0,0,1-.5,2.073,6.244,6.244,0,0,0-.422,2.455c0,.125.013.249.026.371l-1.4-1.4a4.193,4.193,0,0,1-1.216-2.375,3.9,3.9,0,0,1-.035-.415,5.142,5.142,0,0,1,.362-2.051,10.8,10.8,0,0,0,.551-2.3,7.236,7.236,0,0,0-.062-1.689Z" transform="translate(-1561.115 -849.783)" fill="#0b5ed6"/>
    </g>
  </g>
</svg>
