<svg xmlns="http://www.w3.org/2000/svg" width="20.878" height="20.878" viewBox="0 0 20.878 20.878">
  <path id="Path_12774" data-name="Path 12774" d="M22.178,33.729a4.667,4.667,0,1,1-6.6-6.6L19.7,23a4.669,4.669,0,0,1,6.336-.251A.878.878,0,0,1,24.9,24.086a2.891,2.891,0,0,0-3.958.155l-4.125,4.125a2.917,2.917,0,0,0,4.125,4.125l3.919-3.919a.875.875,0,1,1,1.253,1.222l-.015.015ZM29.6,26.3a4.669,4.669,0,0,1-6.336.251.878.878,0,0,1,1.135-1.34l.006.005a2.891,2.891,0,0,0,3.958-.155l4.125-4.125a2.917,2.917,0,0,0-4.125-4.125l-3.919,3.919a.875.875,0,1,1-1.255-1.22l.017-.018,3.919-3.919a4.667,4.667,0,1,1,6.6,6.6Z" transform="translate(-14.214 -14.214)" fill="#01a3a4"/>
</svg>
