<svg xmlns="http://www.w3.org/2000/svg" xmlns:xlink="http://www.w3.org/1999/xlink" width="250.144" height="186.387" viewBox="0 0 250.144 186.387">
  <defs>
    <clipPath id="clip-path">
      <rect id="Rectangle_4283" data-name="Rectangle 4283" width="250.144" height="186.387" fill="none"/>
    </clipPath>
    <clipPath id="clip-path-3">
      <rect id="Rectangle_4279" data-name="Rectangle 4279" width="66.063" height="66.068" fill="none"/>
    </clipPath>
    <clipPath id="clip-path-4">
      <rect id="Rectangle_4280" data-name="Rectangle 4280" width="3.323" height="4.332" fill="none"/>
    </clipPath>
    <clipPath id="clip-path-5">
      <rect id="Rectangle_4281" data-name="Rectangle 4281" width="3.667" height="15.509" fill="none"/>
    </clipPath>
  </defs>
  <g id="Group_54784" data-name="Group 54784" clip-path="url(#clip-path)">
    <rect id="Rectangle_4253" data-name="Rectangle 4253" width="250.144" height="0.125" transform="translate(0 163.794)" fill="#ebebeb"/>
    <rect id="Rectangle_4254" data-name="Rectangle 4254" width="26.55" height="0.125" transform="translate(198.529 171.844)" fill="#ebebeb"/>
    <rect id="Rectangle_4255" data-name="Rectangle 4255" width="29.347" height="0.125" transform="translate(136.358 170.278)" fill="#ebebeb"/>
    <rect id="Rectangle_4256" data-name="Rectangle 4256" width="9.601" height="0.125" transform="translate(190.209 169.557)" fill="#ebebeb"/>
    <rect id="Rectangle_4257" data-name="Rectangle 4257" width="21.607" height="0.125" transform="translate(50.264 168.042)" fill="#ebebeb"/>
    <rect id="Rectangle_4258" data-name="Rectangle 4258" width="7.724" height="0.125" transform="translate(39.753 168.042)" fill="#ebebeb"/>
    <rect id="Rectangle_4259" data-name="Rectangle 4259" width="27.116" height="0.125" transform="translate(65.773 170.153)" fill="#ebebeb"/>
    <g id="Group_54783" data-name="Group 54783">
      <g id="Group_54782" data-name="Group 54782" clip-path="url(#clip-path)">
        <path id="Path_81172" data-name="Path 81172" d="M137.662,141.481h-96.6a2.857,2.857,0,0,1-2.852-2.857V2.832A2.856,2.856,0,0,1,41.062,0h96.6a2.856,2.856,0,0,1,2.857,2.857V138.625a2.856,2.856,0,0,1-2.857,2.857M41.062.1a2.731,2.731,0,0,0-2.727,2.732V138.625a2.731,2.731,0,0,0,2.727,2.732h96.6a2.737,2.737,0,0,0,2.732-2.732V2.832A2.737,2.737,0,0,0,137.662.1Z" transform="translate(-19.094)" fill="#ebebeb"/>
        <rect id="Rectangle_4261" data-name="Rectangle 4261" width="0.931" height="77.67" transform="translate(99.032 27.701)" fill="#e0e0e0"/>
        <path id="Path_81176" data-name="Path 81176" d="M272.781,267.98H341.7l-1.971,1.9H270.81Z" transform="translate(-135.327 -133.913)" fill="#f0f0f0"/>
        <path id="Path_81187" data-name="Path 81187" d="M118.438,298.8h18.511a.5.5,0,0,0,.53-.435l.435-3.652a.5.5,0,0,0-.452-.544.449.449,0,0,0-.073,0H118a.5.5,0,0,0-.531.467.45.45,0,0,0,0,.078l.44,3.652a.5.5,0,0,0,.53.435" transform="translate(-58.699 -146.999)" fill="#f5f5f5"/>
        <path id="Path_81188" data-name="Path 81188" d="M153.111,349.92c53.572,0,97,2.535,97,5.663s-43.429,5.663-97,5.663-97-2.535-97-5.663,43.429-5.663,97-5.663" transform="translate(-28.039 -174.86)" fill="#f5f5f5"/>
        <path id="Path_81189" data-name="Path 81189" d="M307.249,224.99a33.129,33.129,0,1,1-33.129,33.129,33.129,33.129,0,0,1,33.129-33.129" transform="translate(-136.981 -112.43)" fill="#ff725e"/>
        <g id="Group_54775" data-name="Group 54775" transform="translate(137.159 112.565)" opacity="0.2">
          <g id="Group_54774" data-name="Group 54774">
            <g id="Group_54773" data-name="Group 54773" clip-path="url(#clip-path-3)">
              <path id="Path_81190" data-name="Path 81190" d="M379.015,303.53a97.668,97.668,0,0,1-26.425,26.39c.455-.085.91-.18,1.361-.285A98.055,98.055,0,0,0,378.72,304.9c.09-.455.205-.915.3-1.371" transform="translate(-313.352 -264.242)" fill="#fff"/>
              <path id="Path_81191" data-name="Path 81191" d="M369.011,283.571q-.045-.435-.105-.87a107.819,107.819,0,0,1-37.136,37.1l.866.1a108.26,108.26,0,0,0,36.376-36.331" transform="translate(-302.948 -253.833)" fill="#fff"/>
              <path id="Path_81192" data-name="Path 81192" d="M360.115,268.83c-.075-.215-.16-.425-.24-.64a117.624,117.624,0,0,1-42.6,42.569l.645.235a118.069,118.069,0,0,0,42.2-42.164" transform="translate(-295.703 -246.583)" fill="#fff"/>
              <path id="Path_81193" data-name="Path 81193" d="M351.806,257.41c-.1-.175-.21-.345-.31-.5a127.3,127.3,0,0,1-45.526,45.5l.5.31a127.827,127.827,0,0,0,45.336-45.306" transform="translate(-290.056 -240.946)" fill="#fff"/>
              <path id="Path_81194" data-name="Path 81194" d="M343.942,248.135c-.12-.145-.245-.285-.365-.425a136.814,136.814,0,0,1-46.747,46.712l.425.365a137.343,137.343,0,0,0,46.687-46.652" transform="translate(-285.488 -236.348)" fill="#fff"/>
              <path id="Path_81195" data-name="Path 81195" d="M336.287,240.48c-.135-.12-.27-.24-.41-.35a146.335,146.335,0,0,1-46.647,46.617l.355.405a146.769,146.769,0,0,0,46.7-46.672" transform="translate(-281.691 -232.561)" fill="#fff"/>
              <path id="Path_81196" data-name="Path 81196" d="M326.356,232.44l-.455-.23a122.244,122.244,0,0,1-44.571,44.526c.075.15.145.305.225.455a122.754,122.754,0,0,0,44.8-44.751" transform="translate(-277.743 -228.603)" fill="#fff"/>
              <path id="Path_81197" data-name="Path 81197" d="M316.893,227.16l-.5-.13a100.284,100.284,0,0,1-40.273,40.248c.04.16.085.315.125.475a100.73,100.73,0,0,0,40.648-40.593" transform="translate(-275.139 -226.014)" fill="#fff"/>
              <path id="Path_81198" data-name="Path 81198" d="M308.235,225h-.5a80.255,80.255,0,0,1-33.574,33.544v.5A80.735,80.735,0,0,0,308.235,225" transform="translate(-274.16 -225)" fill="#fff"/>
              <path id="Path_81199" data-name="Path 81199" d="M276,251.274a62.566,62.566,0,0,0,24.514-24.514l-.575.145a62.129,62.129,0,0,1-23.794,23.769,2.09,2.09,0,0,0-.145.6" transform="translate(-275.08 -225.88)" fill="#fff"/>
            </g>
          </g>
        </g>
        <path id="Path_81200" data-name="Path 81200" d="M200.932,61.224a4.978,4.978,0,1,1,3.7,5.988,4.978,4.978,0,0,1-3.7-5.988" transform="translate(-100.341 -28.678)" fill="#263238"/>
        <path id="Path_81201" data-name="Path 81201" d="M210.9,68.537a.27.27,0,0,1-.075-.53,4.708,4.708,0,0,0-2.581-9.055.27.27,0,0,1-.145-.5,5.245,5.245,0,1,1,2.852,10.1Z" transform="translate(-103.927 -29.11)" fill="#263238"/>
        <path id="Path_81202" data-name="Path 81202" d="M211.95,69.279a.265.265,0,0,1-.14-.5,4.708,4.708,0,1,0-4.277-8.388,4.657,4.657,0,0,0-.626.383.27.27,0,0,1-.28-.46,5.249,5.249,0,1,1,5.463,8.965.277.277,0,0,1-.14,0" transform="translate(-103.198 -29.756)" fill="#263238"/>
        <path id="Path_81203" data-name="Path 81203" d="M167.924,69.669a68.691,68.691,0,0,1-7.895-4.973,37.8,37.8,0,0,1-3.717-3.037,19.17,19.17,0,0,1-1.761-1.866A8.629,8.629,0,0,1,153,57.132l-.07-.23-.085-.27-.025-.13v-.27l-.08-.715c0-.405-.045-.825-.05-1.226V51.944c.03-1.541.12-3.062.21-4.583.205-3.037.5-6.048.905-9.07a1.226,1.226,0,0,1,2.436.1c.155,3,.27,6,.385,9.005.055,1.5.135,3,.21,4.463.04.735.1,1.466.16,2.171l.11,1.031a3.453,3.453,0,0,0,.125.6,5,5,0,0,0,.835,1.151,16.8,16.8,0,0,0,1.416,1.351c1.041.885,2.191,1.736,3.377,2.561s2.426,1.606,3.672,2.376,2.531,1.531,3.757,2.246l.05.025a2.463,2.463,0,1,1-2.406,4.3Z" transform="translate(-76.301 -18.61)" fill="#ffc3bd"/>
        <path id="Path_81204" data-name="Path 81204" d="M156.6,37.913l3.972-3.652-4.663-1.5s-3.027,2.256-1.561,4.5Z" transform="translate(-76.93 -16.371)" fill="#ffc3bd"/>
        <path id="Path_81205" data-name="Path 81205" d="M161.792,28.661l-1.731-.455a1.331,1.331,0,0,0-1.566.765l-.625,1.5,4.663,1.5.24-1.846a1.336,1.336,0,0,0-.981-1.466" transform="translate(-78.89 -14.072)" fill="#ffc3bd"/>
        <path id="Path_81206" data-name="Path 81206" d="M143.391,26h1.841a1.861,1.861,0,0,1,1.861,1.861v4.357a1.861,1.861,0,0,1-1.861,1.861h-1.841a1.861,1.861,0,0,1-1.861-1.861V27.861A1.861,1.861,0,0,1,143.391,26" transform="translate(-70.724 -12.993)" fill="#ff725e"/>
        <path id="Path_81207" data-name="Path 81207" d="M171.521,26h1.841a1.861,1.861,0,0,1,1.861,1.861v4.357a1.861,1.861,0,0,1-1.861,1.861h-1.841a1.861,1.861,0,0,1-1.861-1.861V27.861A1.861,1.861,0,0,1,171.521,26" transform="translate(-84.781 -12.993)" fill="#ff725e"/>
        <path id="Path_81208" data-name="Path 81208" d="M160.178,34.066H148.031a1,1,0,0,1-.971-1,.97.97,0,0,1,.971-.936h12.132a.968.968,0,0,1,.015,1.936" transform="translate(-73.488 -16.056)" fill="#ff725e"/>
        <path id="Path_81209" data-name="Path 81209" d="M177.132,94.328c-.08,3.5.41,10.766,2.867,25.865h19.576c-.305-7.374-.66-12.2,2.316-25.865a3.366,3.366,0,0,0-2.574-4.005q-.133-.029-.267-.047c-1.261-.17-2.757-.33-4.317-.405a61.887,61.887,0,0,0-8.89,0c-1.911.175-3.957.5-5.5.75a3.842,3.842,0,0,0-3.207,3.707" transform="translate(-88.511 -44.829)" fill="#ff725e"/>
        <path id="Path_81210" data-name="Path 81210" d="M184.556,88.091a29.446,29.446,0,0,0-8.4-1.911,21.865,21.865,0,0,0-1.6,8.145c5.3,1.216,7.559.43,7.955-.941s2.051-5.293,2.051-5.293" transform="translate(-87.225 -43.065)" fill="#ff725e"/>
        <path id="Path_81211" data-name="Path 81211" d="M201.634,70c-.56,2.862-1.121,8.1.88,10.006,0,0-1.691,4.683-7.955,5.553-3.547-2.927-.936-5.553-.936-5.553,3.192-.765,3.107-3.132,2.551-5.353Z" transform="translate(-96.294 -34.98)" fill="#ffc3bd"/>
        <g id="Group_54778" data-name="Group 54778" transform="translate(99.887 36.931)" opacity="0.2" style="isolation: isolate">
          <g id="Group_54777" data-name="Group 54777">
            <g id="Group_54776" data-name="Group 54776" clip-path="url(#clip-path-4)">
              <path id="Path_81212" data-name="Path 81212" d="M202.887,73.82l-3.227,2.757a9.781,9.781,0,0,1,.275,1.576c1.216-.175,2.892-1.5,3-2.787a4.342,4.342,0,0,0-.05-1.546" transform="translate(-199.66 -73.82)"/>
            </g>
          </g>
        </g>
        <path id="Path_81213" data-name="Path 81213" d="M202.535,53.555c-1.881,4.4-2.581,6.3-5.678,7.794-4.653,2.256-9.646-1-9.115-5.888.475-4.388,3.472-10.841,8.5-11.061a6.5,6.5,0,0,1,6.289,9.155" transform="translate(-93.797 -22.182)" fill="#ffc3bd"/>
        <path id="Path_81214" data-name="Path 81214" d="M195.6,37.248c.3-1.051-1.091-6.419-4.568-5.763s-4.393,7.234,1.611,7.86c0,0,2.151.79,2.957-2.1" transform="translate(-94.083 -15.706)" fill="#263238"/>
        <path id="Path_81215" data-name="Path 81215" d="M196.728,43.381a3.288,3.288,0,0,1-4.623-.5,3.6,3.6,0,0,1,5.888-3.972,3.326,3.326,0,0,1-1.266,4.473" transform="translate(-95.775 -18.841)" fill="#ff725e"/>
        <path id="Path_81216" data-name="Path 81216" d="M201.752,38.539c-4.212-1.3-9.15,1.081-9.005,5.648,6.589.315,7.244,2.6,9.8,2.6-1.136,1.5-1.766,5.943.79,5.318,4.673,2,6.434-3.142,5.443-4.7.866-3.987-2.371-7.424-7.024-8.86" transform="translate(-96.317 -19.083)" fill="#263238"/>
        <path id="Path_81217" data-name="Path 81217" d="M219.732,45.38c1.652,0,2.992,1.754,2.992,3.917s-1.339,3.917-2.992,3.917S216.74,51.46,216.74,49.3s1.339-3.917,2.992-3.917" transform="translate(-108.308 -22.677)" fill="#ff725e"/>
        <path id="Path_81218" data-name="Path 81218" d="M220.847,47.225c.715-.946,6.659-3.6,8.5-.06s-3.192,8.83-8.215,4.292a2.842,2.842,0,0,1-.29-4.232" transform="translate(-109.959 -22.676)" fill="#263238"/>
        <path id="Path_81219" data-name="Path 81219" d="M164.336,150.555s-6.939,29.907-9.856,44.315c-3.042,15.009-9.53,55.467-9.53,55.467l4-.26s12.792-34.52,15.384-53.256C170.109,181.263,179.145,150,179.145,150Z" transform="translate(-72.433 -74.957)" fill="#ffc3bd"/>
        <path id="Path_81220" data-name="Path 81220" d="M144.42,340.525l1.5-8.44s3.772-.665,6.379-.955c-1,2.476-3.422,9.4-3.422,9.4Z" transform="translate(-72.169 -165.47)" fill="#ff725e"/>
        <path id="Path_81221" data-name="Path 81221" d="M136.32,348.889l4.077-.11a.415.415,0,0,1,.435.32l.79,3.812a.811.811,0,0,1-.726.887.8.8,0,0,1-.11,0c-2.106,0-2.231-.085-4.883,0-1.636.04-4.6.735-6.809.335s-1.361-2.216-.4-2.2c3.477.06,3.837-1,6.734-2.712a1.835,1.835,0,0,1,.891-.335" transform="translate(-63.814 -174.289)" fill="#263238"/>
        <path id="Path_81222" data-name="Path 81222" d="M206.259,150.64s12.007,28.4,12.972,44.441c6.044,14.008,11.462,55.577,11.462,55.577l-4-.26s-9.505-32.939-16.68-52.925c-5.783-15.559-19.511-46.557-19.511-46.557Z" transform="translate(-95.195 -75.277)" fill="#ffc3bd"/>
        <path id="Path_81223" data-name="Path 81223" d="M259.512,340.505l-2.742-9.415a50.58,50.58,0,0,1,5.933.37c.41,2.542,1.091,8.86,1.091,8.86Z" transform="translate(-128.311 -165.45)" fill="#ff725e"/>
        <path id="Path_81224" data-name="Path 81224" d="M257.909,348.9l3.692-.1a.39.39,0,0,1,.4.325l.725,3.812a.78.78,0,0,1-.668.879.811.811,0,0,1-.092.007c-1.906,0-2-.09-4.417-.025-1.5.04-2.1.32-3.632.32-2,0-1.206-1.966-.37-2.2,1.951-.56,2.747-1.921,3.557-2.7a1.22,1.22,0,0,1,.805-.32" transform="translate(-126.258 -174.3)" fill="#263238"/>
        <path id="Path_81225" data-name="Path 81225" d="M201.895,59.514c-.13.37-.43.6-.67.5s-.325-.45-.2-.815.43-.6.67-.5.325.45.2.815" transform="translate(-100.427 -29.322)" fill="#263238"/>
        <path id="Path_81226" data-name="Path 81226" d="M193.621,56.56c-.13.365-.43.6-.67.5s-.33-.45-.2-.82.435-.59.67-.5.33.455.2.82" transform="translate(-96.29 -27.844)" fill="#263238"/>
        <path id="Path_81227" data-name="Path 81227" d="M193.56,55.315l-.79-.565s.21.845.79.565" transform="translate(-96.33 -27.359)" fill="#263238"/>
        <path id="Path_81228" data-name="Path 81228" d="M194.151,59.44a10.366,10.366,0,0,1-2.141,1.871,1.662,1.662,0,0,0,1.216.71Z" transform="translate(-95.95 -29.703)" fill="#ed847e"/>
        <path id="Path_81229" data-name="Path 81229" d="M196.549,68.03a3.207,3.207,0,0,1-.635-.165.115.115,0,0,1-.07-.145.12.12,0,0,1,.15-.07,3.061,3.061,0,0,0,2.767-.29.12.12,0,0,1,.16,0,.115.115,0,0,1,0,.16,3.207,3.207,0,0,1-2.371.51" transform="translate(-97.863 -33.645)" fill="#263238"/>
        <path id="Path_81230" data-name="Path 81230" d="M214.111,65.67a3.5,3.5,0,0,1-2.181,1.541c-1.2.26-1.726-.825-1.336-1.921.355-1,1.4-2.306,2.576-2.076a1.571,1.571,0,0,1,.941,2.456" transform="translate(-105.173 -31.575)" fill="#ffc3bd"/>
        <path id="Path_81231" data-name="Path 81231" d="M203.731,55.726a.215.215,0,0,1-.14-.11,1.836,1.836,0,0,0-1.336-.966.23.23,0,0,1-.031-.459.223.223,0,0,1,.061,0,2.277,2.277,0,0,1,1.706,1.2.23.23,0,0,1-.09.31.224.224,0,0,1-.17.02" transform="translate(-100.947 -27.08)" fill="#263238"/>
        <path id="Path_81232" data-name="Path 81232" d="M191.936,51.6a.219.219,0,0,1-.105-.135.225.225,0,0,1,.15-.28,2.261,2.261,0,0,1,2.056.34.225.225,0,0,1,.033.317l0,0a.235.235,0,0,1-.325.03,1.786,1.786,0,0,0-1.626-.255.221.221,0,0,1-.18-.02" transform="translate(-95.855 -25.524)" fill="#263238"/>
        <path id="Path_81233" data-name="Path 81233" d="M201.835,58.27l-.785-.57s.205.85.785.57" transform="translate(-100.467 -28.833)" fill="#263238"/>
        <path id="Path_81234" data-name="Path 81234" d="M182.67,150.511l19.866-.64a.285.285,0,0,0,.275-.295.29.29,0,0,0-.01-.066l-.3-1.056a.28.28,0,0,0-.28-.205l-19.606.64a.29.29,0,0,0-.275.3l.035,1.051a.28.28,0,0,0,.285.276h.011" transform="translate(-91.118 -74.082)" fill="#263238"/>
        <path id="Path_81235" data-name="Path 81235" d="M194.877,150s-4.217,16.509-8.255,24.589c-3.772.945-11.847-3.767-12.792-5.743,2.066-10.816,3.382-16.469,4.938-18.311A157.417,157.417,0,0,0,194.877,150" transform="translate(-86.865 -74.957)" fill="#263238"/>
        <g id="Group_54781" data-name="Group 54781" transform="translate(99.797 82.873)" opacity="0.2" style="isolation: isolate">
          <g id="Group_54780" data-name="Group 54780">
            <g id="Group_54779" data-name="Group 54779" clip-path="url(#clip-path-5)">
              <path id="Path_81236" data-name="Path 81236" d="M200.741,165.65c-1.731,3.847-1.4,10.711-.67,15.509,1.056-2.311,2.106-5.118,3.077-7.965Z" transform="translate(-199.48 -165.65)"/>
            </g>
          </g>
        </g>
        <path id="Path_81237" data-name="Path 81237" d="M188.72,150.375s5.5,16.159,9.56,24.234c4.107-.18,13.838-4.563,14.778-6.534C211,157.259,206.915,151.856,205.37,150c-9.005.15-16.65.375-16.65.375" transform="translate(-94.306 -74.957)" fill="#263238"/>
        <path id="Path_81238" data-name="Path 81238" d="M220.358,80.7c2.356.69,4.838,1.351,7.234,1.846a28.879,28.879,0,0,0,3.5.5,8.3,8.3,0,0,0,1.471,0,2.334,2.334,0,0,0,.385-.065c.03,0,0,0-.025.045l-.08.085a.577.577,0,0,0-.045.06h0a12.172,12.172,0,0,0,.831-1.386c.285-.53.555-1.086.826-1.651.53-1.136,1.061-2.3,1.566-3.472l3.077-7.1a1.226,1.226,0,0,1,2.326.735c-.53,2.581-1.166,5.118-1.921,7.649-.385,1.261-.78,2.5-1.241,3.787-.235.63-.475,1.266-.75,1.911a14.867,14.867,0,0,1-1.026,2l-.155.22a2.533,2.533,0,0,1-.205.245,3.384,3.384,0,0,1-.435.415,4.259,4.259,0,0,1-.861.535,6.2,6.2,0,0,1-1.5.475,11.526,11.526,0,0,1-2.411.185A28.125,28.125,0,0,1,226.7,87.3a55.329,55.329,0,0,1-7.849-1.886,2.462,2.462,0,0,1,1.446-4.708Z" transform="translate(-108.494 -34.386)" fill="#ffc3bd"/>
        <path id="Path_81239" data-name="Path 81239" d="M217.368,90.67a21.3,21.3,0,0,1,5.743,1.5A20.319,20.319,0,0,1,220.945,100c-4.693-2.5-6.184-5.9-5.778-7.264s2.2-2.061,2.2-2.061" transform="translate(-107.49 -45.309)" fill="#ff725e"/>
        <path id="Path_81240" data-name="Path 81240" d="M258.432,68.253l-2.572-4.5,5,1.661a3.8,3.8,0,0,1-.6,3.627Z" transform="translate(-127.857 -31.857)" fill="#ffc3bd"/>
        <path id="Path_81241" data-name="Path 81241" d="M257.736,59.017l1.966.5a1.236,1.236,0,0,1,.94,1.1l.21,2.411-5-1.661.405-1.456a1.241,1.241,0,0,1,1.481-.891" transform="translate(-127.852 -29.475)" fill="#ffc3bd"/>
        <path id="Path_81242" data-name="Path 81242" d="M244.368,53.555l1.812.325a1.861,1.861,0,0,1,1.5,2.161l-.77,4.289a1.862,1.862,0,0,1-2.161,1.5l-1.812-.325a1.861,1.861,0,0,1-1.5-2.161l.77-4.289a1.861,1.861,0,0,1,2.161-1.5" transform="translate(-120.635 -26.748)" fill="#ff725e"/>
        <path id="Path_81243" data-name="Path 81243" d="M272.064,58.521l1.812.325a1.861,1.861,0,0,1,1.5,2.161l-.77,4.289a1.861,1.861,0,0,1-2.161,1.5l-1.812-.325a1.861,1.861,0,0,1-1.5-2.161l.77-4.289a1.861,1.861,0,0,1,2.161-1.5" transform="translate(-134.475 -29.229)" fill="#ff725e"/>
        <path id="Path_81244" data-name="Path 81244" d="M260.441,64.316,248.5,62.175a.973.973,0,0,1,.34-1.916L260.781,62.4a.973.973,0,0,1-.34,1.916" transform="translate(-123.782 -30.107)" fill="#ff725e"/>
      </g>
    </g>
  </g>
</svg>
