<svg id="Group_56822" data-name="Group 56822" xmlns="http://www.w3.org/2000/svg" width="14.126" height="13.243" viewBox="0 0 14.126 13.243">
  <path id="Path_87597" data-name="Path 87597" d="M1045.848,105.543a2.722,2.722,0,0,0-1.876-2.259,2.623,2.623,0,0,0-.908-.14c-.127,0-.3.057-.368-.024s-.02-.244-.022-.372c0-.051,0-.1,0-.152a.551.551,0,1,0-1.1,0q-.005,1.1,0,2.207a.551.551,0,1,0,1.1,0c0-.152,0-.3,0-.455,0-.07.015-.1.09-.094.092.007.184,0,.276,0a1.658,1.658,0,0,1,1.732,1.735q0,3.227,0,6.454a1.659,1.659,0,0,1-1.739,1.742h-8.192c-.046,0-.092,0-.138,0a.334.334,0,0,0-.072-.024.774.774,0,0,0-.157-.013,1.622,1.622,0,0,1-1.578-1.6q0-3.327,0-6.655a1.62,1.62,0,0,1,1.578-1.6.79.79,0,0,0,.142-.015.7.7,0,0,0,.087-.023.784.784,0,0,0,.11,0c.116-.021.15.026.141.141a4.133,4.133,0,0,0,0,.413.55.55,0,0,0,.554.55.545.545,0,0,0,.546-.543q.007-1.11,0-2.22a.55.55,0,0,0-1.1,0c0,.152-.007.3,0,.455,0,.09-.027.109-.109.1-.11-.007-.22,0-.331,0a2.756,2.756,0,0,0-2.761,2.76q-.007,3.31,0,6.619a2.749,2.749,0,0,0,2.749,2.756q4.31.009,8.62,0a2.75,2.75,0,0,0,2.68-2.126,1.038,1.038,0,0,1,.074-.3V105.6C1045.846,105.59,1045.851,105.565,1045.848,105.543Z" transform="translate(-1031.747 -102.042)" fill=""/>
  <path id="Path_87599" data-name="Path 87599" d="M1179.066,133.052c.358,0,.717,0,1.075,0s.717,0,1.075,0a.552.552,0,1,0,0-1.1q-1.075,0-2.15,0a.552.552,0,1,0,0,1.1Z" transform="translate(-1173.077 -130.846)" fill=""/>
  <path id="Path_87600" data-name="Path 87600" d="M1181.1,280.513c-.021.047-.039.092-.052.132a.557.557,0,0,0,.522.729.553.553,0,0,0,.5-.3l0-.007,2.2-4.647,0-.007c.016-.038.03-.076.042-.114a.531.531,0,0,0,.023-.153.558.558,0,0,0-.557-.557h-2.619a.557.557,0,1,0,0,1.114h1.762l-1.83,3.8Z" transform="translate(-1175.421 -270.537)" fill=""/>
</svg>
