<svg xmlns="http://www.w3.org/2000/svg" width="20" height="20" viewBox="0 0 20 20" fill="none">
<circle cx="10" cy="10" r="10" fill="#414042"/>
<path d="M16.2617 9.26172C15.9273 9.26172 15.6554 9.48938 15.565 9.79492H14.6665C14.5506 9.412 14.3262 9.22923 14.2794 9.02317C14.2178 8.75241 14.4241 8.31316 14.2502 7.95294C14.0755 7.59052 13.5983 7.47305 13.4312 7.26382C13.3775 7.19655 13.3398 7.09527 13.3031 6.98688L14.8834 5.40663C15.0158 5.4862 15.1601 5.54248 15.3185 5.54248C15.5486 5.54248 15.7647 5.4529 15.9274 5.2902C16.2631 4.95459 16.2631 4.40826 15.9274 4.07253C15.591 3.73615 15.0463 3.73609 14.7098 4.07253C14.4254 4.35685 14.3969 4.78538 14.5941 5.11591L13.1396 6.57038C13.0133 6.32746 12.8535 6.19364 12.4903 6.14114C12.3781 6.12495 12.2742 6.20266 12.2579 6.31472C12.2418 6.42683 12.3195 6.53079 12.4317 6.54709C12.7228 6.5892 12.7661 6.6697 12.8853 7.03473C13.0352 7.49384 13.1205 7.59927 13.532 7.84515C13.9288 8.08238 13.9462 8.12728 13.8866 8.5749C13.8218 9.0614 13.8562 9.19254 14.1144 9.58372C14.3701 9.97162 14.3701 10.0285 14.1144 10.4162C13.8553 10.8091 13.8222 10.9405 13.8866 11.4252C13.9464 11.8736 13.928 11.9182 13.5318 12.155C13.1205 12.4007 13.0352 12.5061 12.8853 12.9654C12.7429 13.4017 12.7043 13.4306 12.251 13.4727C11.7686 13.5173 11.647 13.5775 11.3183 13.9213C10.998 14.2561 10.9498 14.2632 10.5296 14.1063C10.3608 14.0434 10.1863 13.9784 10.0001 13.9784C9.63392 13.9784 9.26374 14.2498 9.04144 14.1993C8.92184 14.1722 8.80535 14.0503 8.68192 13.9213C8.35407 13.5785 8.23321 13.5175 7.74912 13.4725C7.2957 13.4306 7.25715 13.4016 7.1148 12.9653C6.96473 12.5061 6.87959 12.4007 6.46817 12.1549C6.07141 11.9177 6.05386 11.8729 6.11341 11.4252C6.17795 10.941 6.14491 10.8092 5.8857 10.4162C5.63003 10.0285 5.63003 9.97145 5.8857 9.58366C6.14486 9.1909 6.178 9.05938 6.11341 8.57473C6.05386 8.12701 6.07141 8.08216 6.46828 7.84504C6.61993 7.75442 6.77677 7.66074 6.88948 7.51954C7.00274 7.37762 7.05973 7.20328 7.1148 7.03457C7.16976 6.86641 7.2216 6.70754 7.31512 6.63289C7.40754 6.55895 7.57341 6.54364 7.74912 6.52734C8.23206 6.48255 8.35341 6.42223 8.68192 6.07874C9.00152 5.74455 9.04937 5.73645 9.47052 5.89363C9.92907 6.06474 10.0709 6.06474 10.5296 5.89363C11.0466 5.70074 11.0107 5.78605 11.4381 6.20075C11.5193 6.2795 11.6492 6.2777 11.728 6.19632C11.8069 6.11505 11.805 5.98517 11.7236 5.90626C11.6878 5.87164 11.6524 5.83445 11.6146 5.79513C11.1698 5.33029 10.9519 5.29841 10.3862 5.50945C10.3236 5.53269 10.2635 5.55418 10.2051 5.57223V4.43505C10.5106 4.34455 10.7383 4.07275 10.7383 3.73828C10.7383 3.33119 10.407 3 10 3C9.59291 3 9.26172 3.33119 9.26172 3.73828C9.26172 4.07275 9.48938 4.34455 9.79492 4.43505V5.57223C9.73668 5.55418 9.67652 5.53269 9.6138 5.50945C9.04827 5.29841 8.83023 5.33023 8.38541 5.79519C8.28484 5.90035 8.18984 5.99966 8.09551 6.04527C7.99773 6.09241 7.85855 6.10527 7.71116 6.11894C7.2986 6.15722 7.04726 6.21076 6.86045 6.57038L5.71338 5.42331C5.92841 5.07331 5.90052 4.61536 5.59766 4.31239C5.24339 3.95802 4.66677 3.95802 4.31239 4.31239C3.57859 5.0463 4.47366 6.29667 5.42331 5.71338L6.69688 6.98688C6.59997 7.27339 6.56344 7.31036 6.25773 7.49296C5.7142 7.8178 5.62555 8.01856 5.70687 8.62898C5.7265 8.77642 5.74504 8.91582 5.72059 9.02317C5.67378 9.22923 5.44934 9.41195 5.33352 9.79492H4.43505C4.34455 9.48938 4.07275 9.26172 3.73828 9.26172C3.33119 9.26172 3 9.59291 3 10C3 10.407 3.33119 10.7383 3.73828 10.7383C4.07275 10.7383 4.34455 10.5106 4.43505 10.2051H5.33352C5.44934 10.5881 5.67378 10.7707 5.7207 10.9768C5.78223 11.2475 5.57595 11.6869 5.74974 12.047C5.92458 12.4095 6.40173 12.5269 6.56891 12.7361C6.62255 12.8034 6.66023 12.9048 6.69688 13.0131L5.91993 13.79C5.64004 13.638 5.28665 13.6691 5.05029 13.9057C4.5849 14.3712 4.91904 15.1656 5.57234 15.1656C6.1202 15.1656 6.48633 14.5889 6.20999 14.0801L6.8605 13.4296C7.16484 14.0153 7.77542 13.8003 8.09551 13.9548C8.3375 14.0715 8.55379 14.5091 8.9506 14.5993C9.2463 14.6665 9.53056 14.5099 9.79492 14.4278V15.565C9.48938 15.6554 9.26172 15.9273 9.26172 16.2617C9.26172 16.6688 9.59291 17 10 17C10.407 17 10.7383 16.6688 10.7383 16.2617C10.7383 15.9273 10.5106 15.6554 10.2051 15.565V14.4278C10.4733 14.5109 10.7542 14.6665 11.0495 14.5993C11.4453 14.5093 11.6644 14.0707 11.9045 13.9548C12.2285 13.7984 12.8335 14.0185 13.1396 13.4296L13.3549 13.6451C13.4351 13.7251 13.5649 13.7251 13.6451 13.6451C13.7251 13.5649 13.7251 13.435 13.6451 13.3549L13.3031 13.013C13.4001 12.7262 13.4368 12.6895 13.7423 12.507C14.2857 12.1822 14.3745 11.9814 14.2931 11.371C14.2421 10.9878 14.2526 10.9515 14.4566 10.6421C14.5423 10.5123 14.6184 10.364 14.6664 10.2051H15.5648C15.6554 10.5106 15.9273 10.7383 16.2617 10.7383C16.6688 10.7383 17 10.407 17 10C17 9.59291 16.6688 9.26172 16.2617 9.26172ZM15.3185 4.23052C15.7193 4.23052 15.9195 4.71817 15.6375 5.00025C15.4611 5.1764 15.176 5.17645 14.9997 5.00025C14.7175 4.71806 14.9179 4.23052 15.3185 4.23052ZM9.67188 3.73828C9.67188 3.55732 9.81904 3.41016 10 3.41016C10.181 3.41016 10.3281 3.55732 10.3281 3.73828C10.3281 3.9193 10.181 4.06641 10 4.06641C9.81904 4.06641 9.67188 3.9193 9.67188 3.73828ZM4.60251 5.30765C4.40804 5.11323 4.40804 4.79687 4.60251 4.60234C4.79687 4.40804 5.11323 4.40804 5.30765 4.60234C5.50212 4.79687 5.50212 5.11323 5.30765 5.30765C5.11323 5.50212 4.79687 5.50201 4.60251 5.30765ZM3.73828 10.3281C3.55732 10.3281 3.41016 10.181 3.41016 10C3.41016 9.81904 3.55732 9.67188 3.73828 9.67188C3.9193 9.67188 4.06641 9.81904 4.06641 10C4.06641 10.181 3.9193 10.3281 3.73828 10.3281ZM5.80438 14.6597C5.6763 14.7877 5.46816 14.7877 5.34024 14.6597C5.13336 14.4528 5.28189 14.0998 5.57223 14.0998C5.86245 14.0998 6.01142 14.4527 5.80438 14.6597ZM10.3281 16.2617C10.3281 16.4427 10.181 16.5898 10 16.5898C9.81904 16.5898 9.67188 16.4427 9.67188 16.2617C9.67188 16.0808 9.81904 15.9336 10 15.9336C10.181 15.9336 10.3281 16.0808 10.3281 16.2617ZM16.2617 10.3281C16.0808 10.3281 15.9336 10.181 15.9336 10C15.9336 9.81904 16.0808 9.67188 16.2617 9.67188C16.4427 9.67188 16.5898 9.81904 16.5898 10C16.5898 10.181 16.4427 10.3281 16.2617 10.3281Z" fill="white"/>
</svg>