 <svg class="fiber-icon" viewBox="0 0 24 24" xmlns="http://www.w3.org/2000/svg">
              <path d="M12 2c-6.627 0-12 5.373-12 12s5.373 12 12 12 12-5.373 12-12-5.373-12-12-12zm4.799 16.334c-1.1 2.317-3.592 3.666-6.146 3.666-2.582 0-5.099-1.372-6.2-3.683-1.101-2.318-.308-5.004 1.793-6.436 1.392-1.101 3.09-1.555 4.732-1.325 1.643-.23 3.343.224 4.734 1.325 2.101 1.432 2.895 4.118 1.794 6.436zm-9.026-1.307c-.943 1.984-2.917 3.161-5.004 3.161-1.666 0-3.105-.875-3.993-2.219-.888-1.344-.887-2.92.001-4.269.889-1.345 2.329-2.221 3.993-2.221 1.665 0 3.104.876 3.992 2.22.887 1.344.888 2.92 0 4.268zm11.227-1.308c-.888 1.344-2.327 2.219-3.993 2.219-1.086 0-2.095-.316-2.974-.854 1.983-1.605 3.09-4.43 1.77-6.995-.902-1.896-2.892-3.04-5.082-3.04-2.19 0-4.18 1.144-5.083 3.039-1.32 2.565-.213 5.39 1.77 6.995-.879.538-1.888.854-2.974.854-1.666 0-3.105-.875-3.993-2.219-.887-1.344-.888-2.92 0-4.268 1.89-2.849 5.404-4.608 9.366-4.608 3.963 0 7.475 1.759 9.366 4.608.888 1.348.887 2.924 0 4.268z"/>
            </svg>