<svg xmlns="http://www.w3.org/2000/svg" width="20" height="20" viewBox="0 0 20 20" fill="none">
<circle cx="10" cy="10" r="10" fill="#414042"/>
<path d="M13.5 3C12.6729 3 12 4.26156 12 5.8125C12 6.9025 12.3394 7.89406 12.8571 8.35344V17.0625C12.8571 17.5794 13.1456 18 13.5 18C13.8544 18 14.1429 17.5794 14.1429 17.0625V8.35344C14.6606 7.89406 15 6.9025 15 5.8125C15 4.26156 14.3271 3 13.5 3ZM13.8371 7.88469C13.7621 7.93625 13.7143 8.04625 13.7143 8.16719V17.0625C13.7143 17.235 13.6181 17.375 13.5 17.375C13.3819 17.375 13.2857 17.235 13.2857 17.0625V8.16719C13.2857 8.04625 13.2379 7.93625 13.1629 7.88469C12.7236 7.58219 12.4286 6.74937 12.4286 5.8125C12.4286 4.60656 12.9092 3.625 13.5 3.625C14.0908 3.625 14.5714 4.60656 14.5714 5.8125C14.5714 6.74937 14.2764 7.58219 13.8371 7.88469Z" fill="white"/>
<path d="M8.14286 3C7.92343 3 7.72314 3.09062 7.57143 3.23937C7.41971 3.09062 7.21943 3 7 3C6.78057 3 6.58029 3.09062 6.42857 3.23937C6.27686 3.09062 6.07657 3 5.85714 3C5.38457 3 5 3.42062 5 3.9375V7.0625C5 7.57937 5.38457 8 5.85714 8H6.14286V17.0625C6.14286 17.5794 6.52743 18 7 18C7.47257 18 7.85714 17.5794 7.85714 17.0625V8H8.14286C8.61543 8 9 7.57937 9 7.0625V3.9375C9 3.42062 8.61543 3 8.14286 3ZM8.42857 7.0625C8.42857 7.235 8.30029 7.375 8.14286 7.375H7.57143C7.41371 7.375 7.28571 7.51469 7.28571 7.6875V17.0625C7.28571 17.235 7.15743 17.375 7 17.375C6.84257 17.375 6.71429 17.235 6.71429 17.0625V7.6875C6.71429 7.51469 6.58629 7.375 6.42857 7.375H5.85714C5.69971 7.375 5.57143 7.235 5.57143 7.0625V3.9375C5.57143 3.765 5.69971 3.625 5.85714 3.625C6.01457 3.625 6.14286 3.765 6.14286 3.9375V5.8125C6.14286 5.98531 6.27086 6.125 6.42857 6.125C6.58629 6.125 6.71429 5.98531 6.71429 5.8125V3.9375C6.71429 3.765 6.84257 3.625 7 3.625C7.15743 3.625 7.28571 3.765 7.28571 3.9375V5.8125C7.28571 5.98531 7.41371 6.125 7.57143 6.125C7.72914 6.125 7.85714 5.98531 7.85714 5.8125V3.9375C7.85714 3.765 7.98543 3.625 8.14286 3.625C8.30029 3.625 8.42857 3.765 8.42857 3.9375V7.0625Z" fill="white"/>
</svg>