<svg id="Group_56823" data-name="Group 56823" xmlns="http://www.w3.org/2000/svg" width="14.181" height="14.146" viewBox="0 0 14.181 14.146">
  <path id="Path_87601" data-name="Path 87601" d="M905.107,309.638q-1.943,0-3.886,0a.2.2,0,0,1-.222-.135,1.5,1.5,0,0,0-2.732.007.194.194,0,0,1-.213.127q-1.943,0-3.886,0a1.528,1.528,0,0,0-1.623,1.615q0,1.718,0,3.437,0,1.734,0,3.468a1.665,1.665,0,0,0,.085.557,1.532,1.532,0,0,0,1.521,1.031q1.9,0,3.807,0c.116,0,.161.019.159.15q-.012.859,0,1.718c0,.135-.04.162-.168.16-.616-.007-1.232-.005-1.848,0a.471.471,0,0,0-.5.473.493.493,0,0,0,.557.534h5.892c.374,0,.748,0,1.121,0a.476.476,0,0,0,.467-.261.5.5,0,0,0-.459-.747c-.616,0-1.232-.006-1.848,0-.153,0-.179-.048-.177-.185q.011-.835,0-1.671c0-.133.024-.176.169-.175q1.9.01,3.791,0a1.531,1.531,0,0,0,1.614-1.613q0-3.445,0-6.889A1.528,1.528,0,0,0,905.107,309.638Zm-5.467,0a.5.5,0,1,1-.51.508A.5.5,0,0,1,899.64,309.638Zm.378,12.134c-.257-.007-.515,0-.773,0-.084,0-.122-.015-.121-.11q.006-.9,0-1.81c0-.085.029-.107.109-.106.268,0,.536,0,.8,0,.087,0,.1.032.1.11,0,.3,0,.608,0,.913s0,.588,0,.881C900.143,321.745,900.115,321.775,900.018,321.772Zm1.5-3.035c-.626,0-1.251,0-1.877,0s-1.262,0-1.893,0c-.092,0-.143-.006-.135-.125a2.026,2.026,0,0,1,3.982-.385,2.77,2.77,0,0,1,.06.372C901.668,318.716,901.623,318.737,901.517,318.737Zm-2.893-4.046a1.01,1.01,0,1,1,2.019.006,1.009,1.009,0,0,1-2.019-.006Zm7.089,3.485a.5.5,0,0,1-.539.558c-.795.005-1.59,0-2.385,0-.084,0-.12-.019-.125-.111a2.989,2.989,0,0,0-1.532-2.524.13.13,0,0,1-.021-.021,2.023,2.023,0,1,0-2.949,0,3.062,3.062,0,0,0-1.279,1.37,2.883,2.883,0,0,0-.28,1.153c0,.106-.04.129-.139.128-.779,0-1.558,0-2.337,0a.5.5,0,0,1-.569-.576q0-3.467,0-6.935a.507.507,0,0,1,.57-.575c1.316,0,2.632,0,3.948,0a.176.176,0,0,1,.186.12,1.5,1.5,0,0,0,2.745,0,.174.174,0,0,1,.187-.117c1.316,0,2.632,0,3.948,0a.505.505,0,0,1,.57.56Q905.714,314.692,905.713,318.175Z" transform="translate(-892.545 -308.633)" fill="#febf47"/>
</svg>
