<svg xmlns="http://www.w3.org/2000/svg" width="12.236" height="12.23" viewBox="0 0 12.236 12.23">
  <g id="Group_56628" data-name="Group 56628" transform="translate(-971.038 -312.055)">
    <path id="Path_87439" data-name="Path 87439" d="M983.267,319.821a1.21,1.21,0,0,0-.936-1.206,1.513,1.513,0,0,0-.373-.039c-.1,0-.239.034-.3-.018s-.021-.2-.022-.307q0-2.445,0-4.889a1.229,1.229,0,0,0-1.3-1.3q-3.217,0-6.434,0a1.326,1.326,0,0,0-1,.411q-.715.729-1.444,1.444a1.355,1.355,0,0,0-.424,1.02q0,4.023,0,8.046a1.5,1.5,0,0,0,.031.347,1.224,1.224,0,0,0,1.254.962q2.418,0,4.836,0t4.822,0a1.213,1.213,0,0,0,1.284-1.239C983.278,321.97,983.276,320.9,983.267,319.821Zm-5.67-.293a1.511,1.511,0,0,0-.036.36c0,1.151,0,2.3,0,3.452,0,.116-.033.136-.141.136q-2.532-.005-5.064,0c-.363,0-.5-.139-.5-.506q0-2.008,0-4.016c0-1.343,0-2.686,0-4.03a.557.557,0,0,1,.176-.429q.733-.72,1.454-1.452a.521.521,0,0,1,.393-.166q3.244,0,6.488,0a.409.409,0,0,1,.454.445c0,1.719,0,3.439,0,5.158,0,.1-.049.1-.122.1-.622,0-1.245,0-1.867,0A1.231,1.231,0,0,0,977.6,319.528Zm4.855,3.466a.415.415,0,0,1-.476.474h-1.718c-.586,0-1.172,0-1.759,0-.1,0-.124-.028-.124-.126,0-1.159,0-2.318,0-3.477a.418.418,0,0,1,.48-.473h3.114c.33,0,.48.151.48.485Q982.453,321.437,982.452,322.994Z" transform="translate(0)"/>
    <path id="Path_87440" data-name="Path 87440" d="M1034.345,403.376a.415.415,0,0,0-.282-.45.714.714,0,0,0-.226-.017h-5.491c-.045,0-.09,0-.134,0a.407.407,0,1,0,.053.812q1.41,0,2.82,0t2.846,0A.407.407,0,0,0,1034.345,403.376Z" transform="translate(-54.748 -87.59)"/>
    <path id="Path_87441" data-name="Path 87441" d="M1030.619,516.446q-1.194,0-2.388,0a.412.412,0,0,0-.441.405.419.419,0,0,0,.451.411h1.18c.4,0,.8,0,1.194,0a.417.417,0,0,0,.441-.407A.41.41,0,0,0,1030.619,516.446Z" transform="translate(-54.714 -197.05)"/>
    <path id="Path_87442" data-name="Path 87442" d="M1030.62,459.573q-1.193-.005-2.387,0a.412.412,0,0,0-.441.406.419.419,0,0,0,.451.41h2.361a.419.419,0,0,0,.454-.407A.411.411,0,0,0,1030.62,459.573Z" transform="translate(-54.716 -142.218)"/>
    <path id="Path_87443" data-name="Path 87443" d="M1199.862,547.723c-.14.138-.276.28-.416.419-.094.094-.187.256-.288.263s-.2-.162-.3-.256a.452.452,0,0,0-.28-.141.416.416,0,0,0-.41.247.4.4,0,0,0,.1.456c.194.191.393.379.591.566a.409.409,0,0,0,.627-.005q.484-.484.962-.973a.409.409,0,1,0-.578-.575Z" transform="translate(-218.94 -227.068)"/>
  </g>
</svg>
