<svg xmlns="http://www.w3.org/2000/svg" width="20" height="20" viewBox="0 0 20 20" fill="none">
<circle cx="10" cy="10" r="10" fill="#414042"/>
<path d="M11.4047 5.52872H10.7024V4.82639C10.7024 4.7643 10.6777 4.70476 10.6338 4.66085C10.5899 4.61695 10.5304 4.59229 10.4683 4.59229H9.53187C9.46978 4.59229 9.41023 4.61695 9.36633 4.66085C9.32243 4.70476 9.29776 4.7643 9.29776 4.82639V5.52872H8.59544C8.53335 5.52872 8.4738 5.55338 8.4299 5.59729C8.38599 5.64119 8.36133 5.70074 8.36133 5.76283V6.69926C8.36133 6.76135 8.38599 6.82089 8.4299 6.8648C8.4738 6.9087 8.53335 6.93337 8.59544 6.93337H9.29776V7.63569C9.29776 7.69778 9.32243 7.75733 9.36633 7.80123C9.41023 7.84513 9.46978 7.8698 9.53187 7.8698H10.4683C10.5304 7.8698 10.5899 7.84513 10.6338 7.80123C10.6777 7.75733 10.7024 7.69778 10.7024 7.63569V6.93337H11.4047C11.4668 6.93337 11.5264 6.9087 11.5703 6.8648C11.6142 6.82089 11.6388 6.76135 11.6388 6.69926V5.76283C11.6388 5.70074 11.6142 5.64119 11.5703 5.59729C11.5264 5.55338 11.4668 5.52872 11.4047 5.52872ZM11.1706 6.46515H10.4683C10.4062 6.46515 10.3467 6.48981 10.3028 6.53372C10.2589 6.57762 10.2342 6.63717 10.2342 6.69926V7.40158H9.76598V6.69926C9.76598 6.63717 9.74131 6.57762 9.69741 6.53372C9.6535 6.48981 9.59396 6.46515 9.53187 6.46515H8.82954V5.99693H9.53187C9.59396 5.99693 9.6535 5.97227 9.69741 5.92837C9.74131 5.88446 9.76598 5.82492 9.76598 5.76283V5.0605H10.2342V5.76283C10.2342 5.82492 10.2589 5.88446 10.3028 5.92837C10.3467 5.97227 10.4062 5.99693 10.4683 5.99693H11.1706V6.46515Z" fill="white"/>
<path d="M16.4916 6.78355C16.4963 6.74236 16.4987 6.70093 16.4986 6.65947C16.4975 6.44488 16.423 6.23712 16.2876 6.07064C16.1522 5.90416 15.964 5.78895 15.7542 5.74411C15.5168 5.69892 15.2711 5.74559 15.0668 5.87468C14.8626 6.00376 14.7149 6.20562 14.6538 6.43941L13.6238 9.40322C13.6085 9.40928 13.5937 9.41632 13.5793 9.42429L11.5098 10.637C11.1931 10.823 10.9304 11.0884 10.7477 11.407C10.565 11.7256 10.4686 12.0864 10.468 12.4536V14.6589C10.4059 14.6589 10.3464 14.6836 10.3025 14.7275C10.2586 14.7714 10.2339 14.831 10.2339 14.8931V16.7659C10.2339 16.828 10.2586 16.8876 10.3025 16.9315C10.3464 16.9754 10.4059 17 10.468 17H13.7455C13.8076 17 13.8671 16.9754 13.911 16.9315C13.955 16.8876 13.9796 16.828 13.9796 16.7659V14.8931C13.9796 14.831 13.955 14.7714 13.911 14.7275C13.8671 14.6836 13.8076 14.6589 13.7455 14.6589V14.1439C13.7459 14.045 13.767 13.9473 13.8073 13.857C13.8476 13.7667 13.9063 13.6858 13.9796 13.6195L15.5622 12.2125C15.7353 12.061 15.8592 11.8613 15.918 11.6389L16.9341 7.83938C16.9558 7.76003 16.9668 7.67816 16.9668 7.5959C16.9659 7.43069 16.9215 7.26864 16.8381 7.12603C16.7547 6.98343 16.6352 6.86531 16.4916 6.78355ZM15.101 6.57753C15.1297 6.45646 15.203 6.35067 15.3063 6.28125C15.4096 6.21183 15.5352 6.18387 15.6582 6.20296C15.7631 6.22494 15.8573 6.28226 15.9251 6.36535C15.9928 6.44844 16.03 6.55226 16.0304 6.65947V6.66415C15.8213 6.66803 15.6192 6.74011 15.4548 6.86943C15.2904 6.99874 15.1727 7.1782 15.1197 7.38052L14.4666 9.39619C14.3677 9.34929 14.2616 9.31922 14.1529 9.30723L15.101 6.57753ZM13.5114 16.5318H10.7021V15.1272H13.5114V16.5318ZM16.4822 7.71764L15.4639 11.5196C15.4286 11.6517 15.3554 11.7705 15.2532 11.8614L13.6683 13.2683C13.5456 13.3789 13.4475 13.514 13.3801 13.6648C13.3128 13.8156 13.2778 13.9788 13.2773 14.1439V14.6589H10.9362V12.4536C10.9374 12.168 11.0126 11.8876 11.1546 11.6397C11.2966 11.3919 11.5004 11.1851 11.7462 11.0396L13.8134 9.82929C13.8667 9.79824 13.9256 9.77802 13.9867 9.76981C14.0479 9.76159 14.11 9.76554 14.1696 9.78142C14.2293 9.7973 14.2851 9.8248 14.3341 9.86235C14.383 9.89989 14.4241 9.94674 14.4549 10.0002C14.5157 10.1084 14.5324 10.2358 14.5017 10.356C14.4854 10.4154 14.4576 10.471 14.4198 10.5196C14.3821 10.5682 14.3351 10.6089 14.2816 10.6393L12.9402 11.4142C12.8892 11.4466 12.8527 11.4974 12.8384 11.5561C12.824 11.6147 12.8329 11.6767 12.8631 11.7289C12.8933 11.7812 12.9426 11.8198 13.0005 11.8366C13.0585 11.8534 13.1208 11.8472 13.1743 11.8192L14.5157 11.0443C14.6229 10.9835 14.7169 10.9018 14.7921 10.8041C14.8673 10.7064 14.9222 10.5947 14.9535 10.4754C15.0172 10.2359 14.9836 9.98088 14.8599 9.76609L14.8458 9.74502L15.5692 7.51397C15.5979 7.3929 15.6713 7.28711 15.7745 7.21768C15.8778 7.14826 16.0034 7.1203 16.1264 7.13939C16.2313 7.16137 16.3255 7.21869 16.3933 7.30178C16.461 7.38487 16.4982 7.48869 16.4986 7.5959C16.4994 7.63708 16.4939 7.67814 16.4822 7.71764Z" fill="white"/>
<path d="M9.53156 14.6589V12.4536C9.53095 12.0863 9.43453 11.7255 9.25183 11.4069C9.06912 11.0883 8.80645 10.8229 8.48977 10.6369L6.42026 9.42187C6.40621 9.41485 6.38983 9.41017 6.37578 9.40315L5.35273 6.45572C5.29327 6.21852 5.14566 6.01289 4.93994 5.88068C4.73423 5.74846 4.48586 5.6996 4.24539 5.74404C4.03554 5.78887 3.84731 5.90408 3.71191 6.07057C3.5765 6.23705 3.50207 6.44481 3.50093 6.6594C3.50087 6.70086 3.50322 6.74229 3.50795 6.78348C3.36439 6.86524 3.24489 6.98336 3.16146 7.12596C3.07804 7.26856 3.03363 7.43062 3.03271 7.59583C3.03317 7.67791 3.04339 7.75964 3.06315 7.8393L4.08152 11.6365C4.13971 11.8598 4.26369 12.0605 4.43736 12.2124L6.01759 13.6194C6.09165 13.6853 6.15098 13.7661 6.19172 13.8564C6.23247 13.9468 6.2537 14.0447 6.25404 14.1438V14.6589C6.19195 14.6589 6.13241 14.6835 6.0885 14.7274C6.0446 14.7713 6.01993 14.8309 6.01993 14.893V16.7658C6.01993 16.8279 6.0446 16.8875 6.0885 16.9314C6.13241 16.9753 6.19195 17 6.25404 17H9.53156C9.59364 17 9.65319 16.9753 9.69709 16.9314C9.741 16.8875 9.76566 16.8279 9.76566 16.7658V14.893C9.76566 14.8309 9.741 14.7713 9.69709 14.7274C9.65319 14.6835 9.59364 14.6589 9.53156 14.6589ZM3.96915 6.6594C3.96944 6.55252 4.00629 6.44895 4.07357 6.3659C4.14086 6.28286 4.23454 6.22533 4.33904 6.20289C4.46538 6.18455 4.59398 6.21465 4.69905 6.28716C4.80412 6.35967 4.8779 6.46922 4.90558 6.59385L5.84669 9.30716C5.7379 9.31915 5.63188 9.34922 5.53299 9.39612L4.88451 7.39216C4.83173 7.18784 4.71385 7.00626 4.5487 6.8749C4.38355 6.74354 4.1801 6.66953 3.96915 6.66408V6.6594ZM6.32896 13.2683L4.74639 11.8613C4.64362 11.77 4.57029 11.6502 4.53569 11.5171L3.51498 7.71757C3.50529 7.67772 3.50057 7.63683 3.50093 7.59583C3.50122 7.48895 3.53807 7.38538 3.60536 7.30233C3.67265 7.21929 3.76632 7.16177 3.87082 7.13932C3.99627 7.12049 4.1242 7.14986 4.22887 7.22153C4.33354 7.29319 4.4072 7.40183 4.43502 7.5256L5.15373 9.74494L5.13969 9.76601C5.01598 9.9808 4.98232 10.2358 5.04604 10.4754C5.07739 10.5946 5.13227 10.7063 5.20745 10.804C5.28264 10.9017 5.3766 10.9834 5.48383 11.0442L6.82527 11.8191C6.87877 11.8471 6.94102 11.8534 6.99901 11.8365C7.057 11.8197 7.10625 11.7811 7.13646 11.7289C7.16668 11.6766 7.17553 11.6147 7.16117 11.556C7.1468 11.4974 7.11033 11.4465 7.05937 11.4141L5.71793 10.6392C5.66444 10.6088 5.61746 10.5681 5.5797 10.5195C5.54194 10.4709 5.51413 10.4153 5.49787 10.356C5.46712 10.2357 5.48389 10.1083 5.54469 10.0001C5.57528 9.94678 5.61608 9.89999 5.66475 9.86241C5.71343 9.82484 5.76902 9.79722 5.82837 9.78113C5.88772 9.76504 5.94965 9.7608 6.01064 9.76865C6.07163 9.7765 6.13047 9.79629 6.18381 9.82688L8.25333 11.0396C8.49913 11.185 8.70298 11.3918 8.84495 11.6397C8.98693 11.8875 9.06218 12.1679 9.06334 12.4536V14.6589H6.72226V14.1438C6.72186 13.9785 6.68663 13.815 6.61887 13.6642C6.5511 13.5133 6.45232 13.3784 6.32896 13.2683ZM9.29745 16.5317H6.48815V15.1271H9.29745V16.5317Z" fill="white"/>
<path d="M13.3118 3.68672C13.0944 3.46901 12.8363 3.29629 12.5522 3.17846C12.268 3.06062 11.9634 2.99998 11.6558 3C11.3481 3.00002 11.0435 3.06071 10.7594 3.17858C10.4753 3.29646 10.2172 3.46921 9.99985 3.68696C9.78257 3.46921 9.52448 3.29645 9.24034 3.17858C8.95621 3.06071 8.65162 3.00004 8.344 3.00004C8.03639 3.00004 7.7318 3.06071 7.44767 3.17858C7.16353 3.29645 6.90544 3.46921 6.68816 3.68696C6.24999 4.12607 6.00391 4.72107 6.00391 5.3414C6.00391 5.96173 6.24999 6.55673 6.68816 6.99584L9.83457 10.1423C9.87847 10.1861 9.93801 10.2108 10.0001 10.2108C10.0622 10.2108 10.1217 10.1861 10.1656 10.1423L13.312 6.99584C13.7502 6.55666 13.9962 5.9616 13.9962 5.34123C13.9961 4.72086 13.75 4.12584 13.3118 3.68672ZM9.99985 9.64571L7.01895 6.66481C6.75725 6.40275 6.57912 6.06899 6.50708 5.70571C6.43504 5.34243 6.47232 4.96594 6.61422 4.62385C6.75611 4.28175 6.99624 3.98941 7.30426 3.78377C7.61228 3.57813 7.97435 3.46843 8.34471 3.46853C8.59073 3.46769 8.83445 3.51584 9.06167 3.61017C9.28888 3.70451 9.49504 3.84314 9.66812 4.01799L9.83434 4.1842C9.87824 4.22809 9.93777 4.25275 9.99985 4.25275C10.0619 4.25275 10.1215 4.22809 10.1654 4.1842L10.3321 4.01752C10.5059 3.8434 10.7123 3.70526 10.9395 3.61102C11.1668 3.51677 11.4104 3.46825 11.6564 3.46825C11.9024 3.46825 12.146 3.51677 12.3733 3.61102C12.6005 3.70526 12.8069 3.8434 12.9808 4.01752C13.3314 4.36867 13.5284 4.84466 13.5284 5.34093C13.5284 5.8372 13.3314 6.31319 12.9808 6.66434L9.99985 9.64571Z" fill="white"/>
</svg>