<svg xmlns="http://www.w3.org/2000/svg" width="15.263" height="15.234" viewBox="0 0 15.263 15.234">
  <g id="Group_56124" data-name="Group 56124" transform="translate(-15159.089 -5259.703)">
    <g id="Group_56123" data-name="Group 56123" transform="translate(15159.089 5259.703)">
      <path id="Path_83522" data-name="Path 83522" d="M386.507,23.953a3.589,3.589,0,0,0-1.31-2.308.645.645,0,0,0-.375-.162.6.6,0,0,0-.6.381.591.591,0,0,0,.2.69,2.341,2.341,0,0,1,.918,1.883q.013,2.521,0,5.042a2.376,2.376,0,0,1-2.367,2.355q-4.069,0-8.137,0a2.377,2.377,0,0,1-2.37-2.351q-.01-2.528,0-5.057a2.229,2.229,0,0,1,.884-1.821c1.364-1.057,2.734-2.107,4.119-3.137a2.3,2.3,0,0,1,2.512-.223,6.433,6.433,0,0,1,1.029.73c.525.392,1.043.792,1.564,1.188a.579.579,0,0,0,.642.076.55.55,0,0,0,.332-.508q.01-1,0-2.008a.561.561,0,0,0-.411-.543.588.588,0,0,0-.777.559c-.007.246,0,.492,0,.763l-.133-.1c-.383-.291-.764-.584-1.15-.873a3.58,3.58,0,0,0-4.37.012q-2,1.516-3.99,3.037a3.578,3.578,0,0,0-1.4,2.3c-.008.043.013.1-.046.13v5.831c.03.139.02.284.054.422a3.594,3.594,0,0,0,1.826,2.373,3.123,3.123,0,0,0,1.31.388h8.824c.165-.029.334-.015.5-.057a3.6,3.6,0,0,0,2.363-1.819,3.111,3.111,0,0,0,.389-1.307v-5.8C386.491,24.026,386.512,23.983,386.507,23.953Z" transform="translate(-371.277 -17.791)" fill=""/>
      <path id="Path_83523" data-name="Path 83523" d="M515.246,190.677a.744.744,0,0,0-.752.724.745.745,0,1,0,1.489.015A.744.744,0,0,0,515.246,190.677Z" transform="translate(-508.799 -183.803)" fill=""/>
      <path id="Path_83524" data-name="Path 83524" d="M575.225,190.727a.741.741,0,1,0,.744.745A.733.733,0,0,0,575.225,190.727Z" transform="translate(-566.4 -183.851)" fill=""/>
      <path id="Path_83525" data-name="Path 83525" d="M514.5,251.331a.744.744,0,1,0,.745-.743A.736.736,0,0,0,514.5,251.331Z" transform="translate(-508.804 -241.332)" fill=""/>
      <path id="Path_83526" data-name="Path 83526" d="M574.48,251.325a.745.745,0,1,0,.751-.737A.735.735,0,0,0,574.48,251.325Z" transform="translate(-566.4 -241.331)" fill=""/>
    </g>
    <path id="Path_83522-2" data-name="Path 83522" d="M386.507,23.953a3.589,3.589,0,0,0-1.31-2.308.645.645,0,0,0-.375-.162.6.6,0,0,0-.6.381.591.591,0,0,0,.2.69,2.341,2.341,0,0,1,.918,1.883q.013,2.521,0,5.042a2.376,2.376,0,0,1-2.367,2.355q-4.069,0-8.137,0a2.377,2.377,0,0,1-2.37-2.351q-.01-2.528,0-5.057a2.229,2.229,0,0,1,.884-1.821c1.364-1.057,2.734-2.107,4.119-3.137a2.3,2.3,0,0,1,2.512-.223,6.433,6.433,0,0,1,1.029.73c.525.392,1.043.792,1.564,1.188a.579.579,0,0,0,.642.076.55.55,0,0,0,.332-.508q.01-1,0-2.008a.561.561,0,0,0-.411-.543.588.588,0,0,0-.777.559c-.007.246,0,.492,0,.763l-.133-.1c-.383-.291-.764-.584-1.15-.873a3.58,3.58,0,0,0-4.37.012q-2,1.516-3.99,3.037a3.578,3.578,0,0,0-1.4,2.3c-.008.043.013.1-.046.13v5.831c.03.139.02.284.054.422a3.594,3.594,0,0,0,1.826,2.373,3.123,3.123,0,0,0,1.31.388h8.824c.165-.029.334-.015.5-.057a3.6,3.6,0,0,0,2.363-1.819,3.111,3.111,0,0,0,.389-1.307v-5.8C386.491,24.026,386.512,23.983,386.507,23.953Z" transform="translate(14787.812 5241.912)" fill=""/>
    <path id="Path_85826" data-name="Path 85826" d="M382.158,21.875A1.9,1.9,0,0,1,382.9,23.4q.01,2.043,0,4.086a1.925,1.925,0,0,1-1.918,1.908q-3.3,0-6.594,0a1.926,1.926,0,0,1-1.921-1.905q-.008-2.049,0-4.1a1.806,1.806,0,0,1,.716-1.476c1.105-.857,2.216-1.707,3.338-2.542a1.865,1.865,0,0,1,2.036-.181,5.213,5.213,0,0,1,.834.592c.425.317.845.641,1.268.962C380.823,20.869,381.977,21.728,382.158,21.875Z" transform="translate(14789.033 5243.136)" fill=""/>
    <path id="Path_83523-2" data-name="Path 83523" d="M515.246,190.677a.744.744,0,0,0-.752.724.745.745,0,1,0,1.489.015A.744.744,0,0,0,515.246,190.677Z" transform="translate(14650.29 5075.9)" fill="#fff"/>
    <path id="Path_83524-2" data-name="Path 83524" d="M575.225,190.727a.741.741,0,1,0,.744.745A.733.733,0,0,0,575.225,190.727Z" transform="translate(14592.688 5075.852)" fill="#fff"/>
    <path id="Path_83525-2" data-name="Path 83525" d="M514.5,251.331a.744.744,0,1,0,.745-.743A.736.736,0,0,0,514.5,251.331Z" transform="translate(14650.284 5018.371)" fill="#fff"/>
    <path id="Path_83526-2" data-name="Path 83526" d="M574.48,251.325a.745.745,0,1,0,.751-.737A.735.735,0,0,0,574.48,251.325Z" transform="translate(14592.688 5018.372)" fill="#fff"/>
  </g>
</svg>
