<svg xmlns="http://www.w3.org/2000/svg" width="22.04" height="22" viewBox="0 0 22.04 22">
  <g id="Group_56663" data-name="Group 56663" transform="translate(-0.001 0)">
    <path id="Path_87513" data-name="Path 87513" d="M1041.021,127.057q-9.112.014-18.224.006a.89.89,0,0,1-1.024-1.021q0-9.1,0-18.21c0-.079,0-.158,0-.236a.858.858,0,0,0-1.644-.3c-.026.058-.051.116-.076.174V126.59c.05.155.033.322.094.477a2.525,2.525,0,0,0,2.1,1.715H1041.4a1.007,1.007,0,0,0,.689-.687v-.344A.981.981,0,0,0,1041.021,127.057Z" transform="translate(-1020.05 -106.781)" fill="#676767"/>
    <path id="Path_87514" data-name="Path 87514" d="M1319.061,108.965a2.579,2.579,0,0,0-5.125.4q-.006,6.8,0,13.591a2.581,2.581,0,0,0,5.052.737,1.157,1.157,0,0,1,.111-.358V109.033C1319.067,109.021,1319.066,108.993,1319.061,108.965Zm-1.683,3.4v3.822q0,3.35,0,6.7a.862.862,0,0,1-1.719.127c0-.05,0-.1,0-.15q0-6.7,0-13.4a.873.873,0,0,1,.776-.943.86.86,0,0,1,.945.881C1317.38,110.389,1317.378,111.377,1317.378,112.365Z" transform="translate(-1297.058 -106.796)" fill="#676767"/>
    <path id="Path_87515" data-name="Path 87515" d="M1196.97,204.717a3.307,3.307,0,0,0,.04.534,2.581,2.581,0,0,0,5.084-.011,12.211,12.211,0,0,0,.039-1.823q.01-3.609,0-7.217a2.581,2.581,0,0,0-5.162.011c-.005,1.425,0,2.85,0,4.274S1196.971,203.306,1196.97,204.717Zm1.724-8.484a.86.86,0,1,1,1.719-.019c.005.408,0,.816,0,1.224q0,3.65,0,7.3a.861.861,0,1,1-1.72.041c0-1.431,0-2.863,0-4.294S1198.689,197.65,1198.694,196.233Z" transform="translate(-1186.81 -188.646)" fill="#676767"/>
    <path id="Path_87516" data-name="Path 87516" d="M1079.305,320.22a2.6,2.6,0,0,0,2.764-1.932,6.668,6.668,0,0,0,.081-1.411c0-.386,0-.686,0-.987a2.582,2.582,0,0,0-5.163.012q-.008.891,0,1.783A2.592,2.592,0,0,0,1079.305,320.22Zm-.6-4.286a.859.859,0,1,1,1.719,0q.01.858,0,1.716a.859.859,0,1,1-1.719,0c-.005-.286,0-.572,0-.858S1078.7,316.221,1078.709,315.935Z" transform="translate(-1073.713 -301.496)" fill="#676767"/>
    <path id="Path_87517" data-name="Path 87517" d="M1077.905,108.557a.859.859,0,1,0-.863-.856A.861.861,0,0,0,1077.905,108.557Z" transform="translate(-1073.769 -106.836)" fill="#676767"/>
    <path id="Path_87518" data-name="Path 87518" d="M1137.872,108.557a.859.859,0,1,0-.851-.868A.861.861,0,0,0,1137.872,108.557Z" transform="translate(-1130.305 -106.836)" fill="#676767"/>
    <path id="Path_87519" data-name="Path 87519" d="M1197.855,108.557a.859.859,0,1,0-.852-.867A.861.861,0,0,0,1197.855,108.557Z" transform="translate(-1186.842 -106.836)" fill="#676767"/>
    <path id="Path_87520" data-name="Path 87520" d="M1257.84,108.557a.859.859,0,1,0-.857-.862A.862.862,0,0,0,1257.84,108.557Z" transform="translate(-1243.379 -106.836)" fill="#676767"/>
    <path id="Path_87521" data-name="Path 87521" d="M1077.905,225.288a.859.859,0,1,0-.864-.856A.861.861,0,0,0,1077.905,225.288Z" transform="translate(-1073.769 -216.865)" fill="#676767"/>
    <path id="Path_87522" data-name="Path 87522" d="M1137.881,225.288a.859.859,0,1,0-.859-.86A.862.862,0,0,0,1137.881,225.288Z" transform="translate(-1130.305 -216.865)" fill="#676767"/>
  </g>
</svg>
