<svg id="Group_55264" data-name="Group 55264" xmlns="http://www.w3.org/2000/svg" width="15.263" height="13.097" viewBox="0 0 15.263 13.097">
  <path id="Path_83499" data-name="Path 83499" d="M358.5,135.235a1.78,1.78,0,0,0-1.835-1.514h-2.891c-1.326,0-2.653,0-3.979,0a1.784,1.784,0,0,0,.028,3.568c.78,0,1.56,0,2.34,0,1.525,0,3.05,0,4.575,0a1.781,1.781,0,0,0,1.76-1.512.048.048,0,0,0,.026,0v-.506C358.514,135.257,358.5,135.247,358.5,135.235Zm-1.311.653a.606.606,0,0,1-.5.215q-1.766,0-3.531,0l-2.563,0c-.263,0-.526.008-.789,0a.593.593,0,0,1,0-1.186c.253-.005.506,0,.759,0q1.043,0,2.086,0,2.034,0,4.068,0a.573.573,0,0,1,.557.351A.559.559,0,0,1,357.188,135.888Z" transform="translate(-343.259 -133.716)" fill=""/>
  <path id="Path_83500" data-name="Path 83500" d="M356.664,253.446h-2.891c-1.326,0-2.653,0-3.979,0a1.784,1.784,0,0,0,.028,3.568c.78,0,1.56,0,2.34,0,1.525,0,3.05,0,4.575,0a1.781,1.781,0,0,0,1.76-1.512.047.047,0,0,0,.026,0v-.506c-.008-.011-.021-.021-.024-.033A1.78,1.78,0,0,0,356.664,253.446Zm.66,1.874a.6.6,0,0,1-.548.5c-.03,0-.06,0-.089,0h-6.019c-.035,0-.069,0-.1,0h0c-.258,0-.516.01-.774,0a.593.593,0,0,1,0-1.185c.258-.008.516,0,.774,0,.2,0,.407,0,.61,0h5.483a.793.793,0,0,1,.293.041A.6.6,0,0,1,357.325,255.32Z" transform="translate(-343.259 -248.68)" fill=""/>
  <path id="Path_83501" data-name="Path 83501" d="M356.664,373.171h-2.891c-1.326,0-2.653,0-3.979,0a1.784,1.784,0,0,0,.028,3.568c.78,0,1.56,0,2.34,0,1.525,0,3.05,0,4.575,0a1.781,1.781,0,0,0,1.76-1.512.047.047,0,0,0,.026,0v-.506c-.008-.011-.021-.021-.024-.033A1.78,1.78,0,0,0,356.664,373.171Zm.524,2.167a.606.606,0,0,1-.5.215q-1.751,0-3.5,0l-2.622,0c-.253,0-.506.008-.759,0a.593.593,0,0,1,0-1.186c.263-.005.526,0,.789,0,.536,0,1.073,0,1.609,0h4.5a.582.582,0,0,1,.572.351A.559.559,0,0,1,357.188,375.338Z" transform="translate(-343.259 -363.645)" fill=""/>
  <path id="Path_83502" data-name="Path 83502" d="M229.7,257.054a1.787,1.787,0,1,0-1.579-2.212c-.012.045-.009.1-.055.132v.6c.049.043.047.106.061.161A1.814,1.814,0,0,0,229.7,257.054Zm.155-2.377a.595.595,0,1,1-.6.594A.594.594,0,0,1,229.854,254.677Z" transform="translate(-228.064 -248.721)" fill=""/>
  <path id="Path_83503" data-name="Path 83503" d="M230.056,133.635a1.8,1.8,0,0,0-1.915,1.258.829.829,0,0,1-.077.249v.536c.049.044.04.109.054.163a1.788,1.788,0,1,0,1.938-2.206Zm-.2,2.37a.595.595,0,1,1,.593-.6A.6.6,0,0,1,229.856,136Z" transform="translate(-228.064 -133.62)" fill=""/>
  <path id="Path_83504" data-name="Path 83504" d="M230.056,373.085a1.8,1.8,0,0,0-1.915,1.258.829.829,0,0,1-.077.249v.536c.049.044.04.109.054.163a1.788,1.788,0,1,0,1.938-2.206Zm-.2,2.37a.595.595,0,1,1,.59-.6A.6.6,0,0,1,229.859,375.455Z" transform="translate(-228.064 -363.549)" fill=""/>
</svg>
