<svg id="Group_55267" data-name="Group 55267" xmlns="http://www.w3.org/2000/svg" width="18.118" height="18.074" viewBox="0 0 18.118 18.074">
  <path id="Path_83510" data-name="Path 83510" d="M229.112,108.887a.911.911,0,0,0,.76-.869.9.9,0,0,0-1.755-.306c-.011.031,0,.073-.047.086v.388c.04.018.032.059.043.09A.913.913,0,0,0,229.112,108.887Z" transform="translate(-228.071 -107.101)" fill="#676767"/>
  <path id="Path_83511" data-name="Path 83511" d="M575.491,107.65a.9.9,0,0,0-1.762.225.9.9,0,0,0,1.738.358c.019-.046.01-.107.063-.139v-.353C575.49,107.722,575.5,107.681,575.491,107.65Z" transform="translate(-557.412 -107.008)" fill="#676767"/>
  <path id="Path_83512" data-name="Path 83512" d="M250.258,167.239a.7.7,0,0,0-.861.6c-.119.557-.237,1.115-.345,1.674a3.223,3.223,0,0,1-3.764,2.575,3.149,3.149,0,0,1-2.677-3.2c0-.365.005-.73,0-1.095a.672.672,0,0,0-.438-.663.7.7,0,0,0-.972.664c-.007.4.006.8,0,1.2a3.059,3.059,0,0,1-.477,1.638,3.2,3.2,0,0,1-3.166,1.477,3.1,3.1,0,0,1-2.711-2.418c-.081-.4-.151-.8-.227-1.195-.042-.219-.084-.438-.13-.657a.708.708,0,1,0-1.383.277c.13.693.266,1.385.4,2.077.419,2.18.848,4.359,1.254,6.542a3.2,3.2,0,0,0,3.288,2.75H241.9c1.321,0,2.642,0,3.963,0a3.2,3.2,0,0,0,3.2-2.669c.405-2.105.83-4.207,1.248-6.31.158-.8.32-1.589.476-2.385A.714.714,0,0,0,250.258,167.239Zm-1.884,5.746c-.247,1.245-.484,2.491-.747,3.732a1.74,1.74,0,0,1-1.718,1.359c-1.657.007-3.314,0-4.971,0q-1.477,0-2.954,0a1.76,1.76,0,0,1-1.819-1.5c-.235-1.2-.465-2.4-.7-3.6-.008-.04-.01-.08-.018-.145a4.706,4.706,0,0,0,6.44-1.424c.058,0,.066.06.09.1a4.554,4.554,0,0,0,3.372,2.014,4.469,4.469,0,0,0,2.9-.625c.036-.022.077-.078.12-.034C248.391,172.888,248.381,172.946,248.374,172.985Z" transform="translate(-232.844 -164.244)" fill="#676767"/>
  <path id="Path_83513" data-name="Path 83513" d="M290.135,459.884a1.327,1.327,0,0,0-.316-.024H278.026c-.065,0-.13,0-.194,0a.7.7,0,0,0-.079,1.384.043.043,0,0,1,.005.031h12.314a.058.058,0,0,0,.007-.029.7.7,0,0,0,.056-1.366Z" transform="translate(-274.856 -443.205)" fill="#676767"/>
  <path id="Path_83514" data-name="Path 83514" d="M305.072,170.568a.706.706,0,0,0,.983-.191c.051-.071.1-.144.154-.228.066.1.117.18.177.257a.678.678,0,0,0,.7.268.666.666,0,0,0,.54-.5.73.73,0,0,0-.133-.648,3.112,3.112,0,0,1-.583-1.69.7.7,0,0,0-.687-.705.707.707,0,0,0-.725.689c-.009.117-.01.235-.026.351a3.394,3.394,0,0,1-.588,1.417A.694.694,0,0,0,305.072,170.568Z" transform="translate(-301.141 -164.294)" fill="#676767"/>
  <path id="Path_83515" data-name="Path 83515" d="M474.148,170.594a.706.706,0,0,0,.971-.179c.054-.074.1-.15.167-.241.057.084.1.158.154.228a.7.7,0,1,0,1.157-.805,4,4,0,0,1-.51-1.057,7.455,7.455,0,0,1-.116-.817.682.682,0,0,0-.741-.562.691.691,0,0,0-.648.669,3.53,3.53,0,0,1-.055.507,3.608,3.608,0,0,1-.575,1.293A.694.694,0,0,0,474.148,170.594Z" transform="translate(-462.235 -164.319)" fill="#676767"/>
  <path id="Path_83516" data-name="Path 83516" d="M317.321,108.815a.9.9,0,0,0,.924-.871.894.894,0,0,0-.888-.922.883.883,0,0,0-.909.878A.893.893,0,0,0,317.321,108.815Z" transform="translate(-312.275 -107.021)" fill="#676767"/>
  <path id="Path_83517" data-name="Path 83517" d="M486.323,108.815a.9.9,0,1,0-.9-.881A.905.905,0,0,0,486.323,108.815Z" transform="translate(-473.279 -107.021)" fill="#676767"/>
  <path id="Path_83518" data-name="Path 83518" d="M402.618,108.816a.894.894,0,0,0,.907-.883.9.9,0,1,0-1.794,0A.894.894,0,0,0,402.618,108.816Z" transform="translate(-393.534 -107.022)" fill="#676767"/>
  <path id="Path_83519" data-name="Path 83519" d="M402.62,329.582a.891.891,0,0,0-.894.881.9.9,0,1,0,1.794-.007A.891.891,0,0,0,402.62,329.582Z" transform="translate(-393.53 -319.076)" fill="#676767"/>
  <path id="Path_83520" data-name="Path 83520" d="M324.832,329.576a.89.89,0,0,0-.9.872.9.9,0,1,0,1.8.013A.9.9,0,0,0,324.832,329.576Z" transform="translate(-319.404 -319.07)" fill="#676767"/>
  <path id="Path_83521" data-name="Path 83521" d="M478.1,329.577a.9.9,0,0,0-.9.882.9.9,0,1,0,1.8-.008A.89.89,0,0,0,478.1,329.577Z" transform="translate(-465.441 -319.071)" fill="#676767"/>
</svg>
