<svg xmlns="http://www.w3.org/2000/svg" width="11.145" height="11.134" viewBox="0 0 11.145 11.134">
  <g id="Group_56569" data-name="Group 56569" transform="translate(-228.065 -106.454)">
    <path id="Path_84645" data-name="Path 84645" d="M411.016,285.679a.274.274,0,0,1-.055-.007.65.65,0,0,1-.07-.035.292.292,0,0,1-.049-.053,1.674,1.674,0,0,0-2.564-.175.906.906,0,0,1-.548.305,1.476,1.476,0,0,0-1.226,1.36,1.547,1.547,0,0,0,1.012,1.559.094.094,0,0,1,.073.107c0,.282,0,.564,0,.847a1.3,1.3,0,0,0,.938,1.21c.05.014.107.01.149.048h1.567c.087-.023.179-.01.265-.04a1.348,1.348,0,0,0,.9-1.24q0-.385,0-.77c0-.067.013-.119.084-.146a1.515,1.515,0,0,0,.621-.443,1.235,1.235,0,0,0,.343-.81h0l.008-.005v-.413l-.019,0A1.518,1.518,0,0,0,411.016,285.679Zm-.98,4.3h-.555c-.2,0-.392,0-.588,0a.416.416,0,0,1-.434-.429c0-.246,0-.492,0-.739,0-.058.016-.072.073-.072.261,0,.522,0,.783,0a.421.421,0,0,0,.424-.375.429.429,0,0,0-.268-.461.56.56,0,0,0-.2-.032h-1.088a1.253,1.253,0,0,1-.3-.033.653.653,0,0,1-.5-.694.634.634,0,0,1,.611-.6.93.93,0,0,1,.206,0,.438.438,0,0,0,.525-.278.83.83,0,0,1,1.524-.009.494.494,0,0,0,.205.244.461.461,0,0,0,.315.045.662.662,0,1,1,.261,1.3l-.119.014a.427.427,0,0,0-.4.436c0,.4,0,.8,0,1.206A.425.425,0,0,1,410.035,289.977Z" transform="translate(-173.253 -173.258)"/>
    <path id="Path_84646" data-name="Path 84646" d="M233.075,424.452H230.4a1.757,1.757,0,0,1-1.074-.351,1.877,1.877,0,0,1-.462-.513.406.406,0,0,0-.409-.2.423.423,0,0,0-.368.3c-.006.016-.015.032-.022.047v.174a.558.558,0,0,0,.115.274,2.663,2.663,0,0,0,.791.763,2.469,2.469,0,0,0,1.1.375H233.2a.232.232,0,0,1,.036-.02.434.434,0,0,0-.163-.849Z" transform="translate(0 -307.733)"/>
    <path id="Path_84647" data-name="Path 84647" d="M239.155,108.405a2.592,2.592,0,0,0-.787-1.289,2.436,2.436,0,0,0-1.657-.662h-6.147a1.836,1.836,0,0,0-.314.02,2.591,2.591,0,0,0-1.9,1.348,2.217,2.217,0,0,0-.287.946v4.758a1.352,1.352,0,0,1,.065.3,2.6,2.6,0,0,0,2.25,2c.665.059,1.334.017,2,.019a.4.4,0,0,0,.385-.3.429.429,0,0,0-.432-.566c-.548,0-1.1,0-1.643,0a1.737,1.737,0,0,1-1.755-1.749q0-2.074,0-4.149a1.735,1.735,0,0,1,1.753-1.749q2.949,0,5.9,0a1.737,1.737,0,0,1,1.751,1.751c0,.315,0,.63,0,.945,0,.431,0,.862,0,1.292a.43.43,0,0,0,.567.42.46.46,0,0,0,.3-.325v-2.607C239.186,108.677,239.192,108.539,239.155,108.405Z" transform="translate(0 0)"/>
    <path id="Path_84648" data-name="Path 84648" d="M405.421,170.391a.437.437,0,0,0,.439-.475q0-.678,0-1.357c0-.46,0-.919,0-1.379a.426.426,0,0,0-.3-.438.431.431,0,0,0-.567.442q0,1.368,0,2.736A.436.436,0,0,0,405.421,170.391Z" transform="translate(-171.787 -58.517)"/>
    <path id="Path_84649" data-name="Path 84649" d="M290.135,250.591a.435.435,0,1,0,0-.868h-1.6a.538.538,0,0,0-.192.032.43.43,0,0,0-.268.47.42.42,0,0,0,.421.366c.279.005.558,0,.837,0h0C289.6,250.591,289.866,250.593,290.135,250.591Z" transform="translate(-58.259 -139.108)"/>
    <path id="Path_84650" data-name="Path 84650" d="M290.125,190.732a.435.435,0,1,0,0-.868c-.533,0-1.066,0-1.6,0a.532.532,0,0,0-.191.032.429.429,0,0,0-.267.471.42.42,0,0,0,.422.364c.275.005.551,0,.826,0h0C289.589,190.732,289.857,190.734,290.125,190.732Z" transform="translate(-58.259 -80.987)"/>
    <path id="Path_84651" data-name="Path 84651" d="M465.51,190.733q.794,0,1.588,0a.435.435,0,1,0,0-.868c-.265,0-.529,0-.794,0s-.529,0-.794,0a.435.435,0,1,0,0,.868Z" transform="translate(-230.098 -80.988)"/>
    <path id="Path_84652" data-name="Path 84652" d="M288.546,309.54a.434.434,0,1,0,0,.867c.127,0,.254,0,.381,0s.261,0,.391,0a.434.434,0,1,0,0-.867Q288.932,309.535,288.546,309.54Z" transform="translate(-58.297 -197.187)"/>
  </g>
</svg>
