<svg xmlns="http://www.w3.org/2000/svg" width="241.372" height="187.5" viewBox="0 0 241.372 187.5">
  <g id="Group_55128" data-name="Group 55128" transform="translate(-20.076 -54.757)">
    <path id="Path_83064" data-name="Path 83064" d="M261.171,116.842c-.987-14.169-6.949-31.056-16.5-41.548-9.2-10.143-18.706-16.6-32.065-19.587-12.966-2.9-33.158,1.192-44.853,7.5-15.068,8.124-22.942,26.336-38.47,33.535-14.258,6.61-30.934,2.218-46.584,3.205-29.625,1.869-56.411,25.832-61.557,55.069-4.769,27.08,6.7,51.575,29.42,66.659,11.064,7.354,23.68,12.112,36.574,15.389,55.568,14.141,127.961.311,158.484-52.567A119.785,119.785,0,0,0,261.171,116.842Z" transform="translate(0)" fill="#ededed"/>
    <g id="freepik--character-2--inject-212" transform="translate(161.937 67.297)">
      <rect id="Rectangle_4470" data-name="Rectangle 4470" width="72.953" height="119.437" transform="translate(18.745 2.273) rotate(-0.3)" fill="#fafafa"/>
      <rect id="Rectangle_4471" data-name="Rectangle 4471" width="68.217" height="3.377" transform="translate(21.606 6.361)" fill="#e0e0e0"/>
      <rect id="Rectangle_4472" data-name="Rectangle 4472" width="68.217" height="3.377" transform="translate(21.606 11.158)" fill="#e0e0e0"/>
      <rect id="Rectangle_4473" data-name="Rectangle 4473" width="68.217" height="3.377" transform="translate(21.606 15.949)" fill="#e0e0e0"/>
      <rect id="Rectangle_4474" data-name="Rectangle 4474" width="68.217" height="3.377" transform="translate(21.606 20.746)" fill="#e0e0e0"/>
      <rect id="Rectangle_4475" data-name="Rectangle 4475" width="68.217" height="3.377" transform="translate(21.606 25.543)" fill="#e0e0e0"/>
      <path id="Path_83065" data-name="Path 83065" d="M431.91,114.694c0-17.341.061-31.394.139-31.394s.139,14.058.139,31.394-.061,31.394-.139,31.394S431.91,132.035,431.91,114.694Z" transform="translate(-345.381 -80.011)" fill="#e0e0e0"/>
      <rect id="Rectangle_4476" data-name="Rectangle 4476" width="68.217" height="3.377" transform="translate(21.295 30.335)" fill="#e0e0e0"/>
      <path id="Path_83066" data-name="Path 83066" d="M307.86,77.764l75.3-.394.649,123.5-75.3.394Zm71.55,3.394-67.763.355.643,115.96,67.757-.36Z" transform="translate(-290.125 -77.37)" fill="#263238"/>
      <rect id="Rectangle_4477" data-name="Rectangle 4477" width="71.528" height="3.067" transform="translate(19.948 28.821)" fill="#263238"/>
      <path id="Path_83067" data-name="Path 83067" d="M307.954,223.2,302,224.9s-8.319-4.076-8.651-4.437.482-.915.482-.915a12.93,12.93,0,0,1-2.168-1.109c-.4-.372-.05-1.2-.05-1.2-.815-.25-.693-1.181-.46-1.569s1.259-.172,1.259-.172a2.7,2.7,0,0,1,.122-.937c.15-.444,10.492.982,10.492.982a31.21,31.21,0,0,1-3.882-1.825c-.826-.6-.233-1.747-.233-1.747l2.473.7a49.591,49.591,0,0,1,5.945,2.828c1.181.876,1.547,4.231,1.547,4.409Z" transform="translate(-282.605 -137.325)" fill="#ffbe9d"/>
      <path id="Path_83068" data-name="Path 83068" d="M295.97,218.841a13.141,13.141,0,0,1-2.44-.516,9.545,9.545,0,0,1,2.49.244,13.979,13.979,0,0,1,2.44.51A9.11,9.11,0,0,1,295.97,218.841Z" transform="translate(-283.742 -140.154)" fill="#eb996e"/>
      <path id="Path_83069" data-name="Path 83069" d="M294.847,221.908a14.09,14.09,0,0,1,2.74.621,14.584,14.584,0,0,1-2.773-.344,14.077,14.077,0,0,1-2.734-.616A14.255,14.255,0,0,1,294.847,221.908Z" transform="translate(-283.096 -141.601)" fill="#eb996e"/>
      <path id="Path_83070" data-name="Path 83070" d="M295.5,225.58a20.26,20.26,0,0,1,4.608,1.3,10.132,10.132,0,0,1-2.34-.516,10.46,10.46,0,0,1-2.268-.787Z" transform="translate(-284.619 -143.388)" fill="#eb996e"/>
      <path id="Path_83071" data-name="Path 83071" d="M313.83,219.844s12.128,17.258,14.419,17.508,6.938-1.908,6.938-1.908l-.161,5.962-1.4,10.4,32.387-.311,2.961-36.94-3.006-8.418-12.2-6.555s-2.224,2.612-7.11,2.423c-4.8-.177-3.688-1.919-3.688-1.919-.826.588-7.47,3.882-9.195,7.209-.133.255.011-.011-.177.222s.078-.288,0,0l-5.346,15.068-9.2-8.2Z" transform="translate(-292.784 -131.806)" fill="#455a64"/>
      <path id="Path_83072" data-name="Path 83072" d="M352.493,234.405c.177-8.341.383-15.1.46-15.1s0,6.766-.177,15.1-.383,15.1-.46,15.1S352.316,242.746,352.493,234.405Z" transform="translate(-309.914 -140.595)" fill="#263238"/>
      <path id="Path_83073" data-name="Path 83073" d="M374.134,212.505c-1.5-1.747-4.947-1.969-6.771-1.07s-14.607,20.38-14.607,20.38l-19.3-8.1-5.707,8.757s25.394,11.89,28.6,11.862c2.418,0,11.718-9.428,16.493-16.637,1.924-2.917,3.9-8.352,2.945-11.679A12.015,12.015,0,0,0,374.134,212.505Z" transform="translate(-298.985 -136.857)" fill="#455a64"/>
      <path id="Path_83074" data-name="Path 83074" d="M361.691,222.8l-.449.721-1.752,2.773L353,236.349l-.044.067h-.078l-19.6-7.387.161-.05-5.7,8.757-.061-.2,4.514,2c6.66,2.934,13.027,5.679,18.889,7.991a38.766,38.766,0,0,0,4.331,1.508,7.139,7.139,0,0,0,2.152.211,5.183,5.183,0,0,0,2.008-.555,11.578,11.578,0,0,0,3.089-2.529c.882-.932,1.714-1.863,2.484-2.773a82.861,82.861,0,0,0,6.694-9.073c.721-1.12,1.253-2.008,1.614-2.612l.4-.682c.094-.155.15-.233.15-.233s-.039.089-.122.244l-.383.7c-.349.61-.865,1.531-1.569,2.64a79.536,79.536,0,0,1-6.655,9.139q-1.148,1.37-2.473,2.817a11.8,11.8,0,0,1-3.15,2.59,5.434,5.434,0,0,1-2.091.582,7.4,7.4,0,0,1-2.218-.211,37.061,37.061,0,0,1-4.37-1.508c-5.873-2.3-12.25-5.041-18.905-7.975l-4.514-2-.172-.05.089-.139,5.712-8.757.055-.089.1.039,19.582,7.448-.116.039,6.561-10.01,1.8-2.717.477-.7c.105-.155.166-.233.166-.233A.683.683,0,0,1,361.691,222.8Z" transform="translate(-298.82 -142.078)" fill="#263238"/>
      <path id="Path_83075" data-name="Path 83075" d="M389.317,226.828a14.454,14.454,0,0,1,1.386.494,21.559,21.559,0,0,1,4.248,2.351,21.283,21.283,0,0,1,3.6,3.244c.41.471.721.865.921,1.148a1.93,1.93,0,0,1,.294.455c-.039.028-.516-.571-1.364-1.464a24.947,24.947,0,0,0-3.621-3.155,25.792,25.792,0,0,0-4.159-2.4c-1.126-.51-1.836-.76-1.836-.8A1.817,1.817,0,0,1,389.317,226.828Z" transform="translate(-326.174 -143.886)" fill="#fafafa"/>
      <path id="Path_83076" data-name="Path 83076" d="M377.33,245.947c.288.133.693.349,1.192.627a35.758,35.758,0,0,1,3.738,2.418,36.494,36.494,0,0,1,3.416,2.867c.394.4.732.726.948.959a2.94,2.94,0,0,1,.311.383,15.882,15.882,0,0,1-1.4-1.2c-.849-.738-2.052-1.747-3.444-2.773s-2.706-1.88-3.671-2.473a15.621,15.621,0,0,1-1.553-.987A1.741,1.741,0,0,1,377.33,245.947Z" transform="translate(-320.864 -152.381)" fill="#fafafa"/>
      <path id="Path_83077" data-name="Path 83077" d="M363.065,253.795a25.466,25.466,0,0,0,1.065-3.416,25.862,25.862,0,0,0,.555-3.533,11.825,11.825,0,0,1,.144-1.486,6.208,6.208,0,0,1,.055,1.5,18.984,18.984,0,0,1-1.664,7.015,6.455,6.455,0,0,1-.71,1.32A10.892,10.892,0,0,1,363.065,253.795Z" transform="translate(-314.468 -152.198)" fill="#fafafa"/>
      <path id="Path_83078" data-name="Path 83078" d="M340.961,247.152c.5-.76,1.17-1.836,1.819-3.061s1.159-2.379,1.508-3.222a10.621,10.621,0,0,1,.588-1.359,6.261,6.261,0,0,1-.4,1.431,24.924,24.924,0,0,1-3.327,6.322,6.172,6.172,0,0,1-.954,1.142A10.474,10.474,0,0,1,340.961,247.152Z" transform="translate(-304.526 -149.592)" fill="#fafafa"/>
      <path id="Path_83079" data-name="Path 83079" d="M389.316,214a6.872,6.872,0,0,1,.932-1.043,8.213,8.213,0,0,1,8.657-1.63,7.35,7.35,0,0,1,1.242.632,1.724,1.724,0,0,1,.41.316c-.028.044-.616-.377-1.725-.765a8.519,8.519,0,0,0-8.452,1.592c-.882.782-1.287,1.37-1.331,1.337A1.6,1.6,0,0,1,389.316,214Z" transform="translate(-326.29 -136.779)" fill="#fafafa"/>
      <path id="Path_83080" data-name="Path 83080" d="M354.527,213.873l1.708.222,5.612.743,5.623.7,1.708.216a2.544,2.544,0,0,1,.621.116,2.938,2.938,0,0,1-.632,0c-.4-.022-.993-.067-1.714-.128-1.447-.128-3.444-.338-5.64-.616s-4.181-.588-5.612-.832c-.715-.122-1.292-.227-1.691-.311a2.274,2.274,0,0,1-.61-.155A2.931,2.931,0,0,1,354.527,213.873Z" transform="translate(-310.633 -138.152)" fill="#fafafa"/>
      <path id="Path_83081" data-name="Path 83081" d="M357.878,233.647c1.142.244,2.723.538,4.5.743s3.377.288,4.547.322a16.431,16.431,0,0,1,1.891.067,1.846,1.846,0,0,1-.5.067c-.327.033-.8.061-1.392.061a34.454,34.454,0,0,1-4.575-.238,36.049,36.049,0,0,1-4.509-.826c-.566-.15-1.026-.277-1.337-.383a1.561,1.561,0,0,1-.477-.189A18.1,18.1,0,0,1,357.878,233.647Z" transform="translate(-311.577 -146.813)" fill="#fafafa"/>
      <path id="Path_83082" data-name="Path 83082" d="M402.508,255.817a16.615,16.615,0,0,1,3.067-.238,17.128,17.128,0,0,1-3.028.516,16.912,16.912,0,0,1-3.067.233A17.436,17.436,0,0,1,402.508,255.817Z" transform="translate(-330.935 -156.749)" fill="#fafafa"/>
      <path id="Path_83083" data-name="Path 83083" d="M353.621,277.129l.876.283c.377.128.843.277,1.386.433s1.159.316,1.847.516,1.453.366,2.268.555,1.7.333,2.623.5a56.941,56.941,0,0,0,6.1.61,56.111,56.111,0,0,0,6.1-.128c.937-.089,1.825-.183,2.656-.283s1.6-.244,2.3-.355,1.331-.261,1.886-.372,1.026-.222,1.414-.322l.893-.211a1.36,1.36,0,0,1,.316-.055,1.053,1.053,0,0,1-.3.111l-.882.261c-.383.116-.854.238-1.409.366s-1.187.283-1.885.416-1.47.25-2.3.388-1.725.216-2.667.316a48.678,48.678,0,0,1-12.267-.488c-.926-.172-1.8-.366-2.629-.527s-1.575-.383-2.268-.555-1.3-.388-1.847-.555-1-.338-1.375-.482l-.854-.327a1.361,1.361,0,0,1-.294-.133A1.2,1.2,0,0,1,353.621,277.129Z" transform="translate(-310.37 -166.332)" fill="#fafafa"/>
      <path id="Path_83084" data-name="Path 83084" d="M340.31,258.723c.488-1.691.527-3.133.616-3.133a9.6,9.6,0,0,1-1.73,6.1C339.118,261.651,339.822,260.415,340.31,258.723Z" transform="translate(-304.08 -156.755)" fill="#fafafa"/>
      <path id="Path_83085" data-name="Path 83085" d="M324.152,237.09c1.381-1.8,2.141-3.5,2.218-3.461a4.123,4.123,0,0,1-.444,1.109,15.707,15.707,0,0,1-1.553,2.5,15.184,15.184,0,0,1-1.985,2.157,4.335,4.335,0,0,1-.971.738C321.357,240.068,322.772,238.887,324.152,237.09Z" transform="translate(-296.163 -146.973)" fill="#fafafa"/>
      <path id="Path_83086" data-name="Path 83086" d="M347.822,226.943a9.323,9.323,0,0,1,2.218.455,8.973,8.973,0,0,1-2.252-.177,9.068,9.068,0,0,1-2.218-.449A9.076,9.076,0,0,1,347.822,226.943Z" transform="translate(-306.922 -143.913)" fill="#fafafa"/>
      <path id="Path_83087" data-name="Path 83087" d="M351.226,147.4a2.573,2.573,0,0,0,.682,4.991,2.286,2.286,0,0,0-1.242,3.183,3.427,3.427,0,0,0,3.327,1.63,7.21,7.21,0,0,0,3.566-1.52c1.065-.765,2.046-1.658,3.155-2.335a5.579,5.579,0,0,1,3.727-.932,5.135,5.135,0,0,1,3.727,3.433,13.083,13.083,0,0,1,.51,5.252,21.452,21.452,0,0,0,.089,5.3.649.649,0,0,0,.3.516c.277.116.549-.161.721-.4a26.06,26.06,0,0,0,3.987-9.295,8.087,8.087,0,0,0-.338-5.546c-.893-1.758-3.405-3.521-4.847-2.629-.277-1.791-1.325-2.629-2.989-3.394a6.1,6.1,0,0,0-5.418.388c-1.037.627-1.9,1.6-3.083,1.874-1.941.438-3.982-1.2-5.867-.555Z" transform="translate(-308.68 -107.581)" fill="#263238"/>
      <path id="Path_83088" data-name="Path 83088" d="M367.11,186.106h0a6.2,6.2,0,0,0,6.316-6.034l.516-20.236c.455-5.207-2.2-9.816-7.415-10.126h-.482a9.345,9.345,0,0,0-9.333,8.585c-.366,4.514-.721,9.511-.693,11.929.055,5.019,5.074,5.806,5.074,5.806l-.061,3.788A6.2,6.2,0,0,0,367.11,186.106Z" transform="translate(-311.576 -109.593)" fill="#ffbe9d"/>
      <path id="Path_83089" data-name="Path 83089" d="M365.13,196.98c5.008.46,6.561-3.15,6.561-3.15a11.645,11.645,0,0,1-6.544,1.847Z" transform="translate(-315.635 -129.245)" fill="#eb996e"/>
      <path id="Path_83090" data-name="Path 83090" d="M359.691,171.457a.688.688,0,0,1,.742-.629.721.721,0,0,1,.688.726v.02a.683.683,0,0,1-.736.623.715.715,0,0,1-.693-.721Z" transform="translate(-313.212 -118.998)" fill="#263238"/>
      <path id="Path_83091" data-name="Path 83091" d="M359.484,168.62a1.856,1.856,0,0,1,1.109-.36,1.989,1.989,0,0,1,1.137.349c.244.183.377.3.294.394s-.649-.288-1.42-.294-1.314.394-1.4.3C359.156,168.97,359.24,168.8,359.484,168.62Z" transform="translate(-312.989 -117.855)" fill="#263238"/>
      <path id="Path_83092" data-name="Path 83092" d="M373.431,171.463a.687.687,0,0,1,.736-.635.726.726,0,0,1,.693.726v.015a.687.687,0,0,1-.742.628.71.71,0,0,1-.688-.721Z" transform="translate(-319.332 -118.999)" fill="#263238"/>
      <path id="Path_83093" data-name="Path 83093" d="M373.154,168.895a1.9,1.9,0,0,1,1.109-.355,1.963,1.963,0,0,1,1.137.349c.244.183.377.3.294.394s-.649-.3-1.42-.3-1.314.4-1.4.305C372.826,169.25,372.91,169.078,373.154,168.895Z" transform="translate(-319.078 -117.98)" fill="#263238"/>
      <path id="Path_83094" data-name="Path 83094" d="M364.99,175.032a1.3,1.3,0,0,1-.333-.05.492.492,0,0,1-.327-.288,1.153,1.153,0,0,1,.105-.771l.555-1.508a26.465,26.465,0,0,1,1.625-3.8,24.838,24.838,0,0,1-1.314,3.921c-.2.521-.4,1.02-.582,1.5a1.037,1.037,0,0,0-.133.582c.033.139.222.194.416.194a5.208,5.208,0,0,1,1.253.233A5.327,5.327,0,0,1,364.99,175.032Z" transform="translate(-315.267 -118.011)" fill="#263238"/>
      <path id="Path_83095" data-name="Path 83095" d="M370.026,181.714a1.807,1.807,0,0,1-.654,1.192,2.069,2.069,0,0,1-1.348.466c-.355-.011-.566-.055-.555-.172s.9-.022,1.619-.616.715-1.425.843-1.425C369.987,181.154,370.082,181.365,370.026,181.714Z" transform="translate(-316.677 -123.601)" fill="#263238"/>
      <path id="Path_83096" data-name="Path 83096" d="M373.212,161.9a3,3,0,0,1,1.37-.161,2.916,2.916,0,0,1,1.3.46c.294.205.422.4.366.488-.116.189-.848-.055-1.752-.166s-1.675-.011-1.752-.222C372.713,162.2,372.88,162.038,373.212,161.9Z" transform="translate(-319.026 -114.944)" fill="#263238"/>
      <path id="Path_83097" data-name="Path 83097" d="M359.921,164.528a1.762,1.762,0,0,1,1.043-.349,1.783,1.783,0,0,1,1.065.288c.233.161.316.338.266.427-.128.183-.671.067-1.309.067s-1.17.177-1.3,0C359.643,164.877,359.721,164.694,359.921,164.528Z" transform="translate(-313.204 -116.036)" fill="#263238"/>
      <path id="Path_83098" data-name="Path 83098" d="M387.21,179.468c0,.1,3.416.915,3.538-2.512s-3.239-2.451-3.327-2.412C387.421,174.544,387.21,179.368,387.21,179.468Z" transform="translate(-325.47 -120.584)" fill="#ffbe9d"/>
      <path id="Path_83099" data-name="Path 83099" d="M389.29,179.237a.643.643,0,0,0,.555.105,1.553,1.553,0,0,0,.921-1.453,2.012,2.012,0,0,0-.177-.959.827.827,0,0,0-.6-.555.444.444,0,0,0-.333.078.382.382,0,0,0-.144.211c-.033.139.017.205.039.2s0-.072.05-.166a.3.3,0,0,1,.36-.155.709.709,0,0,1,.433.477,2.041,2.041,0,0,1,.139.86,1.486,1.486,0,0,1-.727,1.3.627.627,0,0,1-.449,0,.95.95,0,0,1-.155-.094C389.179,179.093,389.2,179.17,389.29,179.237Z" transform="translate(-326.352 -121.467)" fill="#eb996e"/>
      <path id="Path_83100" data-name="Path 83100" d="M356.369,153a6.517,6.517,0,0,1,2.107-2.423,11.153,11.153,0,0,1,6.488-2.313,9.1,9.1,0,0,1,6.378,2.423,9.589,9.589,0,0,1,2.634,4.852A14.214,14.214,0,0,1,374,161.09a4.3,4.3,0,0,1-.937,2.218,1.109,1.109,0,0,1-1.364.3,1.36,1.36,0,0,1-.4-.793c-.66-2.645-1.3-5.49-.333-8.041a7.865,7.865,0,0,0-2.357-2.174,4.08,4.08,0,0,0-3.117-.433c-1.531.471-2.473,1.958-3.7,2.989a7.238,7.238,0,0,1-6.439,1.442" transform="translate(-311.283 -108.95)" fill="#263238"/>
      <path id="Path_83101" data-name="Path 83101" d="M350.048,150.4a1.342,1.342,0,0,0,.488.665,2.145,2.145,0,0,0,1.242.388,3.56,3.56,0,0,0,.826-.067,1.7,1.7,0,0,0,.815-.383,1.071,1.071,0,0,0,.377-.871.92.92,0,0,0-.643-.754,1.025,1.025,0,0,0-1,.144,1.409,1.409,0,0,0-.455,1.109,1.664,1.664,0,0,0,.5,1.148,2.579,2.579,0,0,0,1.17.66,4.364,4.364,0,0,0,2.823-.311,13.018,13.018,0,0,0,2.507-1.5,16.106,16.106,0,0,1,2.329-1.47,5.215,5.215,0,0,1,2.435-.555,4.988,4.988,0,0,1,2.1.555,6.061,6.061,0,0,1,2.274,2.146,7.156,7.156,0,0,1,.41.749.746.746,0,0,1,.083.205.313.313,0,0,1,0,.072,2.261,2.261,0,0,1-.144-.261,7.178,7.178,0,0,0-.433-.732,6.1,6.1,0,0,0-2.274-2.069,4.894,4.894,0,0,0-2.052-.555,5.139,5.139,0,0,0-2.357.555,16.282,16.282,0,0,0-2.307,1.464,12.663,12.663,0,0,1-2.534,1.525,4.536,4.536,0,0,1-2.934.316,2.705,2.705,0,0,1-1.242-.71,1.786,1.786,0,0,1-.555-1.259,1.579,1.579,0,0,1,.51-1.2,1.11,1.11,0,0,1,.593-.261,1.28,1.28,0,0,1,.616.078,1.077,1.077,0,0,1,.727.876,1.216,1.216,0,0,1-.433.97,1.779,1.779,0,0,1-.871.4,3.5,3.5,0,0,1-.854.055,2.218,2.218,0,0,1-1.281-.433,1.387,1.387,0,0,1-.477-.7.829.829,0,0,1-.033-.3C350.009,150.086,350,150.191,350.048,150.4Z" transform="translate(-308.894 -109.098)" fill="#455a64"/>
      <path id="Path_83102" data-name="Path 83102" d="M389.3,159.462a2.862,2.862,0,0,1-.782.238,2.97,2.97,0,0,1-1.2-.089,4.893,4.893,0,0,1-1.342-.632,3.881,3.881,0,0,1-1.542-2.152,3.364,3.364,0,0,1-.133-.8.9.9,0,0,1,0-.3,7.837,7.837,0,0,0,.227,1.065,3.977,3.977,0,0,0,1.525,2.041,4.773,4.773,0,0,0,1.281.621,2.891,2.891,0,0,0,1.154.122,5.257,5.257,0,0,0,1.048-.272A.842.842,0,0,1,389.3,159.462Z" transform="translate(-324.168 -112.274)" fill="#455a64"/>
      <path id="Path_83103" data-name="Path 83103" d="M388.821,163.8a3.97,3.97,0,0,1-.782.061,4.526,4.526,0,0,1-4.1-2.717,4.121,4.121,0,0,1-.25-.743.757.757,0,0,1-.033-.288,9.635,9.635,0,0,0,.388.982,4.73,4.73,0,0,0,4,2.651c.649.055,1.054-.033,1.054,0A.768.768,0,0,1,388.821,163.8Z" transform="translate(-323.887 -114.225)" fill="#455a64"/>
      <path id="Path_83104" data-name="Path 83104" d="M377.368,175.551v0a.089.089,0,0,1,.1-.069l.006,0a.083.083,0,0,1,.055.1l0,.013a.083.083,0,0,1-.1.065A.094.094,0,0,1,377.368,175.551Z" transform="translate(-321.085 -121.07)" fill="#eb996e"/>
      <path id="Path_83105" data-name="Path 83105" d="M374.716,174.913h0a.086.086,0,1,1,.166.034c-.011.089-.055.089-.105.089A.092.092,0,0,1,374.716,174.913Z" transform="translate(-319.903 -120.781)" fill="#eb996e"/>
      <path id="Path_83106" data-name="Path 83106" d="M372.929,174.787c.006-.078.033-.133.1-.128s.078.078.067.15-.055.128-.1.128S372.924,174.865,372.929,174.787Z" transform="translate(-319.109 -120.706)" fill="#eb996e"/>
      <path id="Path_83107" data-name="Path 83107" d="M376.03,177.335c0-.055.033-.055.083-.055s.089.006.089.055-.039.05-.089.05S376.03,177.391,376.03,177.335Z" transform="translate(-320.49 -121.873)" fill="#eb996e"/>
      <path id="Path_83108" data-name="Path 83108" d="M373.662,176.753a.1.1,0,0,1-.083-.1v-.006a.089.089,0,0,1,.094-.083.1.1,0,0,1,0,.194Z" transform="translate(-319.398 -121.552)" fill="#eb996e"/>
      <path id="Path_83109" data-name="Path 83109" d="M360.949,175.116v-.008a.089.089,0,0,1,.1-.07.094.094,0,0,1,.067.111.088.088,0,1,1-.172-.033Z" transform="translate(-313.772 -120.874)" fill="#eb996e"/>
      <path id="Path_83110" data-name="Path 83110" d="M359.128,174.92a.1.1,0,0,1,.094-.1.1.1,0,0,1,.072.116.1.1,0,0,1-.094.1A.1.1,0,0,1,359.128,174.92Z" transform="translate(-312.961 -120.777)" fill="#eb996e"/>
      <path id="Path_83111" data-name="Path 83111" d="M362.682,175.3h0a.072.072,0,0,1,0-.144h.007a.078.078,0,0,1,.065.088.083.083,0,0,1-.1.055Z" transform="translate(-314.512 -120.929)" fill="#eb996e"/>
      <path id="Path_83112" data-name="Path 83112" d="M361.247,177.008a.083.083,0,0,1,.161.039.1.1,0,0,1-.117.055A.083.083,0,0,1,361.247,177.008Z" transform="translate(-313.904 -121.724)" fill="#eb996e"/>
      <path id="Path_83113" data-name="Path 83113" d="M359.6,176.762v0a.077.077,0,0,1,.062-.091.083.083,0,0,1,.1.05.078.078,0,0,1-.061.089A.083.083,0,0,1,359.6,176.762Z" transform="translate(-313.17 -121.599)" fill="#eb996e"/>
      <path id="Path_83114" data-name="Path 83114" d="M321.14,226.2l-4.437,6.838-4.547-3.327-5.047-2.878s-4.209-4.686-4.437-5.3.616-.427.616-.427a4.993,4.993,0,0,1-1.381-1.564.749.749,0,0,1,.555-1.142s-.743-.111-.41-.937,1.664-.15,1.664-.15a2.175,2.175,0,0,1,.272-1.17c.3-.394,9.7,3.821,9.7,3.821a22.651,22.651,0,0,1-1.8-4.2,1.442,1.442,0,0,1,.843-1.392l3.25,4.93L318,224.634Z" transform="translate(-287.423 -138.399)" fill="#ffbe9d"/>
      <path id="Path_83115" data-name="Path 83115" d="M316.289,232.7l-.9-.632-3.377-2.407h0L306.95,226.8h0c-.8-.876-1.636-1.813-2.5-2.817-.438-.5-.876-1-1.314-1.553a7.726,7.726,0,0,1-.632-.871.556.556,0,0,1-.089-.305.371.371,0,0,1,.194-.338,1.033,1.033,0,0,1,.616-.039l-.105.238a5.3,5.3,0,0,1-1.237-1.3,1.515,1.515,0,0,1-.322-.926.676.676,0,0,1,.288-.466,1.1,1.1,0,0,1,.482-.2v.266a.76.76,0,0,1-.555-.643.933.933,0,0,1,.05-.433.88.88,0,0,1,.222-.394,1.015,1.015,0,0,1,.854-.189,2.907,2.907,0,0,1,.8.255l-.205.128a2.813,2.813,0,0,1,.116-.9,1.9,1.9,0,0,1,.094-.222,1.069,1.069,0,0,1,.067-.111.239.239,0,0,1,.083-.083.339.339,0,0,1,.111,0,1.74,1.74,0,0,1,.482.083,15.964,15.964,0,0,1,1.714.593c2.64,1.031,5.141,2.135,7.5,3.183l-.177.189c-.516-.993-1-1.974-1.4-2.956a4.02,4.02,0,0,1-.4-1.547,1.56,1.56,0,0,1,.926-1.259.116.116,0,0,1,.144.044h0l3.228,4.941h0c.8,2.168,1.475,3.96,1.985,5.34l-.033-.033c1,.5,1.769.9,2.324,1.181l.593.311a.883.883,0,0,1,.194.116,1.189,1.189,0,0,1-.211-.083l-.6-.283-2.351-1.109a.072.072,0,0,1-.033-.039c-.532-1.37-1.22-3.155-2.052-5.313h0l-3.261-4.919.15.05a1.3,1.3,0,0,0-.765,1.054,3.876,3.876,0,0,0,.388,1.431c.4.965.887,1.935,1.4,2.923a.142.142,0,0,1,0,.116.139.139,0,0,1-.177.072c-2.357-1.043-4.864-2.146-7.487-3.172-.582-.211-1.137-.427-1.691-.588a1.6,1.6,0,0,0-.383-.067h0a.4.4,0,0,0-.044.083.829.829,0,0,0-.078.177,2.593,2.593,0,0,0-.105.8.114.114,0,0,1,0,.061l-.007.016a.133.133,0,0,1-.181.051,2.962,2.962,0,0,0-.71-.227.759.759,0,0,0-.627.122.81.81,0,0,0-.189.588.488.488,0,0,0,.36.41.139.139,0,0,1,0,.272c-.272.044-.555.2-.555.433a1.275,1.275,0,0,0,.277.743,4.983,4.983,0,0,0,1.165,1.226.128.128,0,0,1,.05.133v.006a.128.128,0,0,1-.154.094.816.816,0,0,0-.438,0,.1.1,0,0,0-.061.1.427.427,0,0,0,.067.2,7.964,7.964,0,0,0,.6.821c.433.538.871,1.054,1.3,1.558.86,1,1.691,1.947,2.479,2.828h-.028l5.03,2.9h0l3.327,2.473.876.66c.194.155.294.244.294.244A2.648,2.648,0,0,1,316.289,232.7Z" transform="translate(-287.319 -138.311)" fill="#eb996e"/>
      <path id="Path_83116" data-name="Path 83116" d="M308.65,221.017a32.55,32.55,0,0,1,3.843,1.858,33.942,33.942,0,0,1-3.96-1.6,33.224,33.224,0,0,1-3.843-1.852A32.2,32.2,0,0,1,308.65,221.017Z" transform="translate(-288.713 -140.644)" fill="#eb996e"/>
      <path id="Path_83117" data-name="Path 83117" d="M303.549,221.957l2.551,1.364,2.568,1.325a5.873,5.873,0,0,1,1.048.588,4.426,4.426,0,0,1-1.109-.41c-.682-.288-1.614-.721-2.618-1.253s-1.891-1.048-2.518-1.442a4.964,4.964,0,0,1-.982-.7A5.467,5.467,0,0,1,303.549,221.957Z" transform="translate(-287.733 -141.539)" fill="#eb996e"/>
      <path id="Path_83118" data-name="Path 83118" d="M306.974,227.74a18.357,18.357,0,0,1,2.773,1.708,37.894,37.894,0,0,1-5.657-3.178A18.809,18.809,0,0,1,306.974,227.74Z" transform="translate(-288.446 -143.695)" fill="#eb996e"/>
      <path id="Path_83119" data-name="Path 83119" d="M293.061,244.012c.532-.66,1.276-1.564,2.124-2.545s1.636-1.863,2.191-2.49a6.929,6.929,0,0,1,.97-.976,6.8,6.8,0,0,1-.821,1.109c-.532.66-1.281,1.558-2.124,2.54s-1.636,1.863-2.191,2.49a6.285,6.285,0,0,1-.97.976A7.214,7.214,0,0,1,293.061,244.012Z" transform="translate(-283.167 -148.92)" fill="#263238"/>
      <path id="Path_83120" data-name="Path 83120" d="M279.951,229.589a33.28,33.28,0,0,1,4.154-1.159,33.2,33.2,0,0,1-4.071,1.425,34.237,34.237,0,0,1-4.154,1.165A31.854,31.854,0,0,1,279.951,229.589Z" transform="translate(-275.88 -144.657)" fill="#263238"/>
      <path id="Path_83121" data-name="Path 83121" d="M280.217,203.559a35.505,35.505,0,0,1,3.327,2.895,33.723,33.723,0,0,1-3.483-2.679,33.292,33.292,0,0,1-3.272-2.895A36.9,36.9,0,0,1,280.217,203.559Z" transform="translate(-276.285 -132.385)" fill="#263238"/>
      <path id="Path_83122" data-name="Path 83122" d="M300.235,197.808a41.906,41.906,0,0,1,.433,4.836,42.767,42.767,0,0,1-.715-4.8A41.875,41.875,0,0,1,299.52,193,42.724,42.724,0,0,1,300.235,197.808Z" transform="translate(-286.41 -128.875)" fill="#263238"/>
      <path id="Path_83123" data-name="Path 83123" d="M318.284,200.362a24.654,24.654,0,0,1,1.364-3.422,24.925,24.925,0,0,1-1.109,3.516,23.941,23.941,0,0,1-1.359,3.422A23.841,23.841,0,0,1,318.284,200.362Z" transform="translate(-294.276 -130.63)" fill="#263238"/>
    </g>
    <g id="freepik--character-1--inject-212" transform="translate(39.222 67.497)">
      <rect id="Rectangle_4478" data-name="Rectangle 4478" width="72.338" height="119.437" transform="translate(0 1.569)" fill="#fafafa"/>
      <path id="Path_83124" data-name="Path 83124" d="M58.49,76.89q-.738,60.636-1.47,121.289a34.389,34.389,0,0,1,13.787-1.536q-3.427-23.451-6.843-46.914c-.477-3.315-.959-6.674-.344-9.944.765-4.077,3.161-7.651,5.235-11.259A81.264,81.264,0,0,0,79.047,79.3" transform="translate(-55.678 -76.89)" fill="#e0e0e0"/>
      <path id="Path_83125" data-name="Path 83125" d="M155.161,81.13l-39.591.5c.15,23.514,14.419,46.39,35.492,56.838a176.909,176.909,0,0,0-9.222,55.712c0,1.508.05,3.178,1.109,4.248,2.723,2.751,7.52-1.547,11.136-.155Z" transform="translate(-81.758 -79.244)" fill="#e0e0e0"/>
      <path id="Path_83126" data-name="Path 83126" d="M54.6,77.73h75.3v123.5H54.6ZM126.128,81.5H58.371V197.456h67.768Z" transform="translate(-54.6 -77.73)" fill="#263238"/>
      <rect id="Rectangle_4479" data-name="Rectangle 4479" width="71.528" height="3.067" transform="translate(1.886 28.621)" fill="#263238"/>
      <path id="Path_83127" data-name="Path 83127" d="M186.831,224.614l-2.5,1.47,1.547-.083a7.766,7.766,0,0,1,1.9-.555c.421.044.471.665.471.665l-4.769,1.924-3.571,2.057-4.786-2.773.521-2.612.272-2.773.394-1.475,1.248-1.941s.776.05.555,1.065-.4,1.608-.4,1.608l.072,1.608.71.177,4.265-2.218,1.109-1.176s.571-1.653,1.741-1.908a.233.233,0,0,1,.261.322l-1.165,2.906-1.281,1.17,1.7-.865s1.5-2.024,2.4-2.357.715.344.715.344l-1.547,2.911-2.191,1.758,1.758-.832,1.947-1.547s.638-.455.959,0a.476.476,0,0,1,0,.555Z" transform="translate(-108.288 -140.064)" fill="#936754"/>
      <path id="Path_83128" data-name="Path 83128" d="M108.459,173.43c.654,4.769,1.664,9.505,2.773,14.2A21.163,21.163,0,0,1,112.1,195a10.221,10.221,0,0,1-18.417,4.747,7.093,7.093,0,0,1-1.464-5.152,4.419,4.419,0,0,1,3.51-3.738,3.572,3.572,0,0,1,.677-5.806c.771-.41,1.8-.677,2.035-1.52a2.545,2.545,0,0,0-.311-1.564,6.58,6.58,0,0,1-.211-4.991,3.83,3.83,0,0,1,4.093-2.385" transform="translate(-71.336 -120.358)" fill="#263238"/>
      <path id="Path_83129" data-name="Path 83129" d="M102.018,201.965a2.252,2.252,0,0,1-.444-.177,3.363,3.363,0,0,1-1.314-1.226,3.229,3.229,0,0,1-.349-2.69,3.494,3.494,0,0,1,2.523-2.318l-.061.233a2.773,2.773,0,0,1-.227-3.743c.621-.732,1.575-.837,2.091-1.392a2.456,2.456,0,0,0,.521-2.085,7.207,7.207,0,0,0-.665-1.969,9.654,9.654,0,0,1-.665-1.747,2.844,2.844,0,0,1,.555-2.59,1.478,1.478,0,0,1,.61-.416.7.7,0,0,1,.255-.055,1.968,1.968,0,0,0-.787.555,2.772,2.772,0,0,0-.433,2.468,9.638,9.638,0,0,0,.682,1.7,7.077,7.077,0,0,1,.71,2.03,2.7,2.7,0,0,1-.555,2.313c-.621.643-1.564.749-2.074,1.386a2.49,2.49,0,0,0,.183,3.355l.205.177-.238.078a3.271,3.271,0,0,0-2.357,2.13,3.051,3.051,0,0,0,.277,2.534,3.438,3.438,0,0,0,1.209,1.231,4.29,4.29,0,0,0,.555.288A.6.6,0,0,1,102.018,201.965Z" transform="translate(-74.717 -124.082)" fill="#455a64"/>
      <path id="Path_83130" data-name="Path 83130" d="M114.189,199.459a7.68,7.68,0,0,0,.028-4.73,13.734,13.734,0,0,0-1.165-2.4,8.743,8.743,0,0,1-.876-2.041,3.932,3.932,0,0,1-.116-1.5,1.214,1.214,0,0,1,.15-.555,4.725,4.725,0,0,0,.155,1.974,9.51,9.51,0,0,0,.915,1.969,12.943,12.943,0,0,1,1.2,2.435,7.465,7.465,0,0,1-.105,4.886,6.7,6.7,0,0,1-.671,1.337,2.666,2.666,0,0,1-.344.427A13.188,13.188,0,0,0,114.189,199.459Z" transform="translate(-80.183 -126.955)" fill="#455a64"/>
      <path id="Path_83131" data-name="Path 83131" d="M155.72,225.47l6.1,16.737,4.8-5.934c-2.2-8.906-4.664-16.72-7.714-22.183Z" transform="translate(-99.642 -138.469)" fill="#ffa124"/>
      <path id="Path_83132" data-name="Path 83132" d="M169.188,236.37l6.1,1.924-2.734,10.387s-3.449,5.939-5.4,6.738-6.339-2.618-6.339-2.618Z" transform="translate(-101.914 -148.393)" fill="#ffa124"/>
      <path id="Path_83133" data-name="Path 83133" d="M115.225,171.705a1.109,1.109,0,0,1,1.109.643,3.272,3.272,0,0,1,.294,1.309l.266,3.061a7.457,7.457,0,0,1,0,2.019,2.6,2.6,0,0,1-.993,1.708,1.924,1.924,0,0,1-2.69-2.656,2.074,2.074,0,0,1-.555-4.015,1.5,1.5,0,0,1-.665-1.93,1.781,1.781,0,0,1,1.891-.926,2.219,2.219,0,0,1,1.608,1.447" transform="translate(-79.855 -119.226)" fill="#ffa124"/>
      <path id="Path_83134" data-name="Path 83134" d="M146.615,155.661a5.385,5.385,0,0,1,3.069,6.969,5.094,5.094,0,0,1-2.917,2.645,5.041,5.041,0,0,1-1.248,1.048,5.829,5.829,0,0,1-9.938,5.939l-4.692-13.97-6.1-3.577a3.023,3.023,0,0,1,4.276-3.211,4.758,4.758,0,0,1,8.435-1.043,16.83,16.83,0,0,1,4.437-.621,5.7,5.7,0,0,1,4.032,1.664,3.484,3.484,0,0,1,.555,4.12Z" transform="translate(-85.848 -109.186)" fill="#263238"/>
      <path id="Path_83135" data-name="Path 83135" d="M137.066,185.512a5.712,5.712,0,0,1-5.972,5.44h0a5.712,5.712,0,0,1-5.429-5.474l-.222-6.932-.693-15.528.078-.466c-.033-.993.3-1.83,1.281-1.947l10.11-2.706c3.239-.377,5.457,3.577,5.706,6.832a58.409,58.409,0,0,1,.089,10.747c-.787,5.446-4.941,6.211-4.941,6.195v3.566C137.072,185.331,137.07,185.422,137.066,185.512Z" transform="translate(-85.847 -113.429)" fill="#936754"/>
      <path id="Path_83136" data-name="Path 83136" d="M151.435,176.988a.666.666,0,0,0-.725-.6.7.7,0,0,0-.66.715v.016a.666.666,0,0,0,.725.6.693.693,0,0,0,.66-.71Z" transform="translate(-97.116 -121.674)" fill="#263238"/>
      <path id="Path_83137" data-name="Path 83137" d="M151.251,174.438a1.882,1.882,0,0,0-1.109-.338,1.909,1.909,0,0,0-1.109.36c-.238.177-.366.294-.283.383s.627-.294,1.375-.3,1.281.372,1.37.277C151.533,174.776,151.456,174.6,151.251,174.438Z" transform="translate(-96.526 -120.656)" fill="#263238"/>
      <path id="Path_83138" data-name="Path 83138" d="M138.725,176.948a.666.666,0,0,0-.725-.6.7.7,0,0,0-.66.715v.016a.666.666,0,0,0,.725.6.7.7,0,0,0,.66-.715Z" transform="translate(-91.455 -121.656)" fill="#263238"/>
      <path id="Path_83139" data-name="Path 83139" d="M138.341,174.362a1.826,1.826,0,0,0-1.109-.333,1.908,1.908,0,0,0-1.109.355c-.238.177-.366.294-.283.383s.627-.294,1.375-.305,1.287.372,1.37.277C138.623,174.7,138.546,174.567,138.341,174.362Z" transform="translate(-90.775 -120.624)" fill="#263238"/>
      <path id="Path_83140" data-name="Path 83140" d="M146.661,179.8a1.508,1.508,0,0,0,.322-.05.5.5,0,0,0,.311-.288,1.108,1.108,0,0,0-.111-.749l-.555-1.459A25.121,25.121,0,0,0,145,173.58a23.926,23.926,0,0,0,1.32,3.793c.205.5.4.987.588,1.447a1.029,1.029,0,0,1,.139.555c-.033.133-.211.194-.4.194a4.983,4.983,0,0,0-1.214.238A4.816,4.816,0,0,0,146.661,179.8Z" transform="translate(-94.864 -120.425)" fill="#263238"/>
      <path id="Path_83141" data-name="Path 83141" d="M141.095,200.7c-5.429.582-7.315-3.222-7.315-3.222a13.8,13.8,0,0,0,7.3,1.836Z" transform="translate(-89.869 -131.071)" fill="#7c5142"/>
      <path id="Path_83142" data-name="Path 83142" d="M138.232,172.553a2.95,2.95,0,0,0-2.612.1c-.3.177-.438.355-.388.449.1.189.832.006,1.714-.039s1.625.105,1.714-.094C138.7,172.875,138.537,172.686,138.232,172.553Z" transform="translate(-90.512 -119.853)" fill="#263238"/>
      <path id="Path_83143" data-name="Path 83143" d="M150.929,171.692a2.53,2.53,0,0,0-2.418-.028c-.272.166-.366.338-.305.421.15.177.771.044,1.5.044s1.348.172,1.5,0C151.278,172.047,151.189,171.869,150.929,171.692Z" transform="translate(-96.287 -119.44)" fill="#263238"/>
      <path id="Path_83144" data-name="Path 83144" d="M131.89,156.422c1.092-1.1,2.49-2.207,4.01-1.935.765.139,1.447.632,2.218.815a25.847,25.847,0,0,0,3.211,0,4.066,4.066,0,0,1,3.128,2.019c.488.871.682,1.963,1.47,2.584.366.288.821.438,1.209.688a3.677,3.677,0,0,1,1.447,2.019,10.916,10.916,0,0,1,.4,2.5,2.583,2.583,0,0,1-2.507-1.165,5,5,0,0,0-2.174-1.9c-1.22-.372-2.734.449-3.7-.372-.677-.571-.754-1.725-1.481-2.163s-1.63-.006-2.457.155a3.716,3.716,0,0,1-4.437-3.616" transform="translate(-89.027 -111.901)" fill="#263238"/>
      <path id="Path_83145" data-name="Path 83145" d="M126.755,159.553a7.612,7.612,0,0,1-.8,3.7,10.4,10.4,0,0,1-1.808,1.947c.421,1.015.222,4.581-1.608,4.193a1.019,1.019,0,0,1-.338-.133l-.8,8.169c-.776-.044-.815-2.751-1.786-2.934s-2.49-.46-2.179-2.124c0,0-2.823-1.536-1.237-3.754a8.638,8.638,0,0,1,1.109-1.142,10.484,10.484,0,0,0-.555-1.3,5.723,5.723,0,0,1-.222-5.324,4.953,4.953,0,0,1,4.215-2.773,3.432,3.432,0,0,1,3.061-2.773,4.17,4.17,0,0,1,3.644,2.035,5.046,5.046,0,0,0,2.457,1.2C130.21,158.616,127.42,159.57,126.755,159.553Z" transform="translate(-81.824 -112.282)" fill="#263238"/>
      <path id="Path_83146" data-name="Path 83146" d="M125.356,183.32c0,.094-3.25.943-3.422-2.324a2.173,2.173,0,0,1,.893-2.218,1.586,1.586,0,0,1,2.335,1.32C125.245,181.451,125.356,183.226,125.356,183.32Z" transform="translate(-84.59 -122.656)" fill="#936754"/>
      <path id="Path_83147" data-name="Path 83147" d="M124.894,183.072a.6.6,0,0,1-.516.116,1.476,1.476,0,0,1-.9-1.37,1.926,1.926,0,0,1,.15-.921.789.789,0,0,1,.555-.555.416.416,0,0,1,.322.067.354.354,0,0,1,.139.2c.033.133-.011.194-.033.189s0-.072-.05-.161a.3.3,0,0,0-.344-.139.659.659,0,0,0-.4.46,1.827,1.827,0,0,0-.116.826,1.415,1.415,0,0,0,.715,1.231.555.555,0,0,0,.427-.033,1.041,1.041,0,0,0,.15-.094C124.983,182.922,124.983,182.972,124.894,183.072Z" transform="translate(-85.276 -123.434)" fill="#7c5142"/>
      <path id="Path_83148" data-name="Path 83148" d="M149.077,169.584a3.008,3.008,0,0,0,.638-.394,4.8,4.8,0,0,0,1.775-4.159,4.117,4.117,0,0,0-.787-2.046,4.836,4.836,0,0,0-4.509-1.847,4.774,4.774,0,0,0-.482.1c-.155.044-.305.105-.449.155l.172.139a1.845,1.845,0,0,0-.222-1.264,2.772,2.772,0,0,0-.854-.893,3.33,3.33,0,0,0-1.076-.482,4.288,4.288,0,0,0-1.109-.105,16.162,16.162,0,0,0-2.013.25,8.435,8.435,0,0,1-1.719.155,3.5,3.5,0,0,1-2.263-.849,2.613,2.613,0,0,1-.51-.743q-.017.011.067.233a2.065,2.065,0,0,0,.377.555,3.478,3.478,0,0,0,2.318.954c1.1.089,2.351-.3,3.749-.344a3.4,3.4,0,0,1,2.046.555,2.646,2.646,0,0,1,.771.815,1.664,1.664,0,0,1,.194,1.109l-.039.211.211-.072.421-.139a4.112,4.112,0,0,1,.455-.094,4.619,4.619,0,0,1,4.281,1.73,3.884,3.884,0,0,1,.771,1.941,4.482,4.482,0,0,1-.172,1.83,4.716,4.716,0,0,1-1.447,2.218,9.512,9.512,0,0,1-.821.555A.883.883,0,0,0,149.077,169.584Z" transform="translate(-90.709 -113.307)" fill="#455a64"/>
      <path id="Path_83149" data-name="Path 83149" d="M150.661,156.526a2.376,2.376,0,0,0-.7-.438,2.814,2.814,0,0,0-1.281-.183,2.539,2.539,0,0,0-1.536.677l.189.061a3.881,3.881,0,0,0-2.673-2.978,3.786,3.786,0,0,0-1.664-.111,7.875,7.875,0,0,0-1.486.4,14.282,14.282,0,0,1-2.429.771,3.721,3.721,0,0,1-1.664-.05c-.383-.116-.582-.233-.588-.222s.039.044.133.105a2.012,2.012,0,0,0,.427.211,3.53,3.53,0,0,0,1.741.133,12.5,12.5,0,0,0,2.479-.726,4.827,4.827,0,0,1,3-.266,3.715,3.715,0,0,1,2.523,2.773l.039.205.15-.144a2.364,2.364,0,0,1,1.4-.654,2.663,2.663,0,0,1,1.209.122,3.355,3.355,0,0,1,.937.555C150.9,156.759,150.821,156.676,150.661,156.526Z" transform="translate(-91.228 -111.484)" fill="#455a64"/>
      <path id="Path_83150" data-name="Path 83150" d="M142.96,188.486a1.109,1.109,0,0,1-1.3-.061.9.9,0,0,1-.377-.754.584.584,0,0,1,.161-.349h0l.033-.033h0a1.269,1.269,0,0,1,.932-.438,1.108,1.108,0,0,1,.8.416A.92.92,0,0,1,142.96,188.486Z" transform="translate(-93.21 -126.336)" fill="#7c5142"/>
      <path id="Path_83151" data-name="Path 83151" d="M141.38,186.769a1.664,1.664,0,0,0,2.041.948c.3-.105.444-.238.421-.277s-.194.033-.466.072a1.747,1.747,0,0,1-1.813-.837c-.15-.233-.2-.4-.244-.4S141.236,186.475,141.38,186.769Z" transform="translate(-93.211 -126.077)" fill="#263238"/>
      <path id="Path_83152" data-name="Path 83152" d="M124.793,187.4a.912.912,0,0,1-.5.255.808.808,0,0,1-.627-.222.789.789,0,0,1-.255-.61.914.914,0,0,1,.216-.521,1.433,1.433,0,0,1,.466-.327c.006-.022-.277-.072-.593.2a.931.931,0,0,0-.094.094.959.959,0,0,0,.094,1.354.977.977,0,0,0,.832.266,1.035,1.035,0,0,0,.61-.366c.25-.333.189-.6.161-.6C125.054,186.918,125.042,187.162,124.793,187.4Z" transform="translate(-85.141 -125.938)" fill="#ffa124"/>
      <path id="Path_83153" data-name="Path 83153" d="M118.378,160.561a3.882,3.882,0,0,1-.7-1.7,2.9,2.9,0,0,1,.1-1.253,2.607,2.607,0,0,1,.782-1.2,2.007,2.007,0,0,1,1.47-.477,1.858,1.858,0,0,1,1.425.793l.288.444-.133-.516v-.033a4.354,4.354,0,0,1,.277-3.272,2.834,2.834,0,0,1,2.168-1.492,2.385,2.385,0,0,1,1.719.555,3.411,3.411,0,0,1,.449.521,1.081,1.081,0,0,0-.078-.166,2.069,2.069,0,0,0-.327-.4,2.428,2.428,0,0,0-1.769-.627,2.956,2.956,0,0,0-2.3,1.531,4.5,4.5,0,0,0-.305,3.4v.033l.155-.067a2.008,2.008,0,0,0-1.558-.865,2.163,2.163,0,0,0-1.586.555,2.7,2.7,0,0,0-.81,1.27,3,3,0,0,0-.089,1.314,3.824,3.824,0,0,0,.771,1.725,3.945,3.945,0,0,0,.344.383.65.65,0,0,0,.133.116C118.816,161.11,118.633,160.944,118.378,160.561Z" transform="translate(-82.625 -110.689)" fill="#263238"/>
      <path id="Path_83154" data-name="Path 83154" d="M122.848,207.762c4.448-.172,4.686-1.459,4.686-1.459s6.9,2.557,8.152,3.527,1.919,16.387,1.919,16.387L136.6,254.378H103.66l7.381-15.805-5.773-26.658,1.281-1.015,9.71-5.39A8.516,8.516,0,0,0,122.848,207.762Z" transform="translate(-76.453 -134.647)" fill="#ffa124"/>
      <path id="Path_83155" data-name="Path 83155" d="M105.266,215.588c1.37-1.658,4.825-2.357,6.488-1.508s13.31,19.343,13.31,19.343l15.689-4.847,3.616,7.32s-19.659,9.428-22.588,9.428c-2.2-.022-11.951-10.736-16.3-17.585a11.591,11.591,0,0,1-1.4-9.322A8.538,8.538,0,0,1,105.266,215.588Z" transform="translate(-76.451 -138.303)" fill="#ffa124"/>
      <path id="Path_83156" data-name="Path 83156" d="M109.957,232.116l.433.482,1.664,1.863,6.1,6.949,2.035,2.313a4.291,4.291,0,0,0,2.74,1.63,8.339,8.339,0,0,0,3.411-.887l3.549-1.447c4.847-2.013,10.182-4.331,15.772-6.9l-.067.189-2.5-5.063c-.366-.76-.743-1.514-1.109-2.263l.172.067a83.071,83.071,0,0,1-8.873,2.651c-2.873.732-5.673,1.364-8.319,2.019h-.094l-.044-.083L119,223.459l-2.468-4.287c-.388-.66-.738-1.314-1.109-1.9a6.392,6.392,0,0,0-1.353-1.447,5.636,5.636,0,0,0-3.1-1.192,4.99,4.99,0,0,0-2.435.494,8.351,8.351,0,0,0-1.741,1.187l.094-.1.3-.277a6.418,6.418,0,0,1,1.309-.882,4.992,4.992,0,0,1,2.479-.555,5.777,5.777,0,0,1,3.189,1.192,6.61,6.61,0,0,1,1.4,1.475c.36.6.715,1.237,1.109,1.9l2.49,4.276,5.912,10.165-.139-.061,8.319-2.03a85.237,85.237,0,0,0,8.873-2.651l.122-.044.055.111,1.109,2.268c.832,1.73,1.7,3.444,2.5,5.058l.067.128-.133.061c-5.6,2.573-10.936,4.886-15.794,6.888l-3.56,1.431a8.438,8.438,0,0,1-3.51.893,3.33,3.33,0,0,1-1.664-.593,7.215,7.215,0,0,1-1.231-1.109l-2.03-2.329-6.045-7-1.63-1.886-.416-.494a.922.922,0,0,1-.133-.177Z" transform="translate(-77.847 -138.649)" fill="#263238"/>
      <path id="Path_83157" data-name="Path 83157" d="M161.743,229.4a8.883,8.883,0,0,0-.482-2.185,25.815,25.815,0,0,0-1.076-2.545c-.837-1.791-1.547-3.416-2.1-4.6-.261-.588-.466-1.07-.6-1.409a2.135,2.135,0,0,1-.189-.555,2.229,2.229,0,0,1,.288.488c.166.322.4.815.688,1.37.571,1.165,1.337,2.778,2.174,4.564a23.5,23.5,0,0,1,1.065,2.584,8.2,8.2,0,0,1,.433,2.257,5.617,5.617,0,0,1-.15,1.536,1.913,1.913,0,0,1-.194.555A9.546,9.546,0,0,0,161.743,229.4Z" transform="translate(-100.341 -140.255)" fill="#263238"/>
      <path id="Path_83158" data-name="Path 83158" d="M160.848,216.3a17.443,17.443,0,0,1-.372,4.337A16.778,16.778,0,0,1,160.848,216.3Z" transform="translate(-101.753 -139.454)" fill="#263238"/>
      <path id="Path_83159" data-name="Path 83159" d="M163.35,271.541v-1.386c0-1.17.039-2.828.116-4.57s.15-3.316.205-4.564a14.772,14.772,0,0,1,.122-1.891,1.666,1.666,0,0,1,.055.51v1.386c0,1.17-.039,2.828-.116,4.57s-.144,3.322-.2,4.564a15.083,15.083,0,0,1-.128,1.891A2.135,2.135,0,0,1,163.35,271.541Z" transform="translate(-103.041 -158.531)" fill="#263238"/>
      <path id="Path_83160" data-name="Path 83160" d="M119.378,266.525a13.861,13.861,0,0,1-2.418-1.425,14.3,14.3,0,0,1,2.551,1.176,13.86,13.86,0,0,1,2.418,1.425A14.778,14.778,0,0,1,119.378,266.525Z" transform="translate(-82.377 -161.191)" fill="#263238"/>
      <path id="Path_83161" data-name="Path 83161" d="M117.754,267.839a11.837,11.837,0,0,1-1.514-2.579,23.512,23.512,0,0,1,1.741,2.423,23.617,23.617,0,0,1,1.664,2.473A11.568,11.568,0,0,1,117.754,267.839Z" transform="translate(-82.056 -161.262)" fill="#263238"/>
      <path id="Path_83162" data-name="Path 83162" d="M187.34,205.61a15.815,15.815,0,0,1,.166-2.95,30.855,30.855,0,0,1-.05,5.9A15.3,15.3,0,0,1,187.34,205.61Z" transform="translate(-113.715 -133.378)" fill="#263238"/>
      <path id="Path_83163" data-name="Path 83163" d="M199.947,205.472a27.694,27.694,0,0,1-2.107,3.294A54.968,54.968,0,0,1,201.827,202,27.441,27.441,0,0,1,199.947,205.472Z" transform="translate(-118.404 -133.084)" fill="#263238"/>
      <path id="Path_83164" data-name="Path 83164" d="M206.267,217.592a11.173,11.173,0,0,1-2.407.71,11.363,11.363,0,0,1,2.329-.976,11.7,11.7,0,0,1,2.429-.715A11.879,11.879,0,0,1,206.267,217.592Z" transform="translate(-121.085 -139.592)" fill="#263238"/>
      <path id="Path_83165" data-name="Path 83165" d="M208.077,230.9a20.479,20.479,0,0,1-3.277-.837,21.391,21.391,0,0,1,3.327.555,20.478,20.478,0,0,1,3.277.837A20.733,20.733,0,0,1,208.077,230.9Z" transform="translate(-121.504 -145.583)" fill="#263238"/>
      <path id="Path_83166" data-name="Path 83166" d="M199.724,242.657a19.565,19.565,0,0,1-1.464-2.917,18.428,18.428,0,0,1,1.708,2.773,19.48,19.48,0,0,1,1.459,2.917A19.064,19.064,0,0,1,199.724,242.657Z" transform="translate(-118.591 -149.895)" fill="#263238"/>
      <g id="Group_55127" data-name="Group 55127" transform="translate(33.052 94.426)" opacity="0.3">
        <path id="Path_83167" data-name="Path 83167" d="M114.588,248.477c1.547,1.154,6.588,7.143,7.8,8.651s2.168,3.239,4.1,3.239a8.012,8.012,0,0,0,3.4-.943c3.594-1.775,7.476-3.15,11.091-4.925-2.773,3-6.411,5.008-9.982,6.96-1.453.8-3.039,1.608-4.675,1.359-2.052-.3-3.455-2.163-4.631-3.882L114.2,248" transform="translate(-114.2 -248)"/>
      </g>
      <path id="Path_83168" data-name="Path 83168" d="M122.388,190.359a4.142,4.142,0,0,1-.5-.982,4.384,4.384,0,0,1-.172-.632,4.023,4.023,0,0,0-.122-.643c-.122-.388-.66-.222-1.076-.388a1.943,1.943,0,0,1-.921-.66,1.232,1.232,0,0,1-.327-.954,3.472,3.472,0,0,0,.482.832,1.861,1.861,0,0,0,.843.555,3.089,3.089,0,0,0,.6.083.872.872,0,0,1,.377.116.648.648,0,0,1,.272.327,3.066,3.066,0,0,1,.139.7,3.907,3.907,0,0,0,.144.6,4.731,4.731,0,0,0,.427.959c.311.516.555.782.555.815C123.081,191.113,122.754,190.891,122.388,190.359Z" transform="translate(-83.402 -126.002)" fill="#455a64"/>
      <path id="Path_83169" data-name="Path 83169" d="M154.841,233.412a20.847,20.847,0,0,1,.8-2.512,9.069,9.069,0,0,1-.555,2.6,8.935,8.935,0,0,1-1.015,2.451A20.72,20.72,0,0,1,154.841,233.412Z" transform="translate(-98.907 -145.957)" fill="#fafafa"/>
      <path id="Path_83170" data-name="Path 83170" d="M142.864,225.114a6.1,6.1,0,0,1,1.553.948,5.842,5.842,0,0,1-1.664-.7,6.219,6.219,0,0,1-1.553-.954A6.039,6.039,0,0,1,142.864,225.114Z" transform="translate(-93.174 -143.066)" fill="#fafafa"/>
      <path id="Path_83171" data-name="Path 83171" d="M150.3,213.408a8.231,8.231,0,0,1,.932-1.908,15.872,15.872,0,0,1-1.6,3.915A8.038,8.038,0,0,1,150.3,213.408Z" transform="translate(-96.929 -137.316)" fill="#fafafa"/>
      <path id="Path_83172" data-name="Path 83172" d="M140.84,238.843A8.482,8.482,0,0,1,142.149,235a11.552,11.552,0,0,1-.6,1.908,11.422,11.422,0,0,1-.688,1.913Z" transform="translate(-93.014 -147.783)" fill="#fafafa"/>
      <path id="Path_83173" data-name="Path 83173" d="M126.753,214.8a8.513,8.513,0,0,1,1.947.971,17.172,17.172,0,0,1-4.01-1.675A8.476,8.476,0,0,1,126.753,214.8Z" transform="translate(-85.82 -138.474)" fill="#fafafa"/>
      <path id="Path_83174" data-name="Path 83174" d="M123.6,232.73a11.231,11.231,0,0,1,.078-2.49,10.918,10.918,0,0,1,.205,2.484,11.232,11.232,0,0,1-.078,2.49A11.384,11.384,0,0,1,123.6,232.73Z" transform="translate(-85.319 -145.663)" fill="#fafafa"/>
      <path id="Path_83175" data-name="Path 83175" d="M110.857,222.78a10.876,10.876,0,0,1,1.564-1.83,10.421,10.421,0,0,1-1.337,2,10.874,10.874,0,0,1-1.564,1.83A10.422,10.422,0,0,1,110.857,222.78Z" transform="translate(-79.063 -141.525)" fill="#fafafa"/>
      <path id="Path_83176" data-name="Path 83176" d="M113.422,235.818a9.624,9.624,0,0,1,.555-2.218,10.114,10.114,0,0,1-.272,2.29,9.624,9.624,0,0,1-.555,2.218A9.427,9.427,0,0,1,113.422,235.818Z" transform="translate(-80.68 -147.16)" fill="#fafafa"/>
      <path id="Path_83177" data-name="Path 83177" d="M130.05,252.675a9.979,9.979,0,0,1,2.218.8,9.521,9.521,0,0,1-2.29-.555,9.981,9.981,0,0,1-2.218-.8A9.521,9.521,0,0,1,130.05,252.675Z" transform="translate(-87.188 -155.409)" fill="#fafafa"/>
      <path id="Path_83178" data-name="Path 83178" d="M147.627,256.781a8.265,8.265,0,0,1,.1-2.141,8.148,8.148,0,0,1,.183,2.135,8.265,8.265,0,0,1-.1,2.141A8.5,8.5,0,0,1,147.627,256.781Z" transform="translate(-96.024 -156.531)" fill="#fafafa"/>
      <path id="Path_83179" data-name="Path 83179" d="M158.439,250.834c1.78-.621,3.2-1.181,3.233-1.109a21.465,21.465,0,0,1-6.472,2.191C155.2,251.838,156.659,251.455,158.439,250.834Z" transform="translate(-99.41 -154.339)" fill="#fafafa"/>
      <path id="Path_83180" data-name="Path 83180" d="M178.525,244.746a18.385,18.385,0,0,1-1.325-4.276,8.831,8.831,0,0,1,.788,2.1,9.072,9.072,0,0,1,.555,2.179Z" transform="translate(-109.21 -150.22)" fill="#fafafa"/>
      <path id="Path_83181" data-name="Path 83181" d="M169.829,263.66a6.031,6.031,0,0,1,1.569-.97,6.209,6.209,0,0,1-1.4,1.2,6,6,0,0,1-1.575.97A6.345,6.345,0,0,1,169.829,263.66Z" transform="translate(-105.299 -160.117)" fill="#fafafa"/>
      <path id="Path_83182" data-name="Path 83182" d="M152.52,269.91c.078-.017.355,1.231.954,2.7s1.226,2.579,1.154,2.623A10.758,10.758,0,0,1,152.52,269.91Z" transform="translate(-98.217 -163.333)" fill="#fafafa"/>
      <path id="Path_83183" data-name="Path 83183" d="M144.315,281.463a14.063,14.063,0,0,1,1.348-2.423,13.474,13.474,0,0,1-1.109,2.545,13.248,13.248,0,0,1-1.353,2.423A13.747,13.747,0,0,1,144.315,281.463Z" transform="translate(-94.065 -167.4)" fill="#fafafa"/>
      <path id="Path_83184" data-name="Path 83184" d="M130.658,278.9a14.248,14.248,0,0,1,2.218-.067,6.6,6.6,0,0,1-2.218.349,6.464,6.464,0,0,1-2.218-.15A14.4,14.4,0,0,1,130.658,278.9Z" transform="translate(-87.491 -167.302)" fill="#fafafa"/>
      <path id="Path_83185" data-name="Path 83185" d="M120.495,283.205a11.654,11.654,0,0,1-.555-2.545,12.415,12.415,0,0,1,.826,2.473,12.226,12.226,0,0,1,.555,2.545A12,12,0,0,1,120.495,283.205Z" transform="translate(-83.705 -168.122)" fill="#fafafa"/>
      <path id="Path_83186" data-name="Path 83186" d="M153.517,289.1a6,6,0,0,1,1.6-.887,6.1,6.1,0,0,1-1.447,1.109,5.912,5.912,0,0,1-1.6.893A6.048,6.048,0,0,1,153.517,289.1Z" transform="translate(-98.016 -171.485)" fill="#fafafa"/>
      <path id="Path_83187" data-name="Path 83187" d="M119.066,260.481c.665.793,1.32,1.336,1.27,1.4A5.362,5.362,0,0,1,117.89,259C117.962,259,118.4,259.688,119.066,260.481Z" transform="translate(-82.791 -158.474)" fill="#fafafa"/>
      <path id="Path_83188" data-name="Path 83188" d="M174.032,238.723l5.141-4.437,2.024-2.834a28.089,28.089,0,0,0,2.274-2.3c.238-.416.011-.56-.183-.665a11.687,11.687,0,0,0-2.218,1.3s2.5-2.246,2.645-2.856-.316-.771-.638-.848-4.076,3.8-4.076,3.8l1.281-1.913s2.49-1.8,2.773-2.5-.555-1.081-.555-1.081l-2.9,2.313-1.935,1.708,1.7-2.035s2.074-1.658,2.174-2.368-.787-.71-.787-.71l-3.111,2.268-2.834,3.061a5.881,5.881,0,0,0,.2-1.636c-.039-.793-.372-.421-.372-.421l-2.368,2.878-.6,4.048Z" transform="translate(-106.747 -142.572)" fill="#936754"/>
      <path id="Path_83189" data-name="Path 83189" d="M175.288,234.057c-.444.715-.6,1.381-.682,1.381a2.3,2.3,0,0,1,.444-1.525c.466-.8,1.12-1.176,1.159-1.109S175.731,233.342,175.288,234.057Z" transform="translate(-108.052 -146.802)" fill="#7c5142"/>
      <path id="Path_83190" data-name="Path 83190" d="M174.147,238.5l.25-.233.993-.882,3.76-3.289h0l1.98-2.906h0a30.109,30.109,0,0,0,2.218-2.218.656.656,0,0,0,.128-.322c.006-.094-.055-.161-.172-.233-.017-.05-.161.033-.283.094s-.25.133-.372.205c-.494.3-.987.632-1.481.976l-.15-.194c.6-.543,1.209-1.115,1.791-1.73a5.065,5.065,0,0,0,.782-.976.556.556,0,0,0,0-.51.508.508,0,0,0-.205-.161.631.631,0,0,0-.133-.05h-.139v.006h0l-.061.039-.128.094c-.089.067-.172.139-.255.211l-.5.449c-.333.311-.665.632-1,.954q-.992.976-2,2.008l-.211-.172,1.425-2.08h0c.433-.322.876-.665,1.309-1.031a9.218,9.218,0,0,0,1.231-1.181.648.648,0,0,0,.166-.638,1.006,1.006,0,0,0-.5-.494h.144l-2.479,1.991c-.815.66-1.564,1.364-2.329,2.019l-.194-.189c.6-.688,1.154-1.37,1.708-2.03h0a15.093,15.093,0,0,0,1.664-1.536,1.654,1.654,0,0,0,.482-.86c.006-.294-.355-.455-.665-.455h.072c-1.087.793-2.13,1.542-3.117,2.257h0l-2.845,3.056-.272.294.1-.394a5.1,5.1,0,0,0,.194-1.73.545.545,0,0,0-.094-.294c-.033-.028-.144.089-.222.194l-.5.61c-.649.787-1.248,1.5-1.758,2.113v-.033L172,232.255a6.121,6.121,0,0,0-.128.776,1.189,1.189,0,0,1-.061.255,2.271,2.271,0,0,1,0-.261c.028-.194.055-.449.1-.782.094-.7.233-1.708.416-3.011h0l1.73-2.141.5-.616c.044-.055.078-.1.133-.161a.271.271,0,0,1,.277-.089.311.311,0,0,1,.177.216,1.225,1.225,0,0,1,.05.227,5.494,5.494,0,0,1-.189,1.808l-.172-.094,2.828-3.072h0l3.106-2.274.033-.028h.039a1.31,1.31,0,0,1,.555.15.649.649,0,0,1,.344.555.732.732,0,0,1-.05.322,1.386,1.386,0,0,1-.144.266,3.084,3.084,0,0,1-.349.455,15.19,15.19,0,0,1-1.664,1.575h0q-.854,1-1.7,2.019l-.194-.189c.765-.665,1.514-1.37,2.329-2.03l2.484-2,.072-.055.072.039a1.238,1.238,0,0,1,.621.677.926.926,0,0,1-.205.9,9.45,9.45,0,0,1-1.275,1.226c-.438.366-.882.715-1.325,1.043l.033-.039c-.438.66-.876,1.309-1.281,1.908l-.211-.172q1.009-1.032,2.008-2.008c.333-.322.665-.643,1-.954.166-.155.338-.311.51-.455l.266-.222.144-.105a.549.549,0,0,1,.227-.094.975.975,0,0,1,.682.355.81.81,0,0,1,.05.76,5,5,0,0,1-.832,1.048c-.6.632-1.209,1.187-1.819,1.741l-.15-.194c.5-.338,1-.671,1.5-.97.122-.072.25-.15.383-.216l.205-.094a.707.707,0,0,1,.144-.033.277.277,0,0,1,.161.05.488.488,0,0,1,.277.433.831.831,0,0,1-.172.444,28.707,28.707,0,0,1-2.218,2.252h0l-2.052,2.828h0l-3.81,3.228-1.02.848-.266.216c-.061.067-.1.067-.1.067Z" transform="translate(-106.806 -142.442)" fill="#7c5142"/>
    </g>
    <g id="freepik--Plant--inject-212" transform="translate(102.755 146.807)">
      <path id="Path_83191" data-name="Path 83191" d="M175.727,250.706a6.656,6.656,0,0,0-4.12-.5,3.4,3.4,0,0,0-2.035.909,1.464,1.464,0,0,0,0,2.03,1.948,1.948,0,0,0,1.287.327c1.109,0,2.3-.205,3.167.449.494.372.826,1,1.42,1.181a1.4,1.4,0,0,0,1.542-.688,2.383,2.383,0,0,0,.177-1.769A2.723,2.723,0,0,0,175.727,250.706Z" transform="translate(-169.163 -233.809)" fill="#ffa124"/>
      <path id="Path_83192" data-name="Path 83192" d="M182.047,232.1a1.965,1.965,0,0,1-2.95.061,5.591,5.591,0,0,1-1.248-2.557c-.6-2.113-1.22-4.326-.765-6.472a3.545,3.545,0,0,1,.826-1.758,1.881,1.881,0,0,1,1.78-.593,2.748,2.748,0,0,1,1.553,1.636,15.341,15.341,0,0,1,1.525,6.616,5.369,5.369,0,0,1-.721,3.067" transform="translate(-172.621 -220.742)" fill="#ffa124"/>
      <path id="Path_83193" data-name="Path 83193" d="M189.341,236.492a3.983,3.983,0,0,1-.621-3.666,7.086,7.086,0,0,1,2.174-3.15,11.651,11.651,0,0,1,3.882-2.29,4.154,4.154,0,0,1,1.752-.3,1.84,1.84,0,0,1,1.464.887,2.8,2.8,0,0,1-.4,2.5,29.53,29.53,0,0,1-2.557,3.882,6.944,6.944,0,0,1-2.806,2.407,2.553,2.553,0,0,1-2.995-.416" transform="translate(-177.785 -223.566)" fill="#ffa124"/>
      <path id="Path_83194" data-name="Path 83194" d="M181.658,262.914a2.231,2.231,0,0,1-.072-.5c-.033-.36-.078-.815-.128-1.359a18.2,18.2,0,0,0-.305-1.991,15.767,15.767,0,0,0-.726-2.346,8.707,8.707,0,0,0-1.2-2.13,4.432,4.432,0,0,0-1.52-1.259,4.212,4.212,0,0,0-1.276-.4,2.215,2.215,0,0,1-.494-.072,2.5,2.5,0,0,1,.5,0,3.881,3.881,0,0,1,1.336.344,4.47,4.47,0,0,1,1.6,1.275,8.377,8.377,0,0,1,1.242,2.168,13.914,13.914,0,0,1,.721,2.385,16.935,16.935,0,0,1,.266,2.019c.039.555.055,1.043.067,1.364A2.832,2.832,0,0,1,181.658,262.914Z" transform="translate(-172.182 -235.043)" fill="#263238"/>
      <path id="Path_83195" data-name="Path 83195" d="M184.062,251.082a1.041,1.041,0,0,1,0-.227v-.66c0-.555,0-1.4-.028-2.423-.05-2.052-.227-4.254-.555-7.359-.322-2.917-.754-6.317-1.209-8.524-.1-.5-.2-.959-.288-1.353s-.166-.738-.238-1.015-.116-.471-.155-.643a.93.93,0,0,1-.039-.227,1.12,1.12,0,0,1,.078.216l.194.632c.083.277.172.616.272,1.009s.211.848.316,1.348a74.226,74.226,0,0,1,1.275,7.914c.344,3.111.494,5.945.51,8,0,1.026,0,1.858-.039,2.429a3.262,3.262,0,0,1-.039.66A1.071,1.071,0,0,1,184.062,251.082Z" transform="translate(-174.68 -224.264)" fill="#263238"/>
      <path id="Path_83196" data-name="Path 83196" d="M186.047,246.965a3.651,3.651,0,0,1,0-.688c.028-.444.089-1.109.211-1.869a25.372,25.372,0,0,1,.61-2.723A22.69,22.69,0,0,1,188,238.469a17.184,17.184,0,0,1,3.327-5.207,8.212,8.212,0,0,1,.782-.726c.122-.105.227-.205.338-.288l.3-.205a3.231,3.231,0,0,1,.582-.372,19.167,19.167,0,0,0-1.9,1.7,18.019,18.019,0,0,0-3.261,5.18,24.881,24.881,0,0,0-1.142,3.194,27.631,27.631,0,0,0-.649,2.69c-.139.776-.222,1.414-.272,1.852A6.109,6.109,0,0,1,186.047,246.965Z" transform="translate(-176.676 -225.61)" fill="#263238"/>
      <path id="Path_83197" data-name="Path 83197" d="M186.961,276.63l-.549,7.5h-9.638l-.543-7.5Z" transform="translate(-172.311 -245.636)" fill="#263238"/>
      <rect id="Rectangle_4480" data-name="Rectangle 4480" width="12.816" height="2.956" transform="translate(2.766 28.038)" fill="#263238"/>
      <path id="Path_83198" data-name="Path 83198" d="M187.135,289.64v.821H174.53v-.821Z" transform="translate(-171.553 -251.431)" fill="#455a64"/>
      <path id="Path_83199" data-name="Path 83199" d="M186.313,292.562l.588-1.442H175.36l.688,1.442Z" transform="translate(-171.923 -252.091)" fill="#455a64"/>
      <path id="Path_83200" data-name="Path 83200" d="M176.55,280.2a.241.241,0,0,0,.044.072l.144.189.555.721v-.006l1.381-1.908h-.083l1.359,1.924.044.061.05-.056,1.608-1.919h-.094l.089.111c.5.627.987,1.231,1.442,1.808l.05.061.044-.067,1.359-1.919h-.083l1.664,1.908v.033l.028-.039.521-.876.133-.238a.28.28,0,0,0,.044-.083.366.366,0,0,0-.055.078l-.15.222-.555.865h.139l-1.664-1.93-.039-.044-.039.05-1.37,1.913h.089l-1.414-1.813-.089-.111-.044-.061-.05.055L180,281.13h.122l-1.37-1.913-.039-.055-.044.055c-.555.776-1,1.436-1.348,1.93h.028l-.582-.7-.161-.183Z" transform="translate(-172.453 -246.759)" fill="#e0e0e0"/>
      <path id="Path_83201" data-name="Path 83201" d="M176,276.491c0,.033,2.418.061,5.4.061s5.4,0,5.4-.061-2.418-.061-5.4-.061S176,276.458,176,276.491Z" transform="translate(-172.208 -245.547)" fill="#455a64"/>
      <path id="Path_83202" data-name="Path 83202" d="M175.11,291.221c0,.033,2.623.055,5.862.055s5.862,0,5.862-.055-2.629-.061-5.862-.061S175.11,291.188,175.11,291.221Z" transform="translate(-171.812 -252.108)" fill="#263238"/>
    </g>
  </g>
</svg>
