<svg id="Group_56824" data-name="Group 56824" xmlns="http://www.w3.org/2000/svg" width="14.214" height="14.185" viewBox="0 0 14.214 14.185">
  <path id="Path_87602" data-name="Path 87602" d="M1169.66,146.183a.561.561,0,0,1-.606-.617c0-.679.011-1.357,0-2.036a3.794,3.794,0,0,0-.965-2.459.55.55,0,0,0-.393-.207.554.554,0,0,0-.447.929,2.817,2.817,0,0,1,.7,1.945c-.007.632,0,1.265,0,1.9a1.56,1.56,0,0,0,.223.817,1.642,1.642,0,0,0,1.426.837.558.558,0,0,1,.538.744.57.57,0,0,1-.579.364h-8.021c-.037,0-.074,0-.111,0h-.009c-.237,0-.474.009-.71,0a.55.55,0,0,1-.53-.55.541.541,0,0,1,.512-.551,2.038,2.038,0,0,0,.846-.208l.055-.026a1.748,1.748,0,0,0,.811-1.6c-.016-.609,0-1.219,0-1.828a2.711,2.711,0,0,1,.128-.83,2.777,2.777,0,0,1,2.638-1.942,1.663,1.663,0,1,0-1.172-2.831,1.641,1.641,0,0,0-.319,1.879c.042.088.049.125-.057.176a3.811,3.811,0,0,0-2.326,3.568c-.016.623,0,1.246,0,1.87a.571.571,0,0,1-.633.66,1.662,1.662,0,0,0,.1,3.323q1.36,0,2.72,0c.1,0,.131.006.1.124a1.648,1.648,0,0,0,.929,1.948c.136.061.284.1.426.146h.472c.008-.02.026-.021.045-.025a1.653,1.653,0,0,0,1.338-2.07c-.032-.12,0-.124.1-.124.893,0,1.785,0,2.678,0a2.1,2.1,0,0,0,.331-.024,1.661,1.661,0,0,0-.221-3.3Zm-4.487-7.536a.554.554,0,1,1-.56.548A.556.556,0,0,1,1165.172,138.647Zm-.011,11.968a.554.554,0,1,1,.561-.548A.556.556,0,0,1,1165.161,150.615Z" transform="translate(-1158.06 -137.538)" fill=""/>
  <path id="Path_87603" data-name="Path 87603" d="M1133.593,258.324a.554.554,0,1,0,0-1.107c-.324,0-.648,0-.971,0a.542.542,0,0,0-.515.334c-.013.027-.009.066-.046.081v.277a.662.662,0,0,0,.742.419C1133.065,258.311,1133.33,258.327,1133.593,258.324Z" transform="translate(-1132.061 -252.784)" fill=""/>
  <path id="Path_87604" data-name="Path 87604" d="M1460.382,257.144c-.281.014-.563,0-.845,0a.554.554,0,1,0,0,1.107c.282,0,.564-.01.845,0a.617.617,0,0,0,.69-.446v-.222A.616.616,0,0,0,1460.382,257.144Z" transform="translate(-1446.857 -252.714)" fill=""/>
  <path id="Path_87605" data-name="Path 87605" d="M1281.745,370.98h-2.122a.555.555,0,1,0-.006,1.108h2.136a.556.556,0,1,0-.007-1.108Z" transform="translate(-1273.58 -362.336)" fill=""/>
  <path id="Path_87606" data-name="Path 87606" d="M1160.28,169.472a.575.575,0,0,0,.417.168.538.538,0,0,0,.484-.33.519.519,0,0,0-.11-.613q-.547-.56-1.108-1.107a.554.554,0,1,0-.782.784C1159.545,168.744,1159.913,169.107,1160.28,169.472Z" transform="translate(-1158.012 -166.315)" fill=""/>
  <path id="Path_87607" data-name="Path 87607" d="M1429.317,169.591a.53.53,0,0,0,.614-.117q.56-.547,1.108-1.106a.553.553,0,1,0-.783-.781c-.374.365-.74.736-1.109,1.105a.53.53,0,0,0-.163.34A.565.565,0,0,0,1429.317,169.591Z" transform="translate(-1417.989 -166.315)" fill=""/>
</svg>
