<svg xmlns="http://www.w3.org/2000/svg" width="35.148" height="37.312" viewBox="0 0 35.148 37.312">
  <g id="Group_56414" data-name="Group 56414" transform="translate(-769.846 635.006) rotate(-45)">
    <path id="Path_86489" data-name="Path 86489" d="M1026.4,108.4a.972.972,0,0,0-1.569-.333c-.266.231-.5.493-.753.742q-.641.636-1.277,1.276a.614.614,0,0,1-.434.189,15.112,15.112,0,0,0-9.373,3.813c-.509.452-.97.95-1.461,1.419-.234.224-.245.23-.531.066a5.158,5.158,0,0,0-6.245.866c-.91.938-1.847,1.849-2.772,2.772a.981.981,0,0,0-.319,1.024.958.958,0,0,0,1.456.534,4.747,4.747,0,0,0,.668-.605c.259-.252.3-.254.565,0q2.329,2.322,4.656,4.646l4.966,4.957c.055.055.111.108.163.165.178.193.177.253-.012.452-.16.168-.331.326-.488.5a1.018,1.018,0,0,0-.241,1.14.95.95,0,0,0,1.431.391,2,2,0,0,0,.269-.241c.913-.911,1.829-1.819,2.738-2.734a5.115,5.115,0,0,0,.834-6.206c-.15-.255-.146-.3.066-.513a21.3,21.3,0,0,0,2.347-2.6,14.975,14.975,0,0,0,2.811-7.11,9.574,9.574,0,0,0,.1-1.153.578.578,0,0,1,.212-.423q.878-.873,1.754-1.748a1.733,1.733,0,0,0,.483-.658.076.076,0,0,1,.1-.061v-.412C1026.416,108.568,1026.425,108.466,1026.4,108.4Zm-19.334,11.478c-.088.088-.135.06-.206-.012q-.625-.631-1.256-1.256c-.049-.049-.106-.087-.028-.163a5.258,5.258,0,0,1,1.677-1.335,3.178,3.178,0,0,1,2.516.07C1008.846,118.1,1007.951,118.988,1007.061,119.882Zm9.578,7.908c-.253.291-.542.551-.805.832-.094.1-.145.066-.223-.013q-.606-.614-1.22-1.22c-.07-.07-.134-.117-.027-.223.9-.888,1.786-1.781,2.691-2.686A3.061,3.061,0,0,1,1016.639,127.79Zm5.286-15.168a9.369,9.369,0,0,1-.241,1.414,12.233,12.233,0,0,1-1.476,3.79,13.22,13.22,0,0,1-2.1,2.693q-2.557,2.549-5.107,5.1c-.146.146-.219.168-.376.008-.882-.9-1.778-1.794-2.669-2.688h0c-.47-.464-.937-.931-1.413-1.39-.1-.1-.078-.156.011-.245,1.883-1.871,3.728-3.782,5.655-5.608a12.573,12.573,0,0,1,7.419-3.368C1021.957,112.294,1021.965,112.3,1021.924,112.622Z" transform="translate(-20.694 0)" fill="#676767"/>
    <path id="Path_86490" data-name="Path 86490" d="M980.816,364.441a18.814,18.814,0,0,0,5.374-2.694,16.228,16.228,0,0,0,2.245-1.93.967.967,0,0,0-.012-1.309.941.941,0,0,0-1.345-.035q-.765.731-1.594,1.386a16.856,16.856,0,0,1-2.977,1.843c-.081.041-.178.119-.262.044l-.007-.007-.011,0,.005-.011c-.077-.086.005-.183.046-.266a16.531,16.531,0,0,1,2.661-3.937c.192-.208.381-.42.575-.626a.94.94,0,0,0-.042-1.342.968.968,0,0,0-1.329.014,17.961,17.961,0,0,0-3.954,5.828c-.231.537-.43,1.086-.621,1.638-.033.095-.025.231-.174.249v.515a1.416,1.416,0,0,0,.775.773h.465C980.632,364.45,980.745,364.464,980.816,364.441Z" transform="translate(0 -230.45)" fill="#676767"/>
    <path id="Path_86491" data-name="Path 86491" d="M1213.3,228.11c-.019.056-.023.128-.085.155l.01.017a1.057,1.057,0,0,0,.337.829.9.9,0,0,0,1.044.179.961.961,0,0,0-.008-1.75,1.745,1.745,0,0,1-.357-.139h0c-.05.057-.124.053-.191.067A.928.928,0,0,0,1213.3,228.11Z" transform="translate(-217.714 -111.358)" fill="#676767"/>
    <path id="Path_86492" data-name="Path 86492" d="M1171.6,270.289a1.1,1.1,0,0,0-.507.546.094.094,0,0,1-.067.062l.014.017a1.121,1.121,0,0,1,.02.281.888.888,0,0,0,.854.918.918.918,0,0,0,1.042-.838.954.954,0,0,0-.762-1.041c-.172-.041-.344.031-.509-.033l-.009-.013h-.009A.116.116,0,0,1,1171.6,270.289Z" transform="translate(-178.434 -151.198)" fill="#676767"/>
  </g>
</svg>
