<svg xmlns="http://www.w3.org/2000/svg" width="89.238" height="131.479" viewBox="0 0 89.238 131.479">
  <g id="Group_56360" data-name="Group 56360" transform="translate(-19778.332 -5278.198)">
    <g id="Group_56375" data-name="Group 56375">
      <path id="Path_86257" data-name="Path 86257" d="M409.684,428.511a44.621,44.621,0,0,1-44.62-44.622c0-24.643,17.367-53.6,44.62-86.857,28.77,35.081,44.619,62.214,44.619,86.857A44.621,44.621,0,0,1,409.684,428.511Z" transform="translate(19413.268 4981.166)" fill="#3cc5fc" fill-rule="evenodd"/>
      <path id="Path_86258" data-name="Path 86258" d="M414.846,420.115a39.553,39.553,0,0,1-39.552-39.554c0-21.845,15.395-47.513,39.552-76.994,25.5,31.1,39.551,55.149,39.551,76.994A39.553,39.553,0,0,1,414.846,420.115Z" transform="translate(19408.1 4981.523)" fill="#8df" fill-rule="evenodd"/>
      <path id="Path_86259" data-name="Path 86259" d="M421.921,411.383a35.245,35.245,0,0,1-35.245-35.244c0-19.466,13.719-42.339,35.245-68.609,22.725,27.711,35.243,49.142,35.243,68.609A35.244,35.244,0,0,1,421.921,411.383Z" transform="translate(19401.027 4981.74)" fill="#fff" fill-rule="evenodd"/>
    </g>
  </g>
</svg>
