<svg id="Group_56821" data-name="Group 56821" xmlns="http://www.w3.org/2000/svg" width="14.181" height="14.181" viewBox="0 0 14.181 14.181">
  <path id="Path_87592" data-name="Path 87592" d="M987.237,139.172a.554.554,0,1,0-1.106.009q0,2.1,0,4.209a1.665,1.665,0,0,1-1.747,1.747h-8.209c-.051,0-.1,0-.152,0a.413.413,0,0,0-.074-.024.572.572,0,0,0-.114-.015,1.621,1.621,0,0,1-1.625-1.673q0-2.76,0-5.52c0-.037,0-.074,0-.111-.007-.107.041-.148.147-.146.244,0,.489,0,.733,0a.335.335,0,0,0,.164-.023l.022-.014c.055,0,.11,0,.166,0h11.18a.56.56,0,0,0,.616-.617c0-.733.005-1.467,0-2.2a2.764,2.764,0,0,0-2-2.611c-.152-.043-.308-.074-.462-.11h-9.25a2.429,2.429,0,0,0-1.093.34,2.812,2.812,0,0,0-1.192,1.352,2.517,2.517,0,0,0-.18.745v9.306c.027.01.024.035.028.057a2.767,2.767,0,0,0,2.792,2.38h8.541a2.779,2.779,0,0,0,2.819-2.823q0-1.094,0-2.187C987.238,140.547,987.239,139.859,987.237,139.172Zm-13.074-2.814c.008-.5,0-1.006,0-1.509a1.66,1.66,0,0,1,1.677-1.677q4.3,0,8.609,0a1.66,1.66,0,0,1,1.677,1.676c0,.508,0,1.015,0,1.523,0,.107-.03.126-.13.126q-2.927,0-5.854,0t-5.841,0C974.2,136.5,974.162,136.476,974.164,136.358Z" transform="translate(-973.059 -132.064)" fill=""/>
  <path id="Path_87593" data-name="Path 87593" d="M1060.882,313.022c-.152-.007-.3-.005-.457,0a.553.553,0,1,0,.036,1.106q1.647,0,3.295,0t3.323,0a.553.553,0,1,0,0-1.106,3.227,3.227,0,0,0-.387,0c-.141.015-.165-.041-.163-.17.007-.535,0-1.071,0-1.606,0-.66,0-1.32,0-1.98a.554.554,0,1,0-1.106.015q0,1.8,0,3.6c0,.106-.023.144-.136.14-.272-.009-.545-.009-.817,0-.126,0-.161-.031-.16-.159.006-.826,0-1.652,0-2.478a.554.554,0,1,0-1.106-.005c0,.831,0,1.661,0,2.492,0,.126-.036.154-.155.15-.272-.009-.545-.009-.817,0-.12,0-.144-.038-.142-.149.006-.457,0-.914,0-1.371a.6.6,0,0,0-.072-.306.543.543,0,0,0-.613-.264.534.534,0,0,0-.422.53q-.006.72,0,1.44C1061,312.993,1060.975,313.026,1060.882,313.022Z" transform="translate(-1056.676 -302.164)" fill=""/>
  <path id="Path_87594" data-name="Path 87594" d="M1147.216,193.047a.554.554,0,1,0-.549-.558A.555.555,0,0,0,1147.216,193.047Z" transform="translate(-1140.242 -189.724)" fill=""/>
  <path id="Path_87595" data-name="Path 87595" d="M1207.076,193.047a.554.554,0,1,0-.548-.559A.555.555,0,0,0,1207.076,193.047Z" transform="translate(-1197.888 -189.724)" fill=""/>
  <path id="Path_87596" data-name="Path 87596" d="M1266.938,193.047a.554.554,0,1,0-.548-.559A.555.555,0,0,0,1266.938,193.047Z" transform="translate(-1255.533 -189.724)" fill=""/>
</svg>
