<svg xmlns="http://www.w3.org/2000/svg" width="246" height="66.362" viewBox="0 0 246 66.362">
  <g id="Group_55892" data-name="Group 55892" transform="translate(-58.495 -1623)">
    <path id="Path_84595" data-name="Path 84595" d="M11348.188,6107.2l47.415,1.655,47.648,1.646h45.879l48.408,3.652,46.9-3.652" transform="translate(-11284.692 -4479.205)" fill="none" stroke="#e6b030" stroke-width="1"/>
    <g id="Group_55891" data-name="Group 55891" transform="translate(-11284.505 -4480)">
      <g id="Group_55662" data-name="Group 55662" transform="translate(11054.075 6027.865)">
        <path id="Path_84532" data-name="Path 84532" d="M293.449,119.073a1.427,1.427,0,0,1-1.524-1.3V55.429a1.543,1.543,0,0,1,3.049,0v62.339A1.428,1.428,0,0,1,293.449,119.073Z" transform="translate(0 22.011)" fill="#cb2f40"/>
      </g>
      <g id="Ellipse_4834" data-name="Ellipse 4834" transform="translate(11343 6103)" fill="#cb2f40" stroke="#fff" stroke-width="1">
        <circle cx="5" cy="5" r="5" stroke="none"/>
        <circle cx="5" cy="5" r="4.5" fill="none"/>
      </g>
    </g>
    <g id="Group_55678" data-name="Group 55678" transform="translate(-14198.506 -4728)">
      <g id="Group_55666" data-name="Group 55666" transform="translate(14049.035 6300.22)">
        <path id="Path_84536" data-name="Path 84536" d="M306.489,117.073a1.426,1.426,0,0,1-1.524-1.3V64.675a1.543,1.543,0,0,1,3.049,0v51.093A1.427,1.427,0,0,1,306.489,117.073Z" fill="#ef485a"/>
      </g>
      <g id="Ellipse_4835" data-name="Ellipse 4835" transform="translate(14351 6355)" fill="#ef485a" stroke="#fff" stroke-width="1">
        <circle cx="5" cy="5" r="5" stroke="none"/>
        <circle cx="5" cy="5" r="4.5" fill="none"/>
      </g>
    </g>
    <g id="Group_55890" data-name="Group 55890" transform="translate(-11284.505 -4480)">
      <g id="Group_55665" data-name="Group 55665" transform="translate(11094.766 6048.289)">
        <path id="Path_84535" data-name="Path 84535" d="M299.927,109.073a1.427,1.427,0,0,1-1.524-1.3V48.016a1.543,1.543,0,0,1,3.049,0v59.752A1.428,1.428,0,0,1,299.927,109.073Z" transform="translate(0 12)" fill="#d9404d"/>
      </g>
      <g id="Ellipse_4839" data-name="Ellipse 4839" transform="translate(11390 6105)" fill="#d9404d" stroke="#fff" stroke-width="1">
        <circle cx="5" cy="5" r="5" stroke="none"/>
        <circle cx="5" cy="5" r="4.5" fill="none"/>
      </g>
    </g>
    <g id="Group_55677" data-name="Group 55677" transform="translate(-14180.504 -4752)">
      <g id="Group_55664" data-name="Group 55664" transform="translate(14072.856 6300.22)">
        <path id="Path_84534" data-name="Path 84534" d="M312.668,141.073a1.427,1.427,0,0,1-1.524-1.3V87.231a1.543,1.543,0,0,1,3.049,0v52.537A1.428,1.428,0,0,1,312.668,141.073Z" fill="#f25e60"/>
      </g>
      <g id="Ellipse_4836" data-name="Ellipse 4836" transform="translate(14381 6378)" fill="#f25e60" stroke="#fff" stroke-width="1">
        <circle cx="5" cy="5" r="5" stroke="none"/>
        <circle cx="5" cy="5" r="4.5" fill="none"/>
      </g>
    </g>
    <g id="Group_55676" data-name="Group 55676" transform="translate(-14162.505 -4757)">
      <g id="Group_55667" data-name="Group 55667" transform="translate(14101.856 6300.22)">
        <path id="Path_84534-2" data-name="Path 84534" d="M312.668,146.073a1.427,1.427,0,0,1-1.524-1.3V96.231a1.543,1.543,0,0,1,3.049,0v48.537A1.428,1.428,0,0,1,312.668,146.073Z" fill="#f67c6a"/>
      </g>
      <g id="Ellipse_4837" data-name="Ellipse 4837" transform="translate(14410 6387)" fill="#f67c6a" stroke="#fff" stroke-width="1">
        <circle cx="5" cy="5" r="5" stroke="none"/>
        <circle cx="5" cy="5" r="4.5" fill="none"/>
      </g>
    </g>
    <g id="Group_55675" data-name="Group 55675" transform="translate(-14144.505 -4763)">
      <g id="Group_55668" data-name="Group 55668" transform="translate(14130.856 6300.22)">
        <path id="Path_84534-3" data-name="Path 84534" d="M312.668,152.073a1.427,1.427,0,0,1-1.524-1.3V100.231a1.543,1.543,0,0,1,3.049,0v50.537A1.428,1.428,0,0,1,312.668,152.073Z" fill="#ff9674"/>
      </g>
      <g id="Ellipse_4838" data-name="Ellipse 4838" transform="translate(14439 6390)" fill="#ff9674" stroke="#fff" stroke-width="1">
        <circle cx="5" cy="5" r="5" stroke="none"/>
        <circle cx="5" cy="5" r="4.5" fill="none"/>
      </g>
    </g>
  </g>
</svg>
